<svg width="88" height="20" viewBox="0 0 88 20" fill="none" xmlns="http://www.w3.org/2000/svg">
<g clip-path="url(#clip0)">
<path fill-rule="evenodd" clip-rule="evenodd" d="M29.0284 10.0326C28.5336 10.588 28.2861 11.2532 28.2861 12.0286C28.2861 12.804 28.5336 13.4697 29.0284 14.0246C29.5233 14.58 30.129 14.8572 30.8468 14.8572C31.5782 14.8572 32.1914 14.58 32.6868 14.0246C33.1817 13.4697 33.4291 12.804 33.4291 12.0286C33.4291 11.2532 33.1817 10.5886 32.6862 10.0326C32.1914 9.47774 31.5782 9.20002 30.8462 9.20002C30.129 9.20002 29.5233 9.47774 29.0284 10.0326V10.0326ZM28.433 7.85031C28.717 7.43374 29.1507 7.09545 29.7342 6.83431C30.3176 6.57374 30.961 6.44345 31.6645 6.44345C33.1308 6.44345 34.392 6.97202 35.4468 8.02859C36.5017 9.08574 37.0291 10.4703 37.0291 12.1823C37.0291 13.8795 36.4937 15.2635 35.4234 16.3355C34.3537 17.4069 33.0788 17.9429 31.5976 17.9429C30.9233 17.9429 30.3027 17.8166 29.7347 17.5635C29.1656 17.3103 28.7244 16.968 28.4101 16.536V17.4046C28.4117 17.4668 28.4004 17.5287 28.3772 17.5865C28.354 17.6442 28.3192 17.6966 28.275 17.7405C28.2309 17.7844 28.1782 17.8188 28.1203 17.8416C28.0623 17.8644 28.0004 17.8751 27.9381 17.8732L25.6941 17.8737C25.5444 17.8737 25.4255 17.8292 25.3352 17.74C25.2909 17.6965 25.2561 17.6443 25.2329 17.5867C25.2097 17.529 25.1986 17.4673 25.2004 17.4052V2.46859C25.2004 2.33431 25.245 2.22288 25.3352 2.13316C25.425 2.04402 25.5444 1.99945 25.6941 1.99945H27.9616C28.081 1.99945 28.189 2.04402 28.2867 2.13316C28.3839 2.22288 28.433 2.33431 28.433 2.46859V7.84974V7.85031ZM41.7589 6.55659V12.3452C41.7589 13.0823 41.9435 13.664 42.3121 14.0909C42.6807 14.5189 43.2264 14.732 43.9498 14.732C44.6584 14.732 45.207 14.5189 45.5984 14.0909C45.9893 13.664 46.1853 13.0966 46.1853 12.3892V6.55659C46.1853 6.43831 46.2333 6.33545 46.3287 6.24688C46.4145 6.16267 46.5297 6.11512 46.6499 6.11431H48.8853C49.0322 6.11431 49.1505 6.16231 49.2391 6.25774C49.3267 6.35015 49.3745 6.47327 49.3722 6.60059V16.896C49.374 16.9574 49.363 17.0186 49.3401 17.0756C49.3172 17.1326 49.2828 17.1843 49.2391 17.2275C49.1505 17.316 49.0322 17.3606 48.8848 17.3606H46.6499C46.5277 17.3643 46.4089 17.3204 46.3184 17.2383C46.2743 17.1978 46.2396 17.1483 46.2166 17.093C46.1936 17.0377 46.1829 16.9781 46.1853 16.9183V15.992C45.3887 16.9503 44.311 17.4286 42.9544 17.4286C41.6115 17.4286 40.5452 17.0126 39.756 16.1795C38.9669 15.3475 38.572 14.2457 38.572 12.8755V6.55659C38.572 6.43831 38.6235 6.33545 38.7263 6.24688C38.8172 6.16339 38.9355 6.1162 39.0589 6.11431H41.2721C41.4052 6.11431 41.5189 6.15831 41.6149 6.24688C41.6598 6.28513 41.6958 6.33259 41.7207 6.38604C41.7455 6.43948 41.7586 6.49766 41.7589 6.55659V6.55659ZM55.8043 6.11431C56.7763 6.11431 57.6341 6.25659 58.3781 6.53945C59.1215 6.82288 59.6924 7.15602 60.0901 7.53831C60.4432 7.82974 60.4581 8.16688 60.1347 8.54917L59.3169 9.51317C59.0518 9.83488 58.6986 9.85774 58.2563 9.58288C57.3878 8.98574 56.5706 8.68688 55.8049 8.68688C55.3917 8.68688 55.0563 8.76688 54.7991 8.92802C54.542 9.08859 54.4129 9.28402 54.4129 9.51317C54.4129 9.95831 54.8243 10.264 55.65 10.4326L57.3506 10.7766C59.5747 11.2212 60.6867 12.3463 60.6867 14.1537C60.6867 15.2555 60.237 16.1629 59.3392 16.8749C58.4409 17.5875 57.2695 17.9429 55.8266 17.9429C54.2357 17.9429 52.8734 17.5292 51.7397 16.7029C50.8265 16.0446 50.6717 15.4703 51.2757 14.9806L52.2477 14.1995C52.6008 13.9235 52.962 13.9469 53.33 14.268C54.1551 15.0189 55.0237 15.3937 55.9369 15.3937C56.4077 15.3937 56.7729 15.3017 57.0306 15.1183C57.2878 14.9337 57.4169 14.7126 57.4169 14.4515C57.4169 14.1915 57.2958 13.9886 57.0529 13.8429C56.8095 13.6977 56.4152 13.5715 55.8706 13.464L54.1037 13.0737C53.2048 12.8897 52.4945 12.5155 51.9717 11.948C51.4488 11.3823 51.1871 10.6543 51.1871 9.76631C51.1871 8.72516 51.6071 7.85602 52.4465 7.15945C53.2866 6.46288 54.4049 6.11431 55.8043 6.11431V6.11431ZM70.3331 17.4943V12.0697C70.3331 11.2772 70.1194 10.6412 69.6914 10.1629C69.2628 9.68459 68.6731 9.44516 67.9199 9.44516C67.1674 9.44516 66.5622 9.68859 66.1045 10.1743C65.6473 10.66 65.4182 11.292 65.4182 12.0697V17.4943C65.4204 17.556 65.4085 17.6173 65.3836 17.6737C65.3586 17.7301 65.3212 17.7801 65.2742 17.82C65.1789 17.9018 65.0568 17.9455 64.9313 17.9429H62.6953C62.6335 17.9437 62.5722 17.9321 62.515 17.9087C62.4578 17.8854 62.4059 17.8507 62.3624 17.8068C62.3189 17.7629 62.2848 17.7106 62.2619 17.6532C62.2391 17.5958 62.2281 17.5344 62.2296 17.4726V2.47031C62.2296 2.33602 62.2741 2.22459 62.3627 2.13374C62.4059 2.0897 62.4578 2.05508 62.515 2.03207C62.5722 2.00906 62.6336 1.99815 62.6953 2.00002H64.9307C65.0645 2.00002 65.1782 2.04116 65.2742 2.12345C65.3211 2.16315 65.3585 2.21298 65.3835 2.2692C65.4084 2.32542 65.4203 2.38656 65.4182 2.44802V7.92002C66.2153 6.94859 67.3811 6.46288 68.9165 6.46288C70.3183 6.46288 71.4406 6.91088 72.2823 7.80802C73.1234 8.70516 73.544 9.83374 73.544 11.1949V17.4943C73.5463 17.556 73.5345 17.6173 73.5096 17.6738C73.4846 17.7302 73.4472 17.7802 73.4 17.82C73.3048 17.9018 73.1827 17.9456 73.0572 17.9429H70.8206C70.6948 17.9455 70.5725 17.9015 70.4771 17.8195C70.4301 17.7796 70.3928 17.7297 70.3678 17.6734C70.3429 17.6171 70.331 17.5559 70.3331 17.4943" fill="#000639"/>
<mask id="mask0" mask-type="alpha" maskUnits="userSpaceOnUse" x="75" y="6" width="12" height="12">
<path d="M75.0869 6.11432H86.9157V17.9429H75.0869V6.11432Z" fill="white"/>
</mask>
<g mask="url(#mask0)">
<path fill-rule="evenodd" clip-rule="evenodd" d="M78.907 10.0326C78.4173 10.5886 78.1727 11.2532 78.1727 12.0286C78.1727 12.804 78.4173 13.4697 78.907 14.0246C79.3967 14.58 80.0093 14.8572 80.7441 14.8572C81.4784 14.8572 82.091 14.58 82.5813 14.0246C83.0705 13.4697 83.3156 12.804 83.3156 12.0286C83.3156 11.2532 83.0705 10.5886 82.5813 10.0326C82.091 9.47775 81.4784 9.20003 80.7441 9.20003C80.0093 9.20003 79.3967 9.47775 78.907 10.0326V10.0326ZM76.7138 16.2897C75.6298 15.1863 75.0869 13.7623 75.0869 12.0172C75.0869 10.2715 75.6292 8.85146 76.7138 7.7566C77.7984 6.66175 79.0824 6.11432 80.5636 6.11432C81.2664 6.11432 81.899 6.2566 82.4596 6.53946C83.0213 6.82289 83.4362 7.18632 83.7053 7.63032V6.69032C83.7053 6.55318 83.7539 6.43432 83.8516 6.33432C83.9488 6.23546 84.0573 6.18575 84.1773 6.18575H86.4442C86.5791 6.18575 86.6911 6.23546 86.7808 6.33432C86.8697 6.43137 86.9179 6.55877 86.9157 6.69032V17.3897C86.9176 17.4533 86.9066 17.5166 86.8835 17.5758C86.8603 17.635 86.8254 17.6889 86.7808 17.7343C86.7373 17.7794 86.685 17.8149 86.627 17.8386C86.5691 17.8623 86.5068 17.8737 86.4442 17.872H84.1773C84.0573 17.872 83.9488 17.8263 83.8516 17.7349C83.8041 17.6911 83.7666 17.6376 83.7414 17.5781C83.7163 17.5186 83.7042 17.4543 83.7059 17.3897V16.4269C83.4362 16.8715 83.0213 17.2349 82.4602 17.5183C81.899 17.8012 81.2602 17.9429 80.5413 17.9429C79.0744 17.9429 77.7984 17.3915 76.7138 16.2892" fill="#000639"/>
</g>
<mask id="mask1" mask-type="alpha" maskUnits="userSpaceOnUse" x="3" y="-1" width="17" height="13">
<path d="M3.08569 -0.0571289H19.5431V11.2572H3.08569V-0.0571289Z" fill="white"/>
</mask>
<g mask="url(#mask1)">
<path fill-rule="evenodd" clip-rule="evenodd" d="M18.1877 10.6587L17.2488 11.2576L15.327 7.79927C14.8007 6.8554 14.0317 6.06938 13.0995 5.52262C12.1673 4.97586 11.1059 4.68825 10.0252 4.68956H3.08569L9.88123 0.360418C10.3894 0.0371204 10.9922 -0.104576 11.5912 -0.0415921C12.1902 0.021392 12.7503 0.285346 13.1801 0.707275L18.6717 6.1187C20.01 7.43699 19.7745 9.64785 18.1877 10.6593" fill="#67C462"/>
</g>
<mask id="mask2" mask-type="alpha" maskUnits="userSpaceOnUse" x="0" y="6" width="19" height="14">
<path d="M0 6.11432H18.0003V20H0V6.11432Z" fill="white"/>
</mask>
<g mask="url(#mask2)">
<path fill-rule="evenodd" clip-rule="evenodd" d="M15.2677 20H7.18755C6.78831 19.9982 6.39803 19.8815 6.06333 19.6639C5.72864 19.4462 5.46367 19.1368 5.30009 18.7726L0.15544 7.49718L0.0788674 7.32746C0.0279884 7.21716 0.00111777 7.09731 3.41351e-05 6.97585C-0.0010495 6.85439 0.0236786 6.73408 0.0725816 6.62289C0.0782959 6.60746 0.0862961 6.59432 0.0937248 6.57775C0.162579 6.439 0.268702 6.32215 0.400208 6.2403C0.531715 6.15845 0.683411 6.11483 0.838308 6.11432H9.64988C11.3276 6.11432 12.8728 7.04346 13.6819 8.53946L15.6283 12.1332L17.6569 15.8766C18.6597 17.7297 17.3454 20 15.2683 20" fill="#74DF70"/>
</g>
</g>
<defs>
<clipPath id="clip0">
<rect width="87.43" height="20" fill="white"/>
</clipPath>
</defs>
</svg>
