<svg width="88" height="17" viewBox="0 0 88 17" fill="none" xmlns="http://www.w3.org/2000/svg">
<g clip-path="url(#clip0)">
<path d="M8.06794 0H3.54629L3.53763 0.0157214L2.91358 1.15247H8.06794C11.886 1.15247 14.9831 4.24862 14.9831 8.06794C14.9831 11.8873 11.887 14.9834 8.06794 14.9834C4.24894 14.9834 1.15247 11.887 1.15247 8.06794C1.15216 7.34549 1.2653 6.62746 1.48775 5.94011H2.80803C1.8721 8.25292 2.55678 10.9057 4.49511 12.4767C6.43343 14.0477 9.17052 14.1682 11.2394 12.7736C13.3082 11.379 14.2234 8.79658 13.4943 6.41048C12.7652 4.02438 10.563 2.39452 8.06794 2.39446H2.23211L1.59973 3.54661H8.06794C10.0998 3.54702 11.8818 4.90302 12.4239 6.86128C12.9659 8.81953 12.1349 10.8988 10.3924 11.944C8.64998 12.9892 6.42428 12.7435 4.95183 11.3433C3.47938 9.94313 3.122 7.7326 4.07825 5.93979H5.57402C4.57563 7.11183 4.52733 8.82071 5.45794 10.0473C6.38855 11.2738 8.0473 11.6875 9.44492 11.0417C10.8425 10.3958 11.6024 8.86443 11.2714 7.3608C10.9403 5.85718 9.60758 4.7865 8.06794 4.78731H0.918256L0.285551 5.94011C0.0961619 6.63353 0.000131015 7.34912 0 8.06794C0 12.5235 3.61206 16.1359 8.06794 16.1359C12.5238 16.1359 16.1359 12.5235 16.1359 8.06794C16.1359 3.61238 12.5235 0 8.06794 0ZM8.06794 5.94011C9.24312 5.94011 10.1958 6.89277 10.1958 8.06794C10.1958 9.24312 9.24312 10.1958 8.06794 10.1958C6.89277 10.1958 5.94011 9.24312 5.94011 8.06794C5.94011 6.89277 6.89277 5.94011 8.06794 5.94011ZM19.6822 8.23831C19.6822 5.9969 21.186 4.42219 23.4412 4.42219C24.8314 4.42219 25.9662 5.0318 26.562 6.05368L25.2572 6.97579C24.8455 6.32287 24.2215 6.01101 23.4839 6.01101C22.2647 6.01101 21.4555 6.87729 21.4555 8.23831C21.4555 9.58586 22.264 10.4653 23.4839 10.4653C24.2218 10.4653 24.8455 10.139 25.2572 9.4864L26.562 10.4085C25.9662 11.4442 24.8314 12.04 23.4412 12.04C21.186 12.04 19.6822 10.4653 19.6822 8.23831ZM26.8072 8.23831C26.8072 6.13871 28.2968 4.42219 30.6092 4.42219C32.9356 4.42219 34.4108 6.13871 34.4108 8.23831C34.4108 10.3238 32.935 12.04 30.6092 12.04C28.2984 12.04 26.8072 10.3235 26.8072 8.23831ZM32.6375 8.23831C32.6375 6.919 31.8572 5.9969 30.6092 5.9969C29.3611 5.9969 28.5805 6.919 28.5805 8.23831C28.5805 9.54318 29.3608 10.4653 30.6092 10.4653C31.8576 10.4653 32.6375 9.54318 32.6375 8.23831ZM45.7706 4.62015L43.5568 11.8407H41.6876L40.1228 6.74799L38.5443 11.8407H36.6725L34.4715 4.62015H36.1886L37.6841 9.82617L39.2902 4.62015H40.9519L42.5584 9.82617L44.0397 4.62015H45.7706ZM70.0887 4.62015L67.873 11.8407H66.0037L64.439 6.74799L62.8604 11.8407H60.9925L58.7908 4.62176H60.508L62.0034 9.82777L63.608 4.62015H65.2696L66.8761 9.82617L68.3578 4.62015H70.0887ZM50.95 4.59256V6.20961C50.6874 6.16609 50.4218 6.14239 50.1556 6.13871C48.8931 6.13871 48.2264 6.77719 48.2264 8.28066V11.842H46.4967V4.62015H48.1972V5.82653C48.552 4.98977 49.332 4.4931 50.325 4.4931C50.5376 4.48895 50.7492 4.52263 50.95 4.59256ZM58.1302 4.62015V11.1172C58.1302 13.5431 56.7827 14.8763 54.3991 14.8763C53.1651 14.8763 52.0303 14.5076 51.3492 13.8691L52.1295 12.6066C52.7391 13.0879 53.5338 13.3301 54.3 13.3301C55.6334 13.3301 56.4278 12.5784 56.4278 11.1163V10.4935C56.0165 11.2879 55.137 11.7702 54.0728 11.7702C52.5408 11.7702 51.5763 10.8057 51.5763 9.04652V4.62015H53.307V8.60696C53.307 9.71355 53.761 10.1958 54.6686 10.1958C55.7184 10.1958 56.4137 9.55762 56.4137 8.5075V4.62015H58.1302ZM70.544 2.33703C70.544 1.71267 70.9839 1.25867 71.6506 1.25867C72.3028 1.25867 72.7414 1.71267 72.7414 2.33703C72.7414 2.96139 72.3016 3.41506 71.6506 3.41506C70.9839 3.41506 70.544 2.96107 70.544 2.33703ZM70.7853 4.6208H72.5159V11.8414H70.7853V4.6208ZM73.3867 10.6639L74.3229 9.57142C74.8901 10.1958 75.7699 10.5644 76.692 10.5644C77.5146 10.5644 77.9686 10.2526 77.9686 9.79858C77.9686 9.41549 77.6847 9.17454 76.9615 9.00417L75.784 8.73466C74.2802 8.38012 73.6421 7.68486 73.6421 6.69184C73.6421 5.35842 74.7483 4.42219 76.6211 4.42219C77.8977 4.42219 78.9616 4.86175 79.5857 5.57146L78.6636 6.69184C78.0395 6.15283 77.3302 5.89743 76.5781 5.89743C75.7696 5.89743 75.3724 6.1955 75.3724 6.63538C75.3724 6.97579 75.6133 7.18851 76.3795 7.35856L77.6279 7.65662C79.1455 7.99704 79.6989 8.69198 79.6989 9.685C79.6989 11.1179 78.5924 12.04 76.6776 12.04C75.245 12.04 74.0393 11.501 73.3867 10.6639ZM87.3848 8.74877H82.0077C82.1922 9.91215 82.9581 10.5362 84.1356 10.5362C84.9441 10.5362 85.6249 10.2385 86.1498 9.62821L87.1855 10.6498C86.5047 11.5292 85.4122 12.04 84.0788 12.04C81.7806 12.04 80.2485 10.5362 80.2485 8.26655C80.2485 6.02513 81.7244 4.42219 83.9087 4.42219C86.008 4.42219 87.4265 5.88332 87.4265 8.08206C87.4262 8.30494 87.4123 8.5276 87.3848 8.74877ZM82.0077 7.57192H85.6974C85.6124 6.50768 84.9595 5.92631 83.9245 5.92631C82.8596 5.92599 82.1929 6.53591 82.0077 7.57192Z" fill="#0066F5"/>
</g>
<defs>
<clipPath id="clip0">
<rect width="87.43" height="16.1385" fill="white"/>
</clipPath>
</defs>
</svg>
