<svg width="100" height="29" viewBox="0 0 100 29" fill="none" xmlns="http://www.w3.org/2000/svg">
<g clip-path="url(#clip0)">
<path d="M35.6809 5.354C34.2167 5.354 33.0229 5.782 32.1444 6.6605C31.2659 7.53901 30.8379 8.6878 30.8379 10.1519V11.3458H28.7205V14.1841H30.8379V22.9916H34.1041V14.1841H36.8072V11.3458H34.1041V10.0619C34.1041 8.95809 34.915 8.21476 36.0638 8.21476C36.3116 8.21476 36.5594 8.23729 36.8297 8.25981V5.42158C36.4918 5.37653 36.1088 5.354 35.6809 5.354Z" fill="black"/>
<path d="M41.1503 5.48914H37.8616V22.9916H41.1503V5.48914Z" fill="black"/>
<path d="M45.1362 5.55673C43.4918 5.46662 42.4781 7.80928 43.7396 8.93555C44.4829 9.67894 45.7894 9.67894 46.5327 8.93555C46.9157 8.55262 47.1184 8.07957 47.1184 7.539C47.1184 6.4352 46.2399 5.55673 45.1362 5.55673ZM46.7806 11.3458H43.4918V22.9916H46.7806V11.3458Z" fill="black"/>
<path d="M54.1001 11.1206C52.4557 11.1206 51.1042 11.6838 50.0455 12.7875C49.0093 13.8913 48.4912 15.3554 48.4912 17.18C48.4912 19.0046 49.0093 20.4688 50.0455 21.5725C51.1042 22.6762 52.4557 23.2394 54.1001 23.2394C55.5643 23.2394 56.6455 22.8339 57.3889 22.0005V28.7357H60.6551V11.3459H57.5689V12.5623C56.8482 11.5937 55.6994 11.1206 54.1001 11.1206ZM54.6407 13.9363C56.2851 13.9363 57.3889 15.0851 57.3889 16.9097V17.4503C57.3889 19.2749 56.2851 20.4237 54.6407 20.4237C52.9513 20.4237 51.825 19.2299 51.825 17.18C51.825 15.1302 52.9513 13.9363 54.6407 13.9363Z" fill="black"/>
<path d="M69.5564 11.1206C67.9794 11.1206 66.8305 11.5937 66.1098 12.5623V11.3459H63.0012V28.7357H66.2903V22.0005C67.0334 22.8339 68.1374 23.2394 69.5564 23.2394C71.2231 23.2394 72.5748 22.6762 73.611 21.5725C74.6696 20.4688 75.1874 19.0046 75.1874 17.18C75.1874 15.3554 74.6696 13.8913 73.611 12.7875C72.5748 11.6838 71.2231 11.1206 69.5564 11.1206ZM69.038 13.9363C70.7277 13.9363 71.8541 15.1302 71.8541 17.18C71.8541 19.2299 70.7277 20.4237 69.038 20.4237C67.3937 20.4237 66.2903 19.2749 66.2903 17.4503V16.9097C66.2903 15.0851 67.3937 13.9363 69.038 13.9363Z" fill="black"/>
<path d="M81.4305 11.1206C80.0115 11.1206 78.8402 11.5486 77.9167 12.4046C77.0155 13.238 76.5649 14.2066 76.5649 15.2878L79.854 15.423C79.854 14.5896 80.4172 13.8913 81.4759 13.8913C82.4897 13.8913 82.9851 14.4995 82.9851 15.6933V16.1438L80.9126 16.2565C77.804 16.3916 76.25 17.563 76.25 19.793C76.25 22.023 77.7138 23.2394 80.1241 23.2394C81.3408 23.2394 82.3316 22.8339 83.0977 22.0455V22.9916H86.2736V15.806C86.2736 12.7424 84.5845 11.1206 81.4305 11.1206ZM82.9851 18.8019C82.9851 19.9957 82.1287 20.694 80.8902 20.694C79.9891 20.694 79.5385 20.3336 79.5385 19.6353C79.5385 18.8695 80.1017 18.464 81.2282 18.4189L82.9851 18.3063V18.8019Z" fill="black"/>
<path d="M99.4684 11.3458H95.8189L93.1609 18.2837L90.4804 11.3458H86.854L91.404 21.9554L88.4304 28.7356H92.012L99.4684 11.3458Z" fill="black"/>
<path fill-rule="evenodd" clip-rule="evenodd" d="M0 2.27958C0 0.714828 1.19126 -0.27534 2.66095 0.0680236L18.647 3.80284C20.1166 4.14618 21.308 5.26337 21.308 6.30086V22.0706C21.308 23.1069 20.1167 24.2253 18.647 24.5687L2.66095 28.3034C1.19135 28.6468 0 27.6585 0 26.0919V2.27958ZM4.52795 8.06483C4.52795 6.80138 5.56571 5.92638 6.84333 6.11006L13.7917 7.10902C15.0705 7.29287 16.1071 8.25626 16.1071 9.26138C16.1071 10.2662 15.0694 11.0155 13.7917 10.9351L6.84333 10.4981C5.56459 10.4176 4.52795 9.32851 4.52795 8.06483ZM4.40472 14.1857C4.40472 12.878 5.47892 11.8612 6.80138 11.9147L13.9937 12.2055C15.3174 12.2591 16.3905 13.1454 16.3905 14.1857C16.3905 15.2259 15.3163 16.1125 13.9937 16.166L6.80138 16.4568C5.47775 16.5103 4.40472 15.4939 4.40472 14.1857ZM7.19144 22.7245C8.66247 22.4998 9.85494 21.2468 9.85494 19.9259C9.85494 18.605 8.66247 17.6092 7.19144 17.7017C5.72044 17.7943 4.52795 19.0472 4.52795 20.5003C4.52795 21.9534 5.72044 22.9492 7.19144 22.7245Z" fill="url(#paint0_linear)"/>
</g>
<defs>
<linearGradient id="paint0_linear" x1="-18.8201" y1="-15.7056" x2="-19.5009" y2="63.804" gradientUnits="userSpaceOnUse">
<stop stop-color="#1400FF"/>
<stop offset="1" stop-color="#FC199B"/>
</linearGradient>
<clipPath id="clip0">
<rect width="100" height="28.7356" fill="white"/>
</clipPath>
</defs>
</svg>
