<svg width="100" height="19" viewBox="0 0 100 19" fill="none" xmlns="http://www.w3.org/2000/svg">
<g clip-path="url(#clip0)">
<path d="M12.8161 8.03143C15.2426 6.0492 20.1982 -1.09366 12.4402 0.170866C9.0567 0.683511 4.10113 3.96444 3.11002 7.75802C2.59737 6.73272 2.01638 5.77579 1.4012 4.81885C0.444263 3.52015 -0.615204 4.54544 0.410087 5.84414C3.4494 9.52391 5.20174 14.0968 5.39983 18.8653C5.63907 16.5755 5.26313 13.7731 4.34037 11.0389C4.78466 11.1756 5.2973 11.244 5.7416 11.244C7.31371 13.8414 9.74023 16.0629 12.4402 17.0882C14.935 18.0793 18.2501 17.4983 16.8831 13.4996C16.1654 11.3124 14.4907 9.39848 12.8161 8.03143ZM13.1579 1.09363C17.4641 0.615158 12.8503 5.98085 11.3465 6.97196C9.94529 6.0492 8.16812 5.22897 6.4593 5.4682C7.68965 3.86191 10.6972 1.40121 13.1579 1.09363ZM6.42512 6.6302C7.58712 6.52767 8.85165 7.17702 9.84276 7.86054C8.88582 8.33901 7.86053 8.61242 6.80106 8.71495C5.22895 8.71495 4.88719 6.7669 6.42512 6.6302ZM12.3718 14.9692C10.3554 14.3882 8.44153 12.7478 7.07448 11.1073C8.20229 10.8681 9.33011 10.4238 10.3554 9.8086C10.7313 9.63771 11.1073 9.3643 11.449 9.12507C12.6452 10.2187 13.9097 11.6883 14.3882 13.3629C14.8667 15.1743 13.568 15.311 12.3718 14.9692Z" fill="#F5A623"/>
<path d="M29.3234 3.52022H23.445C23.24 3.52022 23.0691 3.6911 23.0691 3.89616H23.0349V13.1238C23.0349 13.3288 23.2058 13.4997 23.4109 13.4997C23.5817 13.4997 23.7526 13.3288 23.7868 13.1238V8.95426H28.7766C28.9816 8.95426 29.0841 8.78337 29.0841 8.61249C29.0841 8.40743 28.9474 8.30491 28.7766 8.30491H23.7526V4.23792H29.3234C29.5284 4.23792 29.631 4.06704 29.631 3.89616C29.631 3.79363 29.5284 3.65692 29.3234 3.52022ZM32.0233 3.04175H31.9891C31.8183 3.04175 31.7157 3.17845 31.7157 3.34934V13.0896C31.7157 13.2947 31.8524 13.4314 32.0233 13.4314C32.2284 13.4314 32.3309 13.2605 32.3309 13.0896V3.41769C32.3309 3.17845 32.2284 3.04175 32.0233 3.04175ZM40.5333 6.52774C40.5333 6.32268 40.3965 6.18597 40.2257 6.18597C40.0206 6.18597 39.9181 6.35685 39.9181 6.52774V10.5947C39.9181 11.9618 38.8586 13.0554 37.5599 13.0212C36.1928 13.0212 35.4068 12.0643 35.4068 10.5605V6.52774C35.4068 6.32268 35.2701 6.18597 35.0992 6.18597C34.9625 6.18597 34.7916 6.35685 34.7916 6.52774V10.6631C34.7916 12.3719 35.8169 13.6364 37.4915 13.6364C38.5168 13.6706 39.4738 13.0896 39.9523 12.1327V13.1921C39.9523 13.3972 40.1231 13.4997 40.2598 13.4997C40.4649 13.4997 40.5674 13.3288 40.5674 13.1921H40.5333V6.52774ZM46.1724 6.8695C46.3091 6.8695 46.48 6.73279 46.48 6.56191C46.48 6.42521 46.3091 6.25432 46.1724 6.25432H44.0193V4.23792C44.0193 4.06704 43.8484 3.89616 43.7117 3.89616H43.6775C43.5066 3.89616 43.4041 4.06704 43.4041 4.23792V6.25432H42.6522C42.4813 6.25432 42.3446 6.35685 42.3446 6.52774C42.3446 6.69862 42.4813 6.8695 42.6522 6.8695H43.4041V11.5858C43.4041 12.9187 44.2585 13.5681 45.2496 13.5681C45.5914 13.5681 45.9331 13.4997 46.2407 13.3972C46.3432 13.3288 46.4458 13.2263 46.4458 13.0896C46.4458 12.9187 46.3091 12.8162 46.1724 12.8162C45.9331 12.8845 45.6597 12.9187 45.3863 12.9187C44.5661 12.9187 44.0193 12.5428 44.0193 11.5175V6.8695H46.1724ZM51.4697 6.8695C51.6406 6.8695 51.7773 6.73279 51.7773 6.56191C51.7773 6.42521 51.6406 6.25432 51.4697 6.25432H49.3166V4.23792C49.3166 4.06704 49.1799 3.89616 49.009 3.89616H48.9748C48.804 3.89616 48.7014 4.06704 48.7014 4.23792V6.25432H47.9495C47.8128 6.25432 47.642 6.35685 47.642 6.52774C47.642 6.69862 47.8128 6.8695 47.9495 6.8695H48.7014V11.5858C48.7014 12.9187 49.5558 13.5681 50.5811 13.5681C50.8887 13.5681 51.2305 13.4997 51.5381 13.3972C51.6748 13.3288 51.7431 13.2263 51.7431 13.0896C51.7431 12.9187 51.6406 12.8162 51.4697 12.8162C51.2305 12.8845 50.9571 12.9187 50.6837 12.9187C49.8634 12.9187 49.3166 12.5428 49.3166 11.5175V6.8695H51.4697ZM56.1519 6.04927C54.3405 6.04927 52.9735 7.68973 52.9735 9.84284V9.87702C52.9735 12.1668 54.4772 13.6706 56.2886 13.6706C57.2455 13.7048 58.2367 13.2947 58.886 12.5086C58.9885 12.4402 59.0227 12.3377 59.0227 12.2694C59.0227 12.0985 58.8518 11.9276 58.7151 11.9276L58.5101 11.996C58.2389 12.3121 57.9037 12.5669 57.5266 12.7437C57.1495 12.9205 56.7392 13.0151 56.3228 13.0212C54.9899 13.0212 53.7937 11.9618 53.657 10.1846H58.9885C59.1252 10.1846 59.2961 10.0137 59.2961 9.84284C59.2961 7.68973 58.0658 6.04927 56.1519 6.04927ZM53.6228 9.50108C53.7254 7.92897 54.7848 6.69862 56.1177 6.69862C57.6557 6.69862 58.4759 8.0315 58.5442 9.50108H53.6228ZM64.5251 6.1518C63.2948 6.25432 62.2695 7.10873 61.8252 8.33908V6.56191C61.8252 6.42521 61.6543 6.25432 61.5176 6.25432C61.3125 6.25432 61.21 6.35685 61.1758 6.56191V13.2605C61.1758 13.4314 61.3125 13.6022 61.4834 13.6022C61.6543 13.6022 61.791 13.4655 61.8252 13.2605V10.5947C61.8252 8.23655 63.0897 7.10873 64.5251 6.93785H64.5593C64.7644 6.93785 64.8669 6.73279 64.8669 6.56191C64.8669 6.32268 64.7302 6.1518 64.5251 6.1518Z" fill="black"/>
<path d="M76.0423 5.77578C75.598 5.77578 75.1879 6.11754 75.0854 6.59601L73.9234 10.4921L72.7956 6.59601C72.693 6.11754 72.2487 5.7416 71.7361 5.7416H71.6336C71.1209 5.7416 70.6766 6.04919 70.5741 6.59601L69.4463 10.4238L68.3526 6.56184C68.2159 6.11754 67.84 5.7416 67.3615 5.7416H67.3273C66.8147 5.7416 66.4387 6.1859 66.4387 6.73272L66.5071 7.24536L68.2501 12.611C68.3868 13.1579 68.8311 13.5338 69.3779 13.568H69.4463C69.9589 13.568 70.369 13.192 70.5399 12.6452L71.6677 8.81747L72.7956 12.6452C72.9323 13.192 73.3766 13.568 73.8892 13.568H73.9917C74.5386 13.568 74.9829 13.192 75.1196 12.611L76.8626 7.17701L76.9651 6.76689V6.73272C76.9651 6.1859 76.555 5.77578 76.0423 5.77578ZM81.0663 5.77578C80.2802 5.7416 79.5283 5.91249 78.7764 6.15172C78.4689 6.28842 78.298 6.59601 78.298 6.97195C78.298 7.4846 78.6739 7.86054 79.1524 7.82636C79.2207 7.82636 79.3233 7.82636 79.4258 7.75801C79.8701 7.6213 80.3486 7.55295 80.827 7.55295C81.8523 7.55295 82.365 8.03142 82.365 8.95418V9.05671C81.8182 8.85165 81.203 8.7833 80.622 8.7833C78.9473 8.7833 77.7853 9.56935 77.7853 11.244C77.7853 12.7136 78.9132 13.568 80.2119 13.568C81.0321 13.6022 81.8182 13.2262 82.365 12.611C82.3992 13.1579 82.8093 13.5338 83.3219 13.5338C83.8688 13.5338 84.313 13.0553 84.313 12.4743V9.05671C84.3472 8.2023 84.0738 7.31372 83.527 6.66436C82.946 6.11754 82.1599 5.77578 81.0663 5.77578ZM82.3992 10.7313C82.3992 11.5516 81.7156 12.0642 80.7929 12.0301C80.1435 12.0301 79.6992 11.6883 79.6992 11.1073V11.0731C79.6992 10.4238 80.246 10.0136 81.1005 10.0136C81.5106 10.0136 81.989 10.1504 82.3992 10.3212V10.7313ZM91.2509 5.7416C90.8408 5.7416 90.4306 6.01501 90.3281 6.49348L88.756 10.9022L87.2522 6.52766C87.1155 6.04919 86.7396 5.7416 86.2611 5.7416C85.7485 5.7416 85.3383 6.15172 85.27 6.73272C85.27 6.9036 85.3383 7.07448 85.4067 7.24536L87.594 12.611C87.7307 13.1579 88.175 13.5338 88.7218 13.568H88.8585C89.337 13.5338 89.8155 13.192 90.0205 12.6452L92.1395 7.27954L92.242 6.76689V6.73272C92.242 6.1859 91.8319 5.7416 91.2509 5.7416ZM96.5482 5.70743C94.4635 5.70743 93.0281 7.4846 93.0281 9.63771V9.97947C93.0964 12.0642 94.8052 13.6705 96.7533 13.568C97.6419 13.568 98.4963 13.2604 99.214 12.6452C99.4191 12.4743 99.4874 12.2693 99.4874 12.0301V11.9959C99.4874 11.5174 99.1457 11.1415 98.7014 11.1415C98.5305 11.1415 98.3596 11.1756 98.2229 11.3123C97.8246 11.6554 97.313 11.8381 96.7875 11.825C95.9331 11.8592 95.1812 11.244 95.0787 10.3212H99.0773C99.59 10.2871 100 9.80859 99.9659 9.26177V9.09089C99.9659 7.24536 98.428 5.63907 96.5482 5.70743ZM95.0103 9.05671C95.1812 8.06559 95.728 7.45042 96.5482 7.45042C97.3685 7.45042 97.9153 8.09977 98.0178 9.05671H95.0103Z" fill="black" stroke="black"/>
</g>
<defs>
<clipPath id="clip0">
<rect width="100" height="18.8995" fill="white"/>
</clipPath>
</defs>
</svg>
