<svg width="100" height="28" viewBox="0 0 100 28" fill="none" xmlns="http://www.w3.org/2000/svg">
<g clip-path="url(#clip0)">
<path fill-rule="evenodd" clip-rule="evenodd" d="M32.95 14.3097L33.2887 12.3811C33.2887 12.3811 30.6802 11.5339 28.5571 13.1051V20.8201H30.8116V14.552C31.71 13.828 32.95 14.3097 32.95 14.3097Z" fill="#03435F"/>
<mask id="mask0" mask-type="alpha" maskUnits="userSpaceOnUse" x="28" y="12" width="6" height="9">
<path d="M28.5571 13.105C29.5786 12.3492 30.7125 12.153 31.6142 12.1531C32.5865 12.1531 33.2888 12.3811 33.2888 12.3811L32.9499 14.3097C32.9499 14.3097 31.71 13.828 30.8116 14.5519V20.8199H28.5571V13.105Z" fill="white"/>
</mask>
<g mask="url(#mask0)">
<path fill-rule="evenodd" clip-rule="evenodd" d="M-108.68 44.7314L208.808 44.7314V-405.044H-108.68L-108.68 44.7314Z" fill="#03435F"/>
</g>
<mask id="mask1" mask-type="alpha" maskUnits="userSpaceOnUse" x="28" y="12" width="6" height="9">
<path d="M28.5571 13.105C29.5786 12.3492 30.7124 12.1531 31.6142 12.1531C32.5865 12.1531 33.2888 12.3811 33.2888 12.3811L32.9499 14.3097C32.9499 14.3097 31.71 13.828 30.8116 14.5519V20.8199H28.5571V13.105Z" fill="white"/>
</mask>
<g mask="url(#mask1)">
<path fill-rule="evenodd" clip-rule="evenodd" d="M24.7776 24.5996H37.0685V8.37339H24.7776V24.5996Z" fill="#03435F"/>
</g>
<path fill-rule="evenodd" clip-rule="evenodd" d="M13.5139 10.1817L15.7674 9.75712V12.2663H17.9972V14.2728H15.7674V17.2653C15.7674 17.7751 15.8498 18.1797 16.0183 18.479C16.185 18.7828 16.5191 18.9334 17.021 18.9334C17.2664 18.9334 17.5128 18.9099 17.7728 18.86C18.0254 18.8092 18.2609 18.744 18.4729 18.6586L18.7917 20.5381C18.519 20.6552 18.2175 20.7567 17.8851 20.8428C17.5516 20.9281 17.1423 20.9725 16.6586 20.9725C16.0437 20.9725 15.5355 20.8829 15.1314 20.7051C14.7294 20.5272 14.4061 20.2777 14.1652 19.9593C13.9242 19.6437 13.7547 19.2564 13.6596 18.8028C13.5628 18.3502 13.5139 17.8503 13.5139 17.2988V10.1817Z" fill="#03435F"/>
<mask id="mask2" mask-type="alpha" maskUnits="userSpaceOnUse" x="13" y="9" width="6" height="12">
<path d="M13.5137 10.1815L15.7671 9.75699V12.2661H17.997V14.2727H15.7671V17.2652C15.7671 17.7751 15.8495 18.1796 16.018 18.4789C16.1846 18.7829 16.5188 18.9333 17.0206 18.9333C17.266 18.9333 17.5123 18.9097 17.7724 18.8598C18.025 18.8091 18.2606 18.7438 18.4726 18.6586L18.7913 20.538C18.5187 20.6552 18.2171 20.7568 17.8847 20.8429C17.5513 20.9281 17.1419 20.9724 16.6582 20.9724C16.0431 20.9724 15.5351 20.8828 15.1312 20.7049C14.729 20.5271 14.4056 20.2776 14.1648 19.9593C13.9238 19.6436 13.7545 19.2563 13.6594 18.8027C13.5624 18.3501 13.5137 17.8503 13.5137 17.2987V10.1815Z" fill="white"/>
</mask>
<g mask="url(#mask2)">
<path fill-rule="evenodd" clip-rule="evenodd" d="M-108.68 44.7314L208.808 44.7314V-405.044H-108.68L-108.68 44.7314Z" fill="#03435F"/>
<path fill-rule="evenodd" clip-rule="evenodd" d="M9.73389 24.7521H22.5709V5.97726H9.73389L9.73389 24.7521Z" fill="#03435F"/>
</g>
<path fill-rule="evenodd" clip-rule="evenodd" d="M36.6268 19.0923C37.0389 19.0923 37.3305 19.0468 37.5037 18.9616C37.6756 18.8755 37.7589 18.7068 37.7589 18.4601C37.7589 18.265 37.6503 18.0954 37.4274 17.9512C37.2047 17.8043 36.8695 17.641 36.4149 17.455C36.0625 17.3144 35.7419 17.1694 35.4529 17.0197C35.1676 16.8673 34.9231 16.6895 34.7212 16.4781C34.5199 16.2677 34.3642 16.0154 34.2519 15.7216C34.1395 15.4331 34.0863 15.0839 34.0863 14.672C34.0863 13.8746 34.3642 13.2423 34.9177 12.7788C35.4719 12.3171 36.2311 12.0813 37.2001 12.0813C37.6847 12.0813 38.1484 12.1275 38.5923 12.221C39.0352 12.3117 39.3894 12.4152 39.6492 12.5194L39.2571 14.397C38.9944 14.3 38.7091 14.2148 38.4021 14.1404C38.095 14.0643 37.7491 14.0243 37.3668 14.0243C36.6612 14.0243 36.3079 14.2366 36.3079 14.6565C36.3079 14.7536 36.3234 14.8398 36.3541 14.915C36.3849 14.9913 36.4448 15.0639 36.5336 15.1336C36.6268 15.2027 36.7482 15.2805 36.9057 15.3605C37.0623 15.4448 37.2617 15.5318 37.5037 15.6308C37.9953 15.8267 38.4038 16.0172 38.7264 16.2096C39.0496 16.4018 39.3033 16.6042 39.4908 16.829C39.6773 17.0486 39.8097 17.2918 39.8839 17.562C39.9582 17.8315 39.9971 18.1426 39.9971 18.4973C39.9971 19.3382 39.7018 19.974 39.114 20.404C38.5234 20.8322 37.6883 21.048 36.6095 21.048C35.9048 21.048 35.3179 20.9854 34.8497 20.854C34.3796 20.726 34.0553 20.6155 33.8743 20.5301L34.2519 18.5725C34.6333 18.734 35.03 18.8592 35.4304 18.9537C35.8361 19.0461 36.2311 19.0923 36.6268 19.0923Z" fill="#03435F"/>
<mask id="mask3" mask-type="alpha" maskUnits="userSpaceOnUse" x="33" y="12" width="7" height="10">
<path d="M34.9174 12.7789C35.4718 12.3171 36.2308 12.0813 37.1999 12.0813C37.6846 12.0813 38.1483 12.1275 38.5922 12.221C39.035 12.3117 39.3892 12.415 39.6491 12.5194L39.257 14.397C38.9942 14.3 38.7091 14.2148 38.4018 14.1404C38.0949 14.0642 37.7488 14.0244 37.3667 14.0244C36.661 14.0244 36.3078 14.2364 36.3078 14.6565C36.3078 14.7536 36.3231 14.8398 36.3539 14.915C36.3848 14.9913 36.4447 15.0639 36.5335 15.1336C36.6265 15.2027 36.7481 15.2806 36.9056 15.3605C37.0622 15.4447 37.2614 15.532 37.5034 15.6308C37.9953 15.8267 38.4038 16.0172 38.7261 16.2096C39.0495 16.4018 39.3032 16.6041 39.4907 16.829C39.6772 17.0487 39.8094 17.2917 39.8838 17.562C39.9581 17.8315 39.9968 18.1426 39.9968 18.4973C39.9968 19.3382 39.7015 19.9741 39.1139 20.404C38.5233 20.8322 37.6882 21.048 36.6094 21.048C35.9048 21.048 35.3178 20.9854 34.8496 20.854C34.3794 20.726 34.0552 20.6155 33.874 20.5301L34.2518 18.5725C34.6332 18.7342 35.0298 18.8592 35.4302 18.9537C35.8359 19.046 36.2308 19.0923 36.6265 19.0923C37.0387 19.0923 37.3305 19.047 37.5034 18.9616C37.6755 18.8755 37.7588 18.7068 37.7588 18.4601C37.7588 18.265 37.6502 18.0954 37.4273 17.9512C37.2044 17.8043 36.8693 17.641 36.4147 17.455C36.0623 17.3144 35.7418 17.1694 35.4527 17.0197C35.1675 16.8673 34.9229 16.6895 34.7211 16.4781C34.5198 16.2676 34.3641 16.0154 34.2518 15.7216C34.1394 15.4329 34.086 15.0839 34.086 14.672C34.086 13.8747 34.3641 13.2425 34.9174 12.7789Z" fill="white"/>
</mask>
<g mask="url(#mask3)">
<path fill-rule="evenodd" clip-rule="evenodd" d="M-108.68 44.7314L208.808 44.7314V-405.044H-108.68L-108.68 44.7314Z" fill="#03435F"/>
<path fill-rule="evenodd" clip-rule="evenodd" d="M30.0945 24.8276H43.7767V8.30157H30.0945V24.8276Z" fill="#03435F"/>
</g>
<path fill-rule="evenodd" clip-rule="evenodd" d="M46.9424 15.9343C46.7404 16.7544 46.5275 17.5708 46.3002 18.3781C46.0737 19.1882 45.8327 20.0028 45.5838 20.8228H43.8294C43.6473 20.3692 43.449 19.8304 43.237 19.2054C43.0231 18.5777 42.8049 17.8964 42.5757 17.1554C42.3492 16.4168 42.1175 15.635 41.88 14.8077C41.6419 13.9841 41.4109 13.1513 41.1899 12.3086H43.5648C43.6436 12.6959 43.7332 13.1215 43.8301 13.5794C43.9262 14.0384 44.0277 14.5111 44.1336 14.9973C44.2396 15.4818 44.3528 15.9687 44.4687 16.4604C44.5856 16.9521 44.7052 17.4229 44.8264 17.8757C44.9578 17.4012 45.0865 16.9168 45.2124 16.4205C45.3365 15.9236 45.4588 15.4354 45.5755 14.9557C45.6906 14.4766 45.8039 14.0113 45.907 13.5632C46.0122 13.1159 46.1055 12.6959 46.1879 12.3086H47.8191C47.9024 12.6959 47.9902 13.1159 48.0925 13.5632C48.1921 14.0113 48.2983 14.4766 48.4106 14.9557C48.5192 15.4354 48.6379 15.9236 48.7565 16.4205C48.8787 16.9168 49.0038 17.4012 49.1334 17.8757C49.2556 17.4229 49.377 16.9521 49.4992 16.4604C49.6215 15.9687 49.7365 15.4818 49.8416 14.9973C49.9467 14.5111 50.0481 14.0384 50.146 13.5794C50.2429 13.1215 50.3308 12.6959 50.4113 12.3086H52.7554C52.5327 13.1513 52.3035 13.9841 52.0653 14.8077C51.8252 15.635 51.596 16.4168 51.3669 17.1554C51.1413 17.8964 50.9186 18.5777 50.702 19.2054C50.4839 19.8304 50.2826 20.3692 50.1035 20.8228H48.3491C48.0953 20.0028 47.849 19.1882 47.6063 18.3781C47.3644 17.5708 47.1452 16.7544 46.9424 15.9343Z" fill="#03435F"/>
<mask id="mask4" mask-type="alpha" maskUnits="userSpaceOnUse" x="41" y="12" width="12" height="9">
<path d="M50.411 12.3086H52.7552C52.5324 13.1513 52.3032 13.9841 52.0649 14.8076C51.825 15.635 51.5958 16.417 51.3666 17.1554C51.141 17.8964 50.9183 18.5777 50.7016 19.2054C50.4835 19.8304 50.2824 20.3691 50.1031 20.8228H48.3487C48.095 20.0028 47.8488 19.188 47.606 18.3779C47.3641 17.5708 47.145 16.7544 46.9421 15.9343C46.74 16.7544 46.5271 17.5708 46.3 18.3779C46.0734 19.188 45.8325 20.0028 45.5834 20.8228H43.829C43.6469 20.3691 43.4486 19.8304 43.2366 19.2054C43.0229 18.5777 42.8046 17.8964 42.5755 17.1554C42.3489 16.417 42.1171 15.635 41.8798 14.8076C41.6416 13.9841 41.4107 13.1513 41.1897 12.3086H43.5644C43.6433 12.6959 43.733 13.1213 43.8299 13.5794C43.926 14.0384 44.0273 14.5111 44.1334 14.9972C44.2392 15.4816 44.3526 15.9687 44.4684 16.4604C44.5853 16.9521 44.705 17.4229 44.8261 17.8757C44.9575 17.4012 45.0861 16.9166 45.212 16.4205C45.3361 15.9236 45.4585 15.4354 45.5753 14.9557C45.6903 14.4765 45.8035 14.0112 45.9068 13.5632C46.0119 13.1159 46.1052 12.6959 46.1875 12.3086H47.8189C47.902 12.6959 47.9899 13.1159 48.0922 13.5632C48.1919 14.0112 48.298 14.4765 48.4102 14.9557C48.519 15.4354 48.6375 15.9236 48.7563 16.4205C48.8785 16.9166 49.0036 17.4012 49.133 17.8757C49.2553 17.4229 49.3766 16.9521 49.4989 16.4604C49.6213 15.9687 49.7362 15.4816 49.8413 14.9972C49.9465 14.5111 50.0479 14.0384 50.1456 13.5794C50.2426 13.1213 50.3305 12.6959 50.411 12.3086Z" fill="white"/>
</mask>
<g mask="url(#mask4)">
<path fill-rule="evenodd" clip-rule="evenodd" d="M-108.681 44.7316L208.808 44.7316V-405.044H-108.681L-108.681 44.7316Z" fill="#03435F"/>
<path fill-rule="evenodd" clip-rule="evenodd" d="M37.4099 24.6024H56.5347V8.52893H37.4099V24.6024Z" fill="#03435F"/>
</g>
<path fill-rule="evenodd" clip-rule="evenodd" d="M54.3481 20.8193H56.598V12.307H54.3481V20.8193Z" fill="#03435F"/>
<mask id="mask5" mask-type="alpha" maskUnits="userSpaceOnUse" x="54" y="12" width="3" height="9">
<path d="M54.3481 20.8196V12.3072H56.5982V20.8196H54.3481Z" fill="white"/>
</mask>
<g mask="url(#mask5)">
<path fill-rule="evenodd" clip-rule="evenodd" d="M-108.68 44.7316L208.808 44.7316V-405.044H-108.68L-108.68 44.7316Z" fill="#03435F"/>
<path fill-rule="evenodd" clip-rule="evenodd" d="M50.5686 24.5991H60.3777V8.5274H50.5686V24.5991Z" fill="#03435F"/>
</g>
<path fill-rule="evenodd" clip-rule="evenodd" d="M58.3877 10.1842L60.6394 9.75698V12.3113H62.8676V14.3142H60.6394V17.3096C60.6394 17.8166 60.7227 18.2249 60.8884 18.5233C61.0542 18.8254 61.3901 18.9769 61.893 18.9769C62.1366 18.9769 62.3866 18.9551 62.642 18.9052C62.9 18.8561 63.1338 18.7864 63.3466 18.702L63.6628 20.5798C63.3901 20.6993 63.0867 20.801 62.7562 20.888C62.4217 20.9733 62.0171 21.0168 61.5314 21.0168C60.9157 21.0168 60.4075 20.9281 60.0045 20.7483C59.6005 20.5733 59.278 20.3257 59.0372 20.0045C58.7962 19.6889 58.6278 19.2997 58.5309 18.8489C58.433 18.3945 58.3877 17.8919 58.3877 17.343V10.1842Z" fill="#03435F"/>
<mask id="mask6" mask-type="alpha" maskUnits="userSpaceOnUse" x="58" y="9" width="6" height="13">
<path d="M58.3882 10.1842L60.6397 9.75698V12.3113H62.868V14.3142H60.6397V17.3096C60.6397 17.8166 60.7232 18.2248 60.8889 18.5233C61.0547 18.8254 61.3906 18.9767 61.8934 18.9767C62.137 18.9767 62.3871 18.9551 62.6425 18.9052C62.9005 18.856 63.1343 18.7864 63.347 18.702L63.6632 20.5796C63.3906 20.6993 63.0871 20.801 62.7567 20.888C62.4223 20.9733 62.0176 21.0168 61.532 21.0168C60.9162 21.0168 60.4079 20.9281 60.005 20.7483C59.6009 20.5732 59.2785 20.3257 59.0377 20.0047C58.7967 19.6889 58.6283 19.2998 58.5313 18.8489C58.4335 18.3945 58.3882 17.8918 58.3882 17.3431V10.1842Z" fill="white"/>
</mask>
<g mask="url(#mask6)">
<path fill-rule="evenodd" clip-rule="evenodd" d="M-108.68 44.7314L208.808 44.7314V-405.044H-108.68L-108.68 44.7314Z" fill="#03435F"/>
<path fill-rule="evenodd" clip-rule="evenodd" d="M54.6084 24.7965H67.4429V5.97722H54.6084V24.7965Z" fill="#03435F"/>
</g>
<path fill-rule="evenodd" clip-rule="evenodd" d="M64.4585 16.5677C64.4585 15.9516 64.552 15.3712 64.7385 14.8269C64.925 14.2808 65.1941 13.8074 65.5465 13.4018C65.8997 12.9964 66.3271 12.677 66.8325 12.4385C67.3352 12.2036 67.9095 12.082 68.5544 12.082C68.9773 12.082 69.3659 12.1247 69.7191 12.2045C70.0725 12.287 70.4167 12.4023 70.7472 12.5519L70.28 14.4778C70.0671 14.3924 69.836 14.318 69.5825 14.2509C69.3306 14.1873 69.0471 14.1539 68.7356 14.1539C68.0708 14.1539 67.5734 14.3761 67.2482 14.8187C66.9176 15.2624 66.7564 15.8439 66.7564 16.5677C66.7564 17.3323 66.9095 17.9264 67.2194 18.3474C67.5236 18.7674 68.0617 18.9788 68.827 18.9788C69.0996 18.9788 69.3904 18.9505 69.7047 18.8971C70.0163 18.8426 70.3034 18.7574 70.5679 18.6377L70.8832 20.6134C70.6203 20.7322 70.2944 20.832 69.9013 20.9198C69.5064 21.0054 69.0742 21.0497 68.6015 21.0497C67.8759 21.0497 67.2492 20.9318 66.7265 20.7004C66.2032 20.4691 65.771 20.1534 65.434 19.7543C65.0944 19.3543 64.8499 18.8827 64.6933 18.3383C64.5365 17.7932 64.4585 17.2018 64.4585 16.5677Z" fill="#03435F"/>
<mask id="mask7" mask-type="alpha" maskUnits="userSpaceOnUse" x="64" y="12" width="7" height="10">
<path d="M66.8327 12.4385C67.3355 12.2036 67.9097 12.082 68.5546 12.082C68.9776 12.082 69.3662 12.1245 69.7193 12.2043C70.0726 12.287 70.4169 12.4022 70.7474 12.5519L70.2802 14.4776C70.0672 14.3924 69.8362 14.318 69.5826 14.2509C69.3307 14.1872 69.0473 14.1538 68.7357 14.1538C68.071 14.1538 67.5736 14.3761 67.2485 14.8187C66.9178 15.2622 66.7566 15.8437 66.7566 16.5677C66.7566 17.3323 66.9099 17.9264 67.2196 18.3474C67.5239 18.7674 68.0618 18.9788 68.8271 18.9788C69.0999 18.9788 69.3906 18.9505 69.7049 18.8971C70.0165 18.8426 70.3036 18.7574 70.568 18.6375L70.8833 20.6134C70.6207 20.7322 70.2946 20.8318 69.9014 20.9198C69.5066 21.0052 69.0746 21.0497 68.6017 21.0497C67.876 21.0497 67.2495 20.9316 66.7268 20.7002C66.2034 20.469 65.7712 20.1533 65.4341 19.7544C65.0948 19.3543 64.8502 18.8827 64.6935 18.3383C64.5368 17.7932 64.4587 17.2017 64.4587 16.5677C64.4587 15.9516 64.5522 15.3712 64.7387 14.8269C64.9252 14.2808 65.1943 13.8073 65.5466 13.4017C65.8999 12.9963 66.3274 12.677 66.8327 12.4385Z" fill="white"/>
</mask>
<g mask="url(#mask7)">
<path fill-rule="evenodd" clip-rule="evenodd" d="M-108.68 44.7314L208.808 44.7314V-405.044H-108.68L-108.68 44.7314Z" fill="#03435F"/>
<path fill-rule="evenodd" clip-rule="evenodd" d="M60.6792 24.8293H74.6629V8.30225H60.6792V24.8293Z" fill="#03435F"/>
</g>
<path fill-rule="evenodd" clip-rule="evenodd" d="M72.3389 20.8197V10.181L74.5914 9.75752V12.3428C74.7417 12.2892 74.9347 12.2375 75.1739 12.1886C75.4093 12.1405 75.6403 12.115 75.8614 12.115C76.5053 12.115 77.0405 12.2103 77.4698 12.3981C77.8974 12.5868 78.2425 12.8545 78.4979 13.2C78.757 13.5438 78.9362 13.9556 79.0442 14.4283C79.1482 14.9043 79.2006 15.4343 79.2006 16.0166V20.8197H76.949V16.3059C76.949 15.5294 76.8558 14.9797 76.6701 14.6541C76.4835 14.3338 76.1375 14.1715 75.6348 14.1715C75.4302 14.1715 75.2434 14.1907 75.066 14.2269C74.8903 14.265 74.7319 14.3067 74.5914 14.3493V20.8197H72.3389Z" fill="#03435F"/>
<mask id="mask8" mask-type="alpha" maskUnits="userSpaceOnUse" x="72" y="9" width="8" height="12">
<path d="M72.3389 10.1809L74.5913 9.7574V12.3428C74.7417 12.2891 74.9347 12.2374 75.1739 12.1885C75.4093 12.1404 75.6403 12.1151 75.8614 12.1151C76.5053 12.1151 77.0407 12.2103 77.4699 12.398C77.8974 12.5869 78.2426 12.8544 78.4979 13.2C78.7568 13.5437 78.9364 13.9555 79.0442 14.4283C79.1482 14.9044 79.2007 15.4341 79.2007 16.0166V20.8196H76.9491V16.3058C76.9491 15.5294 76.8556 14.9796 76.6702 14.654C76.4835 14.3338 76.1376 14.1714 75.6348 14.1714C75.4302 14.1714 75.2434 14.1905 75.066 14.2269C74.8903 14.2649 74.7319 14.3065 74.5913 14.3492V20.8196H72.3389V10.1809Z" fill="white"/>
</mask>
<g mask="url(#mask8)">
<path fill-rule="evenodd" clip-rule="evenodd" d="M-108.681 44.7314L208.808 44.7314V-405.044H-108.681L-108.681 44.7314Z" fill="#03435F"/>
<path fill-rule="evenodd" clip-rule="evenodd" d="M68.5591 24.5992H82.9801V5.97759H68.5591V24.5992Z" fill="#03435F"/>
</g>
<path fill-rule="evenodd" clip-rule="evenodd" d="M4.42651 20.8224L4.42651 13.1083C4.42651 13.1083 5.55868 12.1404 8.035 12.1404C10.2884 12.1404 11.5259 13.346 11.5259 15.9993V20.8224H9.27507V15.9993C9.27507 14.3094 8.48516 14.1923 7.81036 14.1923C7.13557 14.1923 6.68364 14.5515 6.68364 14.5515V20.8224H4.42651Z" fill="#03435F"/>
<mask id="mask9" mask-type="alpha" maskUnits="userSpaceOnUse" x="4" y="12" width="8" height="9">
<path d="M4.42676 13.1083C4.42676 13.1083 5.55892 12.1404 8.03524 12.1404C10.2887 12.1404 11.526 13.3459 11.526 15.9994V20.8224H9.27532V15.9994C9.27532 14.3092 8.4854 14.1923 7.8106 14.1923C7.13582 14.1923 6.68389 14.5517 6.68389 14.5517V20.8224H4.42676L4.42676 13.1083Z" fill="white"/>
</mask>
<g mask="url(#mask9)">
<path fill-rule="evenodd" clip-rule="evenodd" d="M-108.68 44.7314L208.808 44.7314V-405.044H-108.68L-108.68 44.7314Z" fill="#03435F"/>
<path fill-rule="evenodd" clip-rule="evenodd" d="M0.647217 24.6021H15.3055L15.3055 8.36082H0.647217L0.647217 24.6021Z" fill="#03435F"/>
</g>
<path fill-rule="evenodd" clip-rule="evenodd" d="M0.185791 20.8225L0.185791 10.182L2.43925 9.75741L2.43925 20.8225H0.185791Z" fill="#03435F"/>
<mask id="mask10" mask-type="alpha" maskUnits="userSpaceOnUse" x="0" y="9" width="3" height="12">
<path d="M0.185791 10.1822L2.43925 9.75741L2.43925 20.8225H0.185791L0.185791 10.1822Z" fill="white"/>
</mask>
<g mask="url(#mask10)">
<path fill-rule="evenodd" clip-rule="evenodd" d="M-108.68 44.7314L208.808 44.7314V-405.044H-108.68L-108.68 44.7314Z" fill="#03435F"/>
<path fill-rule="evenodd" clip-rule="evenodd" d="M-3.59375 24.6022H6.21906L6.21906 5.97787H-3.59375L-3.59375 24.6022Z" fill="#03435F"/>
</g>
<path fill-rule="evenodd" clip-rule="evenodd" d="M26.7953 17.1772H21.7267C21.7267 17.1772 21.8399 18.985 24.0907 18.985C25.2176 18.985 26.3443 18.6248 26.3443 18.6248L26.5698 20.5561C26.5698 20.5561 25.444 21.0342 23.8679 21.0342C21.6135 21.0342 19.5864 19.8303 19.5864 16.4552C19.5864 13.8009 21.1624 12.1155 23.4152 12.1155C26.7953 12.1155 27.0217 15.7275 26.7953 17.1772ZM23.3046 13.8009C21.8399 13.8009 21.7267 15.488 21.7267 15.488H24.8787C24.8787 15.488 24.7683 13.8009 23.3046 13.8009Z" fill="#03435F"/>
<mask id="mask11" mask-type="alpha" maskUnits="userSpaceOnUse" x="19" y="12" width="8" height="10">
<path d="M19.5862 16.4551C19.5862 13.8008 21.1622 12.1155 23.4148 12.1155C26.7949 12.1155 27.0213 15.7276 26.7949 17.1772H21.7264C21.7264 17.1772 21.8396 18.985 24.0903 18.985C25.2172 18.985 26.3439 18.6248 26.3439 18.6248L26.5694 20.556C26.5694 20.556 25.4436 21.0343 23.8676 21.0343C21.6132 21.0343 19.5862 19.8304 19.5862 16.4551ZM23.3042 13.8008C21.8396 13.8008 21.7264 15.4881 21.7264 15.4881H24.8784C24.8784 15.4881 24.7679 13.8008 23.3042 13.8008Z" fill="white"/>
</mask>
<g mask="url(#mask11)">
<path fill-rule="evenodd" clip-rule="evenodd" d="M-108.681 44.7314L208.808 44.7314V-405.044H-108.681L-108.681 44.7314Z" fill="#03435F"/>
<path fill-rule="evenodd" clip-rule="evenodd" d="M15.8064 24.8138H30.6375V8.33579H15.8064L15.8064 24.8138Z" fill="#03435F"/>
</g>
<mask id="mask12" mask-type="alpha" maskUnits="userSpaceOnUse" x="82" y="8" width="15" height="20">
<path d="M82.1855 9.75951C82.1855 9.24517 88.6641 8.13523 93.0091 8.13523C94.8933 8.13523 96.3762 8.34398 96.7555 8.90041C98.7119 11.4839 84.9392 27.6921 83.7916 27.2005C82.8712 26.9546 91.1344 16.6381 89.757 12.4609C89.0694 10.2521 82.1855 10.4978 82.1855 9.75951Z" fill="white"/>
</mask>
<g mask="url(#mask12)">
<path fill-rule="evenodd" clip-rule="evenodd" d="M78.406 30.9911H100.725V4.35559H78.406V30.9911Z" fill="#ED342B"/>
</g>
<mask id="mask13" mask-type="alpha" maskUnits="userSpaceOnUse" x="93" y="0" width="7" height="7">
<path d="M93.8875 3.37384C93.8875 1.60957 95.2235 0.181809 96.8702 0.181809C98.5184 0.181809 99.8527 1.60957 99.8527 3.37384C99.8527 5.13901 98.5184 6.56677 96.8702 6.56677C95.2235 6.56677 93.8875 5.13901 93.8875 3.37384Z" fill="white"/>
</mask>
<g mask="url(#mask13)">
<path fill-rule="evenodd" clip-rule="evenodd" d="M90.1077 10.3466H103.632V-3.59792H90.1077V10.3466Z" fill="#ED342B"/>
</g>
</g>
<defs>
<clipPath id="clip0">
<rect width="100" height="27.3932" fill="white"/>
</clipPath>
</defs>
</svg>
