<svg width="80" height="80" viewBox="0 0 80 80" fill="none" xmlns="http://www.w3.org/2000/svg">
<g clip-path="url(#clip0)">
<path d="M80 0H0V80H80V0Z" fill="white"/>
<path d="M93.491 -14H-14V93H93.491V-14Z" fill="white"/>
<path d="M39.7455 78.4388C61.3773 78.4388 78.9134 61.0053 78.9134 39.5C78.9134 17.9947 61.3773 0.561157 39.7455 0.561157C18.1137 0.561157 0.577637 17.9947 0.577637 39.5C0.577637 61.0053 18.1137 78.4388 39.7455 78.4388Z" fill="white"/>
<path fill-rule="evenodd" clip-rule="evenodd" d="M39.7452 78.7661C61.2957 78.7661 78.7658 61.186 78.7658 39.5C78.7658 17.814 61.2957 0.233948 39.7452 0.233948C18.1947 0.233948 0.724609 17.814 0.724609 39.5C0.724609 61.186 18.1947 78.7661 39.7452 78.7661Z" fill="#45D7B6"/>
<mask id="mask0" mask-type="alpha" maskUnits="userSpaceOnUse" x="0" y="0" width="79" height="79">
<path fill-rule="evenodd" clip-rule="evenodd" d="M39.7452 78.7661C61.2957 78.7661 78.7658 61.186 78.7658 39.5C78.7658 17.814 61.2957 0.233948 39.7452 0.233948C18.1947 0.233948 0.724609 17.814 0.724609 39.5C0.724609 61.186 18.1947 78.7661 39.7452 78.7661Z" fill="white"/>
</mask>
<g mask="url(#mask0)">
<path d="M86.6589 105.561C86.0797 106.66 84.7005 107.087 83.5912 106.503L81.0733 105.178L85.9865 112.909C86.6295 113.924 86.3301 115.289 85.319 115.937L85.1668 116.035C84.2195 116.644 82.9777 116.417 82.2906 115.558L83.7336 117.831C84.3766 118.848 84.0772 120.212 83.0661 120.86L82.9139 120.963C81.9028 121.61 80.5481 121.311 79.9002 120.295L78.0744 117.414C78.3296 118.322 77.9762 119.329 77.1516 119.864L76.9945 119.962C75.9834 120.614 74.6288 120.31 73.9809 119.294L69.4702 112.201C66.3436 110.856 64.3165 107.568 64.7092 103.985C64.7484 103.632 64.8123 103.293 64.9055 102.964C63.9926 102.415 63.2171 101.615 62.7017 100.603L51.6189 78.8452C50.1513 75.9636 51.3096 72.4051 54.1908 70.938L54.6865 70.6872C57.5677 69.2201 61.1262 70.3736 62.5937 73.2547L73.6766 95.013C74.0054 95.656 74.2017 96.3382 74.2754 97.0156C74.938 97.1628 75.9589 97.5309 78.0106 98.4733C81.3334 99.9998 83.9495 101.458 85.7067 102.503C86.816 103.087 87.243 104.461 86.6589 105.561Z" fill="#EDB59D"/>
<path fill-rule="evenodd" clip-rule="evenodd" d="M27.0359 89.8088L27.0429 89.8069C35.7093 89.7487 52.3707 88.385 54.5267 87.9012C56.2317 87.5184 56.6749 85.7293 56.7566 84.3594C61.3789 83.1303 64.4222 78.5298 63.6241 73.7201L59.5326 49.0625C58.685 43.954 53.812 40.4681 48.7035 41.3158C48.1538 41.4071 47.6229 41.545 47.1141 41.7247C46.9611 41.6338 46.8152 41.5508 46.6778 41.4752C44.418 40.2339 41.851 40.2202 39.3238 40.2398C36.1511 40.2644 33.0269 40.7699 29.9225 41.3633C26.7994 41.9602 23.6993 42.8613 20.8942 44.3858C18.4731 45.6188 16.5955 47.8791 15.9616 50.7218L10.5213 75.1178C9.39393 80.1713 12.6068 85.2288 17.6609 86.3557C18.8389 86.6184 20.0171 86.6453 21.1457 86.4681C21.0815 87.6913 21.2343 88.8701 21.9236 89.3958C22.3378 89.7116 24.2826 89.8252 27.0357 89.8069L27.0359 89.8088Z" fill="white"/>
<path d="M27.0428 89.8069L27.0411 89.5615C27.0199 89.5616 26.9988 89.5645 26.9784 89.5701L27.0428 89.8069ZM27.0358 89.8088L26.7924 89.8398C26.8014 89.9103 26.8404 89.9734 26.8995 90.0128C26.9585 90.0523 27.0317 90.0642 27.1002 90.0456L27.0358 89.8088ZM54.5266 87.9012L54.5804 88.1407L54.5266 87.9012ZM56.7565 84.3594L56.6934 84.1223C56.5912 84.1495 56.5178 84.2392 56.5115 84.3448L56.7565 84.3594ZM63.624 73.7201L63.8661 73.6799L63.624 73.7201ZM59.5325 49.0625L59.2904 49.1027L59.5325 49.0625ZM48.7034 41.3158L48.6633 41.0737H48.6632L48.7034 41.3158ZM47.114 41.7247L46.9886 41.9357C47.0512 41.9729 47.1271 41.9804 47.1958 41.9561L47.114 41.7247ZM46.6777 41.4752L46.7959 41.2602L46.7958 41.2601L46.6777 41.4752ZM39.3237 40.2398L39.3256 40.4852L39.3237 40.2398ZM29.9224 41.3633L29.9684 41.6044H29.9685L29.9224 41.3633ZM20.8941 44.3858L21.0055 44.6046L21.0113 44.6014L20.8941 44.3858ZM15.9615 50.7218L16.2011 50.7752L15.9615 50.7218ZM10.5212 75.1178L10.7607 75.1712L10.5212 75.1178ZM17.6608 86.3557L17.6074 86.5953L17.6608 86.3557ZM21.1456 86.4681L21.3906 86.481C21.3945 86.4071 21.3649 86.3354 21.3099 86.2858C21.255 86.2363 21.1806 86.2142 21.1075 86.2257L21.1456 86.4681ZM21.9235 89.3958L21.7747 89.591L21.9235 89.3958ZM27.0356 89.8069L27.279 89.7759C27.2633 89.6527 27.1581 89.5607 27.034 89.5615L27.0356 89.8069ZM26.9784 89.5701L26.9714 89.572L27.1002 90.0456L27.1072 90.0437L26.9784 89.5701ZM54.4729 87.6618C53.9519 87.7787 52.5236 87.9533 50.5174 88.1506C48.5192 88.3472 45.9656 88.5647 43.208 88.7689C37.6913 89.1774 31.3659 89.5324 27.0411 89.5615L27.0444 90.0523C31.3861 90.0231 37.7246 89.6671 43.2442 89.2584C46.0048 89.0539 48.5624 88.8361 50.5655 88.6391C52.5605 88.4429 54.0233 88.2657 54.5804 88.1407L54.4729 87.6618ZM56.5115 84.3448C56.4716 85.0144 56.3438 85.7665 56.0309 86.3905C55.7218 87.0069 55.2378 87.49 54.4729 87.6618L54.5804 88.1407C55.5204 87.9296 56.1105 87.3268 56.4697 86.6105C56.825 85.9017 56.9597 85.0743 57.0015 84.374L56.5115 84.3448ZM63.3819 73.7603C64.1591 78.4438 61.1949 82.9252 56.6934 84.1223L56.8196 84.5966C61.5626 83.3353 64.6852 78.6159 63.8661 73.6799L63.3819 73.7603ZM59.2904 49.1027L63.3819 73.7603L63.8661 73.6799L59.7746 49.0223L59.2904 49.1027ZM48.7436 41.5579C53.7184 40.7324 58.4649 44.1279 59.2904 49.1027L59.7746 49.0223C58.9048 43.7801 53.9055 40.2039 48.6633 41.0737L48.7436 41.5579ZM47.1958 41.9561C47.6911 41.7811 48.2081 41.6468 48.7436 41.5579L48.6632 41.0737C48.0993 41.1673 47.5544 41.3088 47.0323 41.4933L47.1958 41.9561ZM46.5595 41.6903C46.6946 41.7646 46.8381 41.8462 46.9886 41.9357L47.2394 41.5138C47.0838 41.4213 46.9356 41.3369 46.7959 41.2602L46.5595 41.6903ZM39.3256 40.4852C41.8617 40.4655 44.3642 40.4844 46.5595 41.6903L46.7958 41.2601C44.4717 39.9835 41.8402 39.9748 39.3217 39.9944L39.3256 40.4852ZM29.9685 41.6044C33.0701 41.0115 36.1761 40.5096 39.3256 40.4852L39.3218 39.9944C36.1258 40.0191 32.9836 40.5283 29.8763 41.1223L29.9685 41.6044ZM21.0113 44.6014C23.7861 43.0934 26.8593 42.1985 29.9684 41.6044L29.8763 41.1223C26.7392 41.7218 23.6123 42.6293 20.7769 44.1702L21.0113 44.6014ZM20.7828 44.1671C18.2998 45.4317 16.3727 47.7506 15.722 50.6684L16.2011 50.7752C16.8182 48.0076 18.6463 45.806 21.0055 44.6045L20.7828 44.1671ZM15.722 50.6684L10.2817 75.0644L10.7607 75.1712L16.2011 50.7752L15.722 50.6684ZM10.2817 75.0644C9.12474 80.2502 12.421 85.4388 17.6074 86.5953L17.7142 86.1162C12.7924 85.0188 9.66282 80.0925 10.7607 75.1712L10.2817 75.0644ZM17.6074 86.5953C18.8161 86.8648 20.0253 86.8924 21.1836 86.7106L21.1075 86.2257C20.0087 86.3982 18.8615 86.372 17.7142 86.1162L17.6074 86.5953ZM22.0724 89.2007C21.792 88.9868 21.6013 88.6244 21.4913 88.1393C21.3819 87.6566 21.3592 87.081 21.3906 86.481L20.9005 86.4553C20.8678 87.0784 20.8894 87.7038 21.0126 88.2478C21.1354 88.7893 21.3658 89.2791 21.7747 89.591L22.0724 89.2007ZM27.034 89.5615C25.6599 89.5707 24.493 89.5468 23.6206 89.4819C23.184 89.4494 22.8267 89.4071 22.5564 89.3549C22.2727 89.3001 22.1257 89.2413 22.0723 89.2007L21.7747 89.591C21.9285 89.7082 22.1799 89.782 22.4633 89.8368C22.7602 89.8941 23.1388 89.9383 23.5842 89.9714C24.4761 90.0377 25.6582 90.0615 27.0372 90.0524L27.034 89.5615ZM27.2793 89.7777L27.279 89.7759L26.7922 89.838L26.7924 89.8398L27.2793 89.7777Z" fill="#1B0B27"/>
<path d="M14.6901 80.6969L14.8899 81.8596C15.4156 84.8762 18.3134 86.9166 21.33 86.3914L45.9994 82.1001C47.7791 81.7885 51.6567 80.7072 52.7345 81.2255C55.7928 82.697 59.2806 82.2076 61.7794 80.2635C62.4371 79.7515 63.196 79.3859 64.0078 79.1969L71.1704 77.531C72.4382 77.2361 73.2279 75.9619 72.9261 74.697L72.8824 74.5076C72.6041 73.335 71.4826 72.5683 70.3095 72.6974L71.164 72.4976C72.4313 72.2026 73.2211 70.9284 72.9231 69.6636L72.8755 69.4741C72.5771 68.2098 71.2926 67.4161 70.0283 67.7116L63.8762 69.1418C63.8728 69.132 63.8694 69.1247 63.8625 69.1178L74.7259 66.593C75.9938 66.298 76.7835 65.0233 76.4851 63.759L76.4379 63.5661C76.1395 62.3051 74.8585 61.5085 73.5907 61.8035L59.8731 64.9929C59.7985 65.0135 59.7239 65.0336 59.6527 65.0577L59.4259 58.4782C59.3783 57.1598 58.2867 56.1055 56.9782 56.1055H56.8972C55.5548 56.1497 54.4936 57.2884 54.5412 58.6377L54.6227 61.0108C54.7012 63.2897 53.4236 65.3954 51.3685 66.3844C48.4496 67.7881 44.9628 69.7814 43.8879 69.9689L19.2185 74.2567C16.2019 74.7819 14.1644 77.6802 14.6901 80.6969Z" fill="#9C654F"/>
<path d="M70.8012 72.6975L65.6284 73.8097" stroke="#1B0B27" stroke-width="0.490826" stroke-linecap="round" stroke-linejoin="round"/>
<path d="M72.727 67.2648L64.9258 68.942" stroke="#1B0B27" stroke-width="0.490826" stroke-linecap="round" stroke-linejoin="round"/>
<path fill-rule="evenodd" clip-rule="evenodd" d="M44.3402 69.5899L39.2175 70.6152C39.0298 70.6528 38.9555 70.8811 39.085 71.022C40.2985 72.3419 41.2285 74.2679 41.6617 76.4341C42.122 78.733 41.9607 80.9941 41.2523 82.7181C41.1778 82.8994 41.3353 83.0905 41.5274 83.052L46.6507 82.0267C46.7312 82.0106 46.7983 81.9553 46.8295 81.8793C47.5759 80.062 47.7443 77.7024 47.2662 75.3125C46.8155 73.0613 45.8457 71.0529 44.569 69.6644C44.511 69.6013 44.4243 69.5731 44.3402 69.5899Z" fill="#1B0B27"/>
<path d="M40.5073 76.0672C40.5073 78.2553 42.2811 80.0286 44.4687 80.0286C46.6568 80.0286 48.4307 78.2553 48.4307 76.0672C48.4307 73.8791 46.6568 72.1057 44.4687 72.1057C42.2811 72.1057 40.5073 73.8791 40.5073 76.0672Z" fill="white"/>
<path d="M40.5073 76.0672C40.5073 78.2553 42.2811 80.0286 44.4687 80.0286C46.6568 80.0286 48.4307 78.2553 48.4307 76.0672C48.4307 73.8791 46.6568 72.1057 44.4687 72.1057C42.2811 72.1057 40.5073 73.8791 40.5073 76.0672Z" stroke="#1B0B27" stroke-width="0.490826" stroke-linecap="round" stroke-linejoin="round"/>
<path d="M46.0685 73.9931L45.3671 76.3869L42.9365 75.4568" stroke="#1B0B27" stroke-width="0.490826" stroke-linecap="round" stroke-linejoin="round"/>
<path fill-rule="evenodd" clip-rule="evenodd" d="M33.2748 57.4671C33.3033 57.3346 33.2191 57.2041 33.0866 57.1755C32.9541 57.147 32.8235 57.2313 32.795 57.3638L29.5969 72.2103C29.5684 72.3428 29.6526 72.4733 29.7851 72.5019C29.9176 72.5304 30.0482 72.4461 30.0767 72.3136L33.2748 57.4671ZM57.1497 82.3618C57.1497 82.1991 57.0179 82.0673 56.8553 82.0673C56.6926 82.0673 56.5608 82.1991 56.5608 82.3618V84.2245C56.5608 84.3871 56.6926 84.519 56.8553 84.519C57.0179 84.519 57.1497 84.3871 57.1497 84.2245V82.3618Z" fill="#1B0B27"/>
<path fill-rule="evenodd" clip-rule="evenodd" d="M47.5154 41.697C47.4005 41.6252 47.2491 41.6602 47.1773 41.7751L47.2554 42.1133L47.2558 42.1135L47.2585 42.1152L47.2708 42.1231C47.282 42.1304 47.2992 42.1416 47.322 42.157C47.3677 42.1876 47.436 42.2345 47.5241 42.298C47.7004 42.4252 47.9561 42.6193 48.2698 42.8842C48.8971 43.414 49.7556 44.2268 50.6734 45.3542C52.5084 47.6083 54.5815 51.1214 55.5174 56.1504C55.5422 56.2837 55.6703 56.3716 55.8036 56.3468C55.9368 56.322 56.0248 56.1939 56 56.0606C55.047 50.9402 52.9335 47.3531 51.054 45.0443C50.1146 43.8904 49.234 43.0561 48.5865 42.5092C48.2627 42.2357 47.997 42.034 47.8113 41.9C47.7185 41.833 47.6456 41.7829 47.5953 41.7493C47.5702 41.7324 47.5508 41.7197 47.5374 41.711L47.5218 41.701L47.5174 41.6983L47.5161 41.6974L47.5157 41.6972C47.5156 41.6971 47.5154 41.697 47.3854 41.9051L47.5154 41.697ZM21.7354 44.2593L21.7358 44.2592L21.7372 44.259L21.7432 44.2579L21.7672 44.2537L21.8604 44.2375C21.9416 44.2236 22.0596 44.204 22.2057 44.1808C22.4982 44.1345 22.903 44.0744 23.3526 44.0192C24.2598 43.9079 25.3218 43.8205 26.0166 43.8963C27.683 44.0781 28.5781 44.2923 29.1342 44.5047C29.5403 44.6598 29.7608 44.8093 29.9933 44.9669C30.0792 45.0251 30.1668 45.0845 30.266 45.1456C30.3814 45.2167 30.5325 45.1809 30.6037 45.0655C30.6748 44.9501 30.639 44.7989 30.5236 44.7278C30.4485 44.6815 30.3743 44.6312 30.296 44.5781C30.0538 44.4138 29.7731 44.2233 29.3093 44.0462C28.6956 43.8118 27.7523 43.5919 26.0699 43.4084C25.3119 43.3257 24.1982 43.421 23.2928 43.5321C22.8361 43.5881 22.4254 43.6491 22.1289 43.696C21.9806 43.7195 21.8608 43.7395 21.7778 43.7537L21.6821 43.7703L21.657 43.7747L21.6504 43.7759L21.6487 43.7762L21.6483 43.7763H21.6481L21.6917 44.0178L21.6481 43.7763C21.5147 43.8004 21.4261 43.9281 21.4502 44.0615C21.4743 44.1948 21.602 44.2834 21.7354 44.2593Z" fill="#1B0B27"/>
</g>
<mask id="mask1" mask-type="alpha" maskUnits="userSpaceOnUse" x="33" y="23" width="17" height="25">
<path fill-rule="evenodd" clip-rule="evenodd" d="M33.7012 23.6179H49.0598V47.9582H33.7012V23.6179Z" fill="white"/>
</mask>
<g mask="url(#mask1)">
<path d="M46.6056 24.9691C47.2221 25.5105 47.7252 26.4003 47.6246 27.2416C47.5004 28.2782 47.2849 29.0434 47.9151 30.0295C48.2901 30.6156 48.8615 31.1029 49.0264 31.7788C49.0642 31.9344 49.0779 32.1013 49.0249 32.2525C48.8683 32.6996 48.2307 32.8032 48.0271 33.2312C47.9534 33.3853 47.9475 33.5625 47.9431 33.7333C47.9034 35.2686 47.9181 36.4505 46.9821 37.7409C46.182 38.8447 45.0252 39.6777 43.75 40.1454L43.8187 44.0745C43.8545 46.1845 42.1764 47.9216 40.0668 47.9579C37.9617 47.9937 36.2242 46.3161 36.1834 44.2104C36.1378 41.6243 36.5928 38.3564 35.2631 36.0387C33.7018 33.318 33.0407 30.8286 34.5593 27.8772C35.7898 25.4854 38.158 23.7523 40.8851 23.6336C42.7433 23.5531 45.2176 23.7514 46.6056 24.9691Z" fill="#9C654F"/>
<path d="M46.0669 27.498C45.234 27.5686 44.4413 27.8867 43.7944 28.4119" stroke="#1B0B27" stroke-width="0.490826" stroke-linecap="round" stroke-linejoin="round"/>
<path d="M43.481 30.4072C43.4232 30.5298 43.4758 30.676 43.5984 30.7338C43.721 30.7916 43.8672 30.739 43.925 30.6164L43.481 30.4072ZM45.275 30.0813C45.3083 30.2127 45.4418 30.2922 45.5732 30.2589C45.7046 30.2256 45.7841 30.0921 45.7508 29.9607L45.275 30.0813ZM43.925 30.6164C44.0253 30.4036 44.1567 30.165 44.3024 29.9544C44.451 29.7396 44.6015 29.5727 44.7354 29.4837C44.8644 29.398 44.9242 29.4134 44.9665 29.4416C45.0438 29.4932 45.1674 29.6568 45.275 30.0813L45.7508 29.9607C45.6375 29.5139 45.4768 29.1921 45.2389 29.0333C44.9659 28.8512 44.6795 28.9315 44.4636 29.075C44.2526 29.2153 44.0598 29.4423 43.8987 29.6752C43.7347 29.9123 43.5903 30.1752 43.481 30.4072L43.925 30.6164Z" fill="#1B0B27"/>
<path d="M43.7601 33.2302C44.1582 33.7151 44.6043 34.1681 45.1423 34.4842C45.6797 34.7998 46.3026 34.9161 47.0516 34.9319C47.0516 34.9319 45.6743 36.8176 44.3486 36.0593C43.5447 35.5994 43.3095 34.5662 43.7601 33.2302Z" stroke="#1B0B27" stroke-width="0.490826" stroke-linecap="round" stroke-linejoin="round"/>
<path d="M45.3721 25.7323C44.5299 25.4073 43.7858 24.8493 42.9234 24.5813C42.061 24.3133 40.9621 24.4365 40.4884 25.2056C40.3436 25.4402 40.272 25.7122 40.2199 25.9831C39.9407 27.4443 40.3245 29.196 39.5539 30.5537C39.3605 30.8948 38.8167 31.7331 38.344 31.6345C37.944 31.5505 37.5449 30.6278 37.0168 30.431C36.4676 30.2273 35.8138 30.2253 35.3151 30.5615C34.5494 31.0764 34.4071 32.2004 34.7507 33.0549C34.8861 33.3911 35.1409 33.7106 35.3505 34.0027C35.6396 34.4061 35.9341 34.8759 36.3547 35.1507C35.9763 35.4644 35.5974 35.7775 35.2189 36.0902C35.3564 35.9768 33.1005 33.2183 32.8993 32.9479C32.5056 32.4183 32.1395 31.8671 31.8474 31.2742C31.55 30.669 31.6766 30.082 31.4106 29.4694C31.2315 29.0576 30.9684 28.689 30.7563 28.2939C30.3539 27.5434 30.1364 26.6752 30.2567 25.8319C30.3215 25.374 30.4834 24.9366 30.6434 24.5028C31.0989 23.2713 31.6094 21.9652 32.6784 21.2024C33.1202 20.8878 33.6316 20.6871 34.1043 20.4215C34.8518 20.0024 35.4972 19.4252 36.2133 18.955C36.9295 18.4843 37.7619 18.1122 38.6154 18.1848C39.3394 18.2457 40.0064 18.6197 40.728 18.7027C41.4485 18.7856 42.1675 18.5751 42.8915 18.5338C43.774 18.4833 44.6776 18.6958 45.4153 19.1822C46.1526 19.6691 46.7121 20.4363 46.8966 21.3001C46.9624 21.6103 46.9899 21.95 47.1951 22.1915C47.3232 22.3426 47.5043 22.4344 47.6707 22.5409C48.5228 23.0848 49.1117 24.5631 48.2891 25.3985C48.054 25.6371 47.7276 25.7887 47.3674 25.8707C46.6939 26.0238 45.9032 25.937 45.3721 25.7323Z" fill="#1B0B27"/>
<path d="M46.6919 32.2107C46.5628 32.1694 46.4246 32.2406 46.3833 32.3696C46.342 32.4987 46.4132 32.6369 46.5423 32.6782L46.6919 32.2107ZM47.3092 32.9236C47.4383 32.9649 47.5764 32.8937 47.6177 32.7647C47.659 32.6356 47.5879 32.4974 47.4588 32.4561L47.3092 32.9236ZM46.5423 32.6782L47.3092 32.9236L47.4588 32.4561L46.6919 32.2107L46.5423 32.6782Z" fill="#1B0B27"/>
<path d="M41.637 39.6499C41.5165 39.5879 41.3685 39.6354 41.3065 39.7559C41.2445 39.8765 41.292 40.0244 41.4125 40.0864L41.637 39.6499ZM43.8207 40.3831C43.9526 40.3518 44.0342 40.2196 44.0029 40.0877C43.9717 39.9558 43.8395 39.8742 43.7076 39.9055L43.8207 40.3831ZM41.4125 40.0864C41.8018 40.2866 42.8121 40.622 43.8207 40.3831L43.7076 39.9055C42.851 40.1083 41.9635 39.8179 41.637 39.6499L41.4125 40.0864Z" fill="#1B0B27"/>
<path fill-rule="evenodd" clip-rule="evenodd" d="M13.87 16.9131C11.3004 16.9131 9.21729 18.957 9.21729 21.4783C9.21729 23.9996 11.3004 26.0435 13.87 26.0435H29.9994C32.569 26.0435 34.6521 23.9996 34.6521 21.4783C34.6521 18.957 32.569 16.9131 29.9994 16.9131H13.87Z" stroke="#1B0B27" stroke-width="0.652174" stroke-linejoin="round"/>
</g>
</g>
<defs>
<clipPath id="clip0">
<rect width="80" height="80" fill="white"/>
</clipPath>
</defs>
</svg>
