<svg width="80" height="80" viewBox="0 0 80 80" fill="none" xmlns="http://www.w3.org/2000/svg">
<g clip-path="url(#clip0)">
<path d="M80 0H0V80H80V0Z" fill="white"/>
<path d="M93.491 -14H-14V93H93.491V-14Z" fill="white"/>
<path d="M39.7455 78.4388C61.3773 78.4388 78.9134 61.0053 78.9134 39.5C78.9134 17.9947 61.3773 0.561157 39.7455 0.561157C18.1137 0.561157 0.577637 17.9947 0.577637 39.5C0.577637 61.0053 18.1137 78.4388 39.7455 78.4388Z" fill="white" stroke="#BEBDBD"/>
<mask id="mask0" mask-type="alpha" maskUnits="userSpaceOnUse" x="0" y="0" width="79" height="79">
<path fill-rule="evenodd" clip-rule="evenodd" d="M39.7452 78.7661C61.2957 78.7661 78.7658 61.186 78.7658 39.5C78.7658 17.814 61.2957 0.233948 39.7452 0.233948C18.1947 0.233948 0.724609 17.814 0.724609 39.5C0.724609 61.186 18.1947 78.7661 39.7452 78.7661Z" fill="white"/>
</mask>
<g mask="url(#mask0)">
<path fill-rule="evenodd" clip-rule="evenodd" d="M23.0892 44.8333C23.7901 43.3898 25.0368 42.284 26.5549 41.7583C27.1999 41.5345 27.8718 41.4235 28.5418 41.4235C29.0343 41.4235 29.526 41.4835 30.0057 41.6026C30.4258 41.5417 30.8537 41.5104 31.287 41.5104C31.7248 41.5104 32.169 41.5423 32.6147 41.6086L49.6355 44.1668C50.7931 44.3461 51.8647 44.7389 52.816 45.2991C53.3969 45.532 53.9512 45.8588 54.4564 46.2812L73.1794 62.6056C73.7046 63.0616 74.1469 63.6054 74.4836 64.2131C75.7356 66.4478 75.4515 69.2254 73.7733 71.1612L73.7625 71.1784C71.546 73.6968 67.7062 73.9545 65.1711 71.7556L60.7694 67.9134L54.5053 62.4515L51.0417 70.9663L50.4866 72.3353C50.3734 72.5591 50.2519 72.7767 50.1224 72.9878C52.3112 76.5882 53.3828 81.2354 52.8376 86.1594L52.1793 86.0871C50.5531 91.0651 44.1414 94.4687 36.7719 93.9399C28.4868 93.3455 22.1169 88.0019 22.5571 82.007L22.6757 82.0155C23.1641 78.6927 24.346 75.6778 26.0111 73.1773C25.2354 72.4056 24.6017 71.4967 24.1466 70.4945L23.2041 72.4413C21.7473 75.4427 18.1279 76.6987 15.1192 75.2454C12.1109 73.7655 10.8559 70.1462 12.3043 67.1276L23.0892 44.8333Z" fill="#45D7B6"/>
<path fill-rule="evenodd" clip-rule="evenodd" d="M14.4571 74.7083C17.3088 76.3766 20.666 75.6261 21.9225 73.0444C23.1742 70.4573 21.8635 66.9729 19.0168 65.3036L-2.16232 52.8906C-2.43718 52.7286 -2.72186 52.5917 -3.00654 52.4739C-3.01636 52.2771 -3.03599 52.0758 -3.06544 51.8746C-3.3354 50.0149 -4.2876 48.3701 -5.66682 47.2068C-5.65209 47.119 -5.64718 47.0306 -5.64718 46.9374C-5.64718 46.8387 -5.65209 46.741 -5.66682 46.6424L-7.45342 34.333C-7.61539 33.2483 -8.62159 32.4924 -9.71122 32.649L-9.72594 32.6539C-9.72594 32.6514 -9.72594 32.6502 -9.72656 32.6496C-9.72717 32.649 -9.7284 32.649 -9.73085 32.649C-10.8155 32.8109 -11.5714 33.8176 -11.4094 34.9072L-10.5358 40.9199L-12.1555 36.63C-12.5432 35.6042 -13.6918 35.0839 -14.7176 35.4663C-15.7434 35.854 -16.2638 36.9982 -15.876 38.0235L-13.5691 44.1441L-15.3311 43.5845C-15.606 43.5016 -15.8957 43.482 -16.1804 43.5212C-16.2491 43.5306 -16.3128 43.5453 -16.3766 43.5649C-16.8036 43.5801 -17.211 43.7274 -17.5398 43.9875L-22.3402 47.7026C-23.1992 48.3902 -23.3512 49.6413 -22.6739 50.5057C-21.9867 51.3695 -20.7303 51.5168 -19.8665 50.8345L-15.7434 47.654C-15.6262 47.5652 -14.7994 47.88 -14.2715 48.081C-14.07 48.1577 -13.912 48.2179 -13.8537 48.2327C-12.9408 48.4732 -12.1358 49.0185 -11.5665 49.7744C-11.0119 50.4856 -10.7664 51.3892 -10.8941 52.282C-11.2327 54.2311 -13.3531 55.2711 -15.125 55.3889C-16.8937 55.5064 -18.1494 54.1987 -19.3019 52.9986C-19.5023 52.7899 -19.6996 52.5845 -19.8959 52.3905C-20.5045 51.772 -21.442 51.61 -22.2224 51.9973C-22.9979 52.3855 -23.4348 53.2347 -23.3022 54.0887C-23.2433 54.5108 -23.047 54.903 -22.7427 55.2024C-22.2993 55.6403 -21.8592 56.1314 -21.4102 56.6325C-20.2885 57.8842 -19.1117 59.1975 -17.6921 59.8947C-15.7043 60.8714 -13.5838 61.5493 -11.3358 61.2788C-10.4376 61.1713 -9.54925 60.9303 -8.70012 60.5725C-8.17494 61.2445 -7.51232 61.8388 -6.73191 62.2953L14.4571 74.7083ZM74.5988 64.7925C76.1218 66.934 75.7645 69.8795 73.7732 71.5964C73.6603 71.696 73.5455 71.7878 73.4223 71.8766L71.5753 73.195L55.2076 84.8712L59.0077 91.7855C59.554 92.7858 59.1893 94.0394 58.1905 94.592C58.0801 94.6505 57.9657 94.7005 57.8479 94.7422L58.2033 95.3793C58.7491 96.3811 58.3823 97.6347 57.382 98.1859C56.3842 98.7312 55.1375 98.5191 54.5882 97.5213L50.4138 89.5689L55.2416 98.7695C55.7501 99.7865 55.2135 101.181 54.1946 101.689C53.1712 102.195 51.9295 101.782 51.4161 100.763C51.3012 100.534 51.0918 100.109 50.8154 99.5478C49.2641 96.3983 45.6024 88.9642 44.6889 87.8815C43.6455 86.6456 42.8034 87.0888 41.7506 87.643C41.4959 87.7771 41.229 87.9176 40.9439 88.0425L36.1995 90.4097C35.1826 90.9118 33.9501 90.4991 33.4436 89.486C32.9365 88.4734 33.3458 87.2424 34.3588 86.7329C34.9916 86.4144 35.6384 86.1091 36.2863 85.8032C37.5471 85.2079 38.8125 84.6105 39.9887 83.9092C40.8204 83.4149 41.51 82.6588 42.2036 81.8983C42.6029 81.4604 43.0035 81.0212 43.4333 80.6295C43.5996 80.4778 43.7773 80.3121 43.9651 80.1372C45.3828 78.8168 47.3688 76.9671 49.2437 76.564L60.7628 68.3466L67.4647 63.566C69.7117 61.9669 72.8264 62.4459 74.4859 64.6463C74.5124 64.6772 74.5375 64.7101 74.5605 64.744L74.5988 64.7925Z" fill="#E16D63"/>
<path fill-rule="evenodd" clip-rule="evenodd" d="M-10.4414 40.7525C-10.3151 40.7035 -10.1729 40.7663 -10.1239 40.8927L-8.24935 45.7306C-8.20037 45.857 -8.26313 45.9991 -8.38951 46.0481C-8.51589 46.0971 -8.65804 46.0343 -8.70701 45.9079L-10.5816 41.07C-10.6306 40.9436 -10.5678 40.8015 -10.4414 40.7525ZM-16.008 45.6771C-16.0769 45.5604 -16.2274 45.5216 -16.3441 45.5905C-16.4608 45.6593 -16.4996 45.8098 -16.4307 45.9265L-16.0798 46.5212L-15.9336 47.4575C-15.9127 47.5914 -15.7872 47.683 -15.6533 47.6621C-15.5193 47.6412 -15.4277 47.5156 -15.4487 47.3817L-15.6021 46.3991C-15.6069 46.3684 -15.6175 46.339 -15.6332 46.3123L-16.008 45.6771ZM54.4203 88.0544C54.564 87.9783 54.7422 88.0332 54.8183 88.1769L58.152 94.4757C58.2281 94.6194 58.1732 94.7977 58.0295 94.8737C57.8857 94.9498 57.7075 94.895 57.6314 94.7512L54.2978 88.4524C54.2217 88.3087 54.2765 88.1305 54.4203 88.0544ZM50.1914 89.1152C50.3354 89.0396 50.5134 89.0949 50.5891 89.2389L55.0733 97.7739C55.1489 97.9179 55.0935 98.0959 54.9495 98.1716C54.8056 98.2472 54.6275 98.1918 54.5519 98.0478L50.0677 89.5129C49.992 89.3689 50.0474 89.1908 50.1914 89.1152ZM-13.5273 43.8626C-13.6497 43.8044 -13.7961 43.8566 -13.8542 43.979C-13.9124 44.1015 -13.8602 44.2479 -13.7378 44.306L-13.0396 44.6374L-8.71145 47.1702C-8.59447 47.2387 -8.44414 47.1993 -8.37569 47.0824C-8.30723 46.9654 -8.34657 46.8151 -8.46355 46.7466L-12.8008 44.2084C-12.8069 44.2048 -12.8132 44.2015 -12.8195 44.1985L-13.5273 43.8626Z" fill="#1B0B27"/>
<path d="M51.5562 74.9315C55.5486 75.6941 57.5946 79.0667 57.8029 83.0301L62.5998 79.5637C62.525 77.6859 61.7501 75.4909 60.4969 74.0639C59.0856 72.4125 57.891 71.9588 56.0657 71.6798L51.5562 74.9315Z" fill="#1B0B27"/>
<path d="M54.3081 76.0278C54.3081 78.2983 56.1521 80.1389 58.4281 80.1389C60.7036 80.1389 62.5481 78.2983 62.5481 76.0278C62.5481 73.7572 60.7036 71.9166 58.4281 71.9166C56.1521 71.9166 54.3081 73.7572 54.3081 76.0278Z" fill="#45D7B6" stroke="#1B0B27" stroke-width="0.490826" stroke-linecap="round" stroke-linejoin="round"/>
<path d="M58.0933 78.0596L58.9258 75.4896L61.3215 76.4811" stroke="#1B0B27" stroke-width="0.490826" stroke-linecap="round" stroke-linejoin="round"/>
<path fill-rule="evenodd" clip-rule="evenodd" d="M23.6283 52.41C23.6228 52.2746 23.5086 52.1693 23.3731 52.1748C23.2377 52.1803 23.1324 52.2945 23.1379 52.4299L23.8795 70.7191C23.885 70.8545 23.9992 70.9598 24.1346 70.9543C24.2701 70.9488 24.3754 70.8346 24.3699 70.6992L23.6283 52.41ZM48.4218 56.3933C48.3196 56.3042 48.1646 56.3148 48.0755 56.4169C47.9864 56.5191 47.997 56.6741 48.0992 56.7632L55.8184 63.4939C55.9206 63.583 56.0756 63.5724 56.1647 63.4702C56.2537 63.3681 56.2431 63.213 56.141 63.124L48.4218 56.3933Z" fill="#1B0B27"/>
<path d="M46.0457 27.6656V33.1981C46.0457 33.3213 46.0403 33.4504 46.0354 33.5736C45.9221 35.4299 44.9865 37.0757 43.5823 38.1398V43.5968C43.5823 45.6484 41.9012 47.3246 39.855 47.3246C37.8028 47.3246 36.1266 45.6484 36.1266 43.5968V38.1756C34.7126 37.1218 33.7614 35.4869 33.6328 33.6355V33.6301C33.6279 33.527 33.6225 33.4195 33.6225 33.3169C33.6175 33.2757 33.6175 33.2394 33.6175 33.1981V31.9539H32.418C31.3278 31.9539 30.4331 31.0591 30.4331 29.969C30.4331 29.4242 30.6593 28.925 31.0191 28.5652C31.3794 28.206 31.8731 27.9841 32.418 27.9841H33.6175V27.6656C33.6175 27.6145 33.6175 27.5576 33.6225 27.506C33.7049 24.164 36.4658 21.4542 39.8343 21.4542C41.5409 21.4542 43.0939 22.1536 44.2199 23.2791C45.3463 24.4055 46.0457 25.958 46.0457 27.6656Z" fill="#E16D63"/>
<path fill-rule="evenodd" clip-rule="evenodd" d="M42.8306 18.6316C43.5094 18.8328 44.1725 19.141 44.7797 19.5317C47.3555 21.1824 47.9725 23.6453 47.304 26.1441C47.0777 27.008 46.6973 27.8723 46.1883 28.7102C46.1784 28.7257 46.1683 28.7414 46.1583 28.7573C46.1218 28.8147 46.0845 28.8734 46.0445 28.9261V27.6667C46.0445 25.9591 45.3451 24.4061 44.2186 23.2802C43.8127 22.8738 43.3499 22.5243 42.8404 22.2416C42.7444 22.364 42.627 22.493 42.5011 22.6313C42.3785 22.766 42.248 22.9095 42.1214 23.0642C41.837 23.4062 41.5609 23.7609 41.2838 24.1168C40.2774 25.4094 39.258 26.7187 37.7864 27.4969C36.5166 28.1649 34.9941 28.3293 33.5957 27.9852H32.4182C31.8729 27.9852 31.3791 28.2061 31.0194 28.5664C30.6596 28.9261 30.4333 29.4248 30.4333 29.9696C30.4333 31.0603 31.3281 31.9545 32.4182 31.9545H33.6158V33.1988C33.6158 33.24 33.6158 33.2758 33.6212 33.3171C33.6212 33.4201 33.6261 33.5281 33.6315 33.6312V33.6361C33.7601 35.487 34.7114 37.1224 36.1254 38.1767V42.6035C35.0402 43.6062 33.364 44.1771 32.0118 44.1771C28.8293 44.1771 26.2476 41.6007 26.2476 38.4182C26.2476 36.3047 27.3843 34.4592 29.0757 33.4614C28.0111 31.8367 27.8265 29.7797 27.8678 27.8311C27.9959 22.1488 31.1995 16.9608 37.4727 17.4443C39.2842 17.5821 41.0503 18.1047 42.7906 18.6197L42.8306 18.6316Z" fill="#1B0B27"/>
<path d="M32.7421 36.0538C32.2896 38.1928 31.2564 39.7821 30.4284 39.6068C29.6057 39.4321 29.3024 37.5601 29.755 35.4216C30.2021 33.2875 31.2407 31.6987 32.0633 31.8734C32.8913 32.0481 33.1947 33.9196 32.7421 36.0538Z" fill="white"/>
<path d="M40.5752 38.6253C40.9065 38.6783 41.5102 38.7308 42.2214 38.5305C42.9842 38.3155 43.4951 37.916 43.7489 37.6878" stroke="#1B0B27" stroke-width="0.490826" stroke-linecap="round" stroke-linejoin="round"/>
<path d="M37.1 27.5345C36.9975 27.6232 36.9863 27.7782 37.0749 27.8807C37.1636 27.9832 37.3186 27.9944 37.4211 27.9058L37.1 27.5345ZM39.4414 27.105C39.5761 27.1204 39.6977 27.0237 39.7131 26.8891C39.7285 26.7544 39.6318 26.6328 39.4971 26.6174L39.4414 27.105ZM37.4211 27.9058C37.5946 27.7557 37.9133 27.5292 38.2888 27.3534C38.6675 27.1761 39.0766 27.0633 39.4414 27.105L39.4971 26.6174C39.0031 26.5609 38.4969 26.714 38.0806 26.9089C37.6611 27.1053 37.3049 27.3574 37.1 27.5345L37.4211 27.9058Z" fill="#1B0B27"/>
<path d="M43.1658 26.3441C43.0327 26.3694 42.9453 26.4979 42.9707 26.6311C42.996 26.7642 43.1245 26.8516 43.2577 26.8262L43.1658 26.3441ZM45.0285 27.2458C45.1223 27.3436 45.2777 27.3469 45.3755 27.2531C45.4734 27.1594 45.4767 27.004 45.3829 26.9062L45.0285 27.2458ZM43.2577 26.8262C43.4472 26.7901 43.776 26.7669 44.1197 26.8214C44.4646 26.876 44.7971 27.0043 45.0285 27.2458L45.3829 26.9062C45.0499 26.5587 44.6001 26.4006 44.1965 26.3366C43.7917 26.2725 43.4057 26.2984 43.1658 26.3441L43.2577 26.8262Z" fill="#1B0B27"/>
<path fill-rule="evenodd" clip-rule="evenodd" d="M43.9022 30.1101C44.1289 30.1101 44.3125 29.771 44.3125 29.3518C44.3125 28.9326 44.1289 28.5935 43.9022 28.5935C43.6754 28.5935 43.4913 28.9326 43.4913 29.3518C43.4913 29.771 43.6754 30.1101 43.9022 30.1101ZM38.2399 30.2252C38.4667 30.2252 38.6503 29.886 38.6503 29.4668C38.6503 29.0477 38.4667 28.7085 38.2399 28.7085C38.0127 28.7085 37.8291 29.0477 37.8291 29.4668C37.8291 29.886 38.0127 30.2252 38.2399 30.2252Z" fill="#1B0B27"/>
<path d="M37.7922 33.3586C37.738 33.2344 37.5934 33.1776 37.4692 33.2317C37.3449 33.2859 37.2881 33.4305 37.3423 33.5547L37.7922 33.3586ZM39.3163 34.7431C39.4508 34.7259 39.5458 34.6029 39.5285 34.4685C39.5113 34.334 39.3883 34.239 39.2539 34.2563L39.3163 34.7431ZM37.3423 33.5547C37.4433 33.7865 37.6569 34.1124 37.9809 34.3668C38.3098 34.625 38.76 34.8144 39.3163 34.7431L39.2539 34.2563C38.8532 34.3076 38.5313 34.1749 38.284 33.9807C38.0318 33.7827 37.865 33.5256 37.7922 33.3586L37.3423 33.5547Z" fill="#1B0B27"/>
<path d="M40.8858 31.98C40.7819 31.8931 40.6271 31.9068 40.5401 32.0108C40.4532 32.1147 40.4669 32.2695 40.5709 32.3565L40.8858 31.98ZM40.9376 32.6633C41.0415 32.7502 41.1963 32.7365 41.2833 32.6325C41.3702 32.5285 41.3565 32.3738 41.2525 32.2868L40.9376 32.6633ZM40.5709 32.3565L40.9376 32.6633L41.2525 32.2868L40.8858 31.98L40.5709 32.3565Z" fill="#1B0B27"/>
<path d="M41.4628 27.8122C41.3708 28.2928 41.5454 29.2362 42.3218 29.9902C43.3957 31.0332 43.6717 31.5547 43.3956 32.0762C43.1195 32.5977 42.3218 32.475 42.3218 32.475" stroke="#1B0B27" stroke-width="0.490826" stroke-linecap="round"/>
<path d="M68.6801 25.0031C74.3615 25.0031 78.9671 20.3188 78.9671 14.5405C78.9671 8.76224 74.3615 4.078 68.6801 4.078C62.9988 4.078 58.3931 8.76224 58.3931 14.5405C58.3931 20.3188 62.9988 25.0031 68.6801 25.0031Z" fill="#45D7B6"/>
<path fill-rule="evenodd" clip-rule="evenodd" d="M66.6949 25.8608C72.2976 25.8608 76.8395 21.2414 76.8395 15.5431C76.8395 9.84474 72.2976 5.22534 66.6949 5.22534C61.0922 5.22534 56.5503 9.84474 56.5503 15.5431C56.5503 21.2414 61.0922 25.8608 66.6949 25.8608Z" stroke="#1B0B27" stroke-width="0.575" stroke-linejoin="round"/>
<path d="M61.6377 15.5431L66.0981 20.5084L72.4943 11.0957" stroke="#1B0B27" stroke-width="0.575" stroke-linejoin="round"/>
<path d="M18.5101 14.1587L17.8934 15.3151C17.5379 15.9778 17.0032 16.5225 16.3528 16.8844L15.2183 17.517L16.3528 18.1495C17.003 18.5121 17.5377 19.0571 17.8934 19.7199L18.5131 20.8762L19.1337 19.7199C19.4894 19.0571 20.0241 18.5121 20.6743 18.1495L21.8088 17.517L20.6743 16.8844C20.0228 16.5229 19.487 15.9782 19.1307 15.3151L18.5101 14.1587Z" fill="white" stroke="#1B0B27" stroke-width="0.435897" stroke-linecap="round" stroke-linejoin="round"/>
<path d="M16.1826 39.0583H16.4603C16.4603 38.9048 16.336 38.7805 16.1826 38.7805V39.0583ZM16.1826 46.8712H15.9048C15.9048 47.0246 16.0292 47.149 16.1826 47.149V46.8712ZM15.627 39.0583V38.7805C15.4736 38.7805 15.3492 38.9048 15.3492 39.0583H15.627ZM15.627 46.8712V47.149C15.7804 47.149 15.9048 47.0246 15.9048 46.8712H15.627ZM8.1723 46.8712V46.5934C8.01889 46.5934 7.89453 46.7178 7.89453 46.8712H8.1723ZM8.1723 47.4268H7.89453C7.89453 47.5802 8.01889 47.7045 8.1723 47.7045V47.4268ZM15.627 47.4268H15.9048C15.9048 47.2734 15.7804 47.149 15.627 47.149V47.4268ZM15.627 54.9301H15.3492C15.3492 55.0835 15.4736 55.2079 15.627 55.2079V54.9301ZM16.1826 54.9301V55.2079C16.336 55.2079 16.4603 55.0835 16.4603 54.9301H16.1826ZM16.1826 47.4268V47.149C16.0292 47.149 15.9048 47.2734 15.9048 47.4268H16.1826ZM24.7409 47.4268V47.7045C24.8943 47.7045 25.0187 47.5802 25.0187 47.4268H24.7409ZM24.7409 46.8712H25.0187C25.0187 46.7178 24.8943 46.5934 24.7409 46.5934V46.8712ZM15.9048 39.0583V46.8712H16.4603V39.0583H15.9048ZM15.627 39.336H16.1826V38.7805H15.627V39.336ZM15.9048 46.8712V39.0583H15.3492V46.8712H15.9048ZM8.1723 47.149H15.627V46.5934H8.1723V47.149ZM8.45008 47.4268V46.8712H7.89453V47.4268H8.45008ZM15.627 47.149H8.1723V47.7045H15.627V47.149ZM15.9048 54.9301V47.4268H15.3492V54.9301H15.9048ZM16.1826 54.6523H15.627V55.2079H16.1826V54.6523ZM15.9048 47.4268V54.9301H16.4603V47.4268H15.9048ZM24.7409 47.149H16.1826V47.7045H24.7409V47.149ZM24.4631 46.8712V47.4268H25.0187V46.8712H24.4631ZM16.1826 47.149H24.7409V46.5934H16.1826V47.149Z" fill="#45D7B6"/>
<path fill-rule="evenodd" clip-rule="evenodd" d="M57.0276 49.6357C56.2068 49.6357 55.5415 48.9311 55.5415 48.0619C55.5415 47.1928 56.2068 46.4882 57.0276 46.4882C57.8483 46.4882 58.5137 47.1928 58.5137 48.0619C58.5137 48.9311 57.8483 49.6357 57.0276 49.6357Z" stroke="#1B0B27" stroke-width="0.533333" stroke-linejoin="round"/>
<path fill-rule="evenodd" clip-rule="evenodd" d="M63.4983 49.5553C62.6775 49.5553 62.0122 48.8507 62.0122 47.9815C62.0122 47.1124 62.6775 46.4078 63.4983 46.4078C64.319 46.4078 64.9844 47.1124 64.9844 47.9815C64.9844 48.8507 64.319 49.5553 63.4983 49.5553Z" stroke="#1B0B27" stroke-width="0.533333" stroke-linejoin="round"/>
<path fill-rule="evenodd" clip-rule="evenodd" d="M69.8928 49.3973C69.072 49.3973 68.4067 48.6927 68.4067 47.8236C68.4067 46.9544 69.072 46.2498 69.8928 46.2498C70.7135 46.2498 71.3789 46.9544 71.3789 47.8236C71.3789 48.6927 70.7135 49.3973 69.8928 49.3973Z" stroke="#1B0B27" stroke-width="0.533333" stroke-linejoin="round"/>
</g>
</g>
<defs>
<clipPath id="clip0">
<rect width="80" height="80" fill="white"/>
</clipPath>
</defs>
</svg>
