<svg width="80" height="80" viewBox="0 0 80 80" fill="none" xmlns="http://www.w3.org/2000/svg">
<g clip-path="url(#clip0)">
<path d="M80 0H0V80H80V0Z" fill="white"/>
<path d="M93.491 -14H-14V93H93.491V-14Z" fill="white"/>
<path d="M39.7455 78.4389C61.3773 78.4389 78.9134 61.0053 78.9134 39.5C78.9134 17.9947 61.3773 0.561157 39.7455 0.561157C18.1137 0.561157 0.577637 17.9947 0.577637 39.5C0.577637 61.0053 18.1137 78.4389 39.7455 78.4389Z" fill="#45D7B6"/>
<path d="M-2.22021 -2.22015V-3.22015H-3.22021V-2.22015H-2.22021ZM81.711 -2.22015H82.711V-3.22015H81.711V-2.22015ZM81.711 81.2202V82.2202H82.711V81.2202H81.711ZM-2.22021 81.2202H-3.22021V82.2202H-2.22021V81.2202ZM-2.22021 -1.22015H81.711V-3.22015H-2.22021V-1.22015ZM80.711 -2.22015V81.2202H82.711V-2.22015H80.711ZM81.711 80.2202H-2.22021V82.2202H81.711V80.2202ZM-1.22021 81.2202V-2.22015H-3.22021V81.2202H-1.22021Z" fill="#BEBDBD"/>
<mask id="mask0" mask-type="alpha" maskUnits="userSpaceOnUse" x="0" y="0" width="79" height="79">
<path fill-rule="evenodd" clip-rule="evenodd" d="M39.7452 78.7661C61.2957 78.7661 78.7659 61.1861 78.7659 39.5C78.7659 17.814 61.2957 0.234009 39.7452 0.234009C18.1947 0.234009 0.724609 17.814 0.724609 39.5C0.724609 61.1861 18.1947 78.7661 39.7452 78.7661Z" fill="white"/>
</mask>
<g mask="url(#mask0)">
<path fill-rule="evenodd" clip-rule="evenodd" d="M103.968 23.7782C103.801 24.2298 103.457 24.593 103.016 24.7898L103.008 24.7931C102.653 24.9567 93.3798 29.2254 92.6791 31.3271C92.5564 31.7006 92.5957 32.1124 92.7871 32.4604C92.8362 32.5689 93.2877 33.3984 93.4105 33.3689L97.0671 32.137C97.7101 31.9112 98.4218 32.0437 98.9322 32.4904C99.4427 32.9419 99.6734 33.6291 99.536 34.2917C99.3985 34.9543 98.9077 35.4942 98.2598 35.7004L91.349 38.0465C89.5722 39.3865 87.2948 39.7992 85.2038 39.2343C84.6296 39.8626 83.9228 40.3632 83.1178 40.6975L61.0945 49.7429C58.1152 50.9552 54.7138 49.5466 53.4621 46.5918C52.8732 45.1684 52.8732 43.5732 53.4671 42.1498C54.056 40.7264 55.1899 39.5975 56.6182 39.0134L78.6366 29.9626C79.26 29.7123 79.8931 29.5753 80.5263 29.5405C81.2772 27.7784 82.735 26.3649 84.5952 25.6826H84.61C86.7107 24.6519 97.9359 20.1952 97.9359 20.1952C98.839 19.7485 99.9335 20.1019 100.395 20.9952L100.463 21.1277C100.557 21.3192 100.62 21.5204 100.645 21.7266L101.435 21.3732C102.348 20.951 103.428 21.3437 103.86 22.2522L103.924 22.3892C104.125 22.8265 104.14 23.3266 103.968 23.7782ZM6.86328 61.7558L26.3952 48.1614C29.0329 46.3321 32.6566 46.9844 34.4884 49.6182C36.2995 52.2711 35.6409 55.8841 33.0105 57.7311L14.4486 70.6503L21.7618 87.7609C22.0494 88.4245 22.2094 89.1362 22.2325 89.8591C23.9646 90.2071 25.6094 90.9586 27.3557 91.8023L31.3559 93.7381C31.8065 93.9551 32.1521 94.3418 32.3165 94.8135C32.4804 95.2852 32.45 95.803 32.2316 96.2521C31.7781 97.1852 30.6536 97.5749 29.7181 97.1239L26.7603 95.8011C26.7603 95.8011 26.0187 95.592 26.1954 96.4426C26.3176 96.5835 30.9137 108.357 30.9137 108.357C31.2926 109.283 30.8494 110.34 29.9227 110.721L29.7819 110.78C28.8493 111.153 27.7891 110.708 27.4053 109.781L24.32 102.276C24.2846 102.307 27.6429 111.132 27.6429 111.132C27.8181 111.581 27.8078 112.081 27.6129 112.522C27.4181 112.963 27.0553 113.308 26.6048 113.482L26.4639 113.536C25.5264 113.887 24.48 113.424 24.1104 112.495L20.7428 103.874L21.8914 110.812C21.9925 111.283 21.9022 111.774 21.6405 112.177C21.3789 112.581 20.9666 112.865 20.4959 112.965L20.3477 112.997C19.3607 113.198 18.3952 112.57 18.1802 111.587C17.8661 110.161 17.5574 108.736 17.2531 107.314C17.2002 107.073 17.1523 106.829 17.1042 106.584C16.9531 105.815 16.8001 105.035 16.4859 104.328C16.0299 103.273 15.3905 102.602 14.6151 101.787L14.5398 101.708C12.7492 99.8308 12.1254 97.1292 12.9112 94.6594C12.0837 94.0474 11.4338 93.2267 11.0284 92.2814L1.68359 70.4072C1.07644 68.9912 1.05975 67.3916 1.63697 65.9633C2.21418 64.535 3.33817 63.3953 4.7596 62.7965C5.19011 62.6181 5.62985 62.4946 6.07099 62.4227C6.311 62.1816 6.57531 61.9581 6.86328 61.7558Z" fill="#EDB59D"/>
<path fill-rule="evenodd" clip-rule="evenodd" d="M38.157 43.9315L54.1972 39.7635C58.8763 36.6831 64.9212 34.7359 64.9212 34.7359C64.9212 34.7359 68.6599 52.2412 68.734 52.5902C68.734 52.5902 55.2303 56.2294 49.3406 58.4998L35.5586 78.1018L16.818 76.4315L15.7398 73.8277L14.4678 70.431L25.1354 63.0219L25.2996 62.6409L14.8781 52.1602C14.8781 52.1602 22.135 43.4093 29.4905 43.4108C31.1786 43.4108 32.8727 43.8722 34.485 45.0063L38.157 43.9315Z" fill="#1B0B27"/>
<path d="M40.9727 70.2858C44.5685 65.3687 48.0263 60.3603 51.3458 55.2606" stroke="#1B0B27" stroke-width="0.490826" stroke-linecap="round" stroke-linejoin="round"/>
<path d="M24.2759 61.4165L29.3663 66.2364C29.3663 66.2364 32.9935 62.4585 34.7977 59.3099" stroke="#1B0B27" stroke-width="0.490826" stroke-linecap="round" stroke-linejoin="round"/>
<path d="M53.7169 21.6982C46.6172 26.5868 36.3888 26.3459 29.5197 21.1481C28.2748 20.2034 27.0872 19.0283 26.6699 17.5362C26.2527 16.0441 26.8722 14.1516 28.3432 13.6187C29.0625 13.3918 29.8373 13.4135 30.5421 13.6802C34.0331 14.8544 35.166 19.8056 33.1292 22.8642C31.0925 25.9228 26.8678 26.9929 23.2855 26.1347C12.7461 23.6142 6.63716 10.8567 7.35019 0.798767" stroke="white" stroke-width="0.8" stroke-linejoin="round"/>
<path d="M53.7169 21.6982C46.6172 26.5868 36.3888 26.3459 29.5197 21.1481C28.2748 20.2034 27.0872 19.0283 26.6699 17.5362C26.2527 16.0441 26.8722 14.1516 28.3432 13.6187C29.0625 13.3918 29.8373 13.4135 30.5421 13.6802C34.0331 14.8544 35.166 19.8056 33.1292 22.8642C31.0925 25.9228 26.8678 26.9929 23.2855 26.1347C12.7461 23.6142 6.63716 10.8567 7.35019 0.798767" stroke="url(#paint0_linear)" stroke-width="0.8" stroke-linejoin="round"/>
<path fill-rule="evenodd" clip-rule="evenodd" d="M60.1075 13.3242C58.3911 13.6421 57.2567 15.287 57.5736 16.998C57.8906 18.7091 59.5389 19.8385 61.2552 19.5205C62.9716 19.2026 64.1061 17.5578 63.7891 15.8467C63.4722 14.1357 61.8239 13.0063 60.1075 13.3242Z" stroke="white" stroke-width="0.8" stroke-linejoin="round"/>
<path fill-rule="evenodd" clip-rule="evenodd" d="M60.1075 13.3242C58.3911 13.6421 57.2567 15.287 57.5736 16.998C57.8906 18.7091 59.5389 19.8385 61.2552 19.5205C62.9716 19.2026 64.1061 17.5578 63.7891 15.8467C63.4722 14.1357 61.8239 13.0063 60.1075 13.3242Z" stroke="url(#paint1_linear)" stroke-width="0.8" stroke-linejoin="round"/>
<path d="M49.2704 34.2429L50.1293 33.7864C50.3404 33.674 50.4876 33.4723 50.5318 33.2367C50.5711 33.0016 50.5023 32.7606 50.3404 32.579C49.6139 31.7642 48.5047 30.5126 48.1955 30.1155C46.6494 27.283 46.0843 26.552 44.661 26.7974C43.7765 26.9499 42.0426 27.7766 39.6192 31.2734C38.488 31.048 36.6629 32.2044 36.6629 32.2044C36.2164 32.2964 35.7474 33.0104 35.4684 33.4352C35.4496 33.4637 35.4317 33.491 35.4147 33.5167C35.2675 33.7474 35.1693 33.9972 35.1295 34.2622C35.1001 34.4738 35.1055 34.6942 35.1447 34.9106C35.1693 35.0333 35.2032 35.1462 35.2522 35.2591C35.3902 35.5924 35.6253 35.8825 35.9252 36.0886C35.959 36.1131 35.9983 36.1377 36.0376 36.1573C36.0375 36.1573 36.0376 36.1573 36.0376 36.1573C36.0375 36.1665 36.0366 36.1769 36.0355 36.1877C36.0342 36.1999 36.0328 36.2129 36.0328 36.2258L35.5665 37.0845V45.4632C35.4585 47.6429 37.1372 49.5032 39.3213 49.6156H39.3262C41.5006 49.7235 43.3559 48.0503 43.4688 45.8706L43.67 41.8016C43.6897 41.8016 43.7142 41.7967 43.7339 41.7923C47.0617 41.1145 49.3145 37.9045 49.2704 34.2429Z" fill="#EDB59D"/>
<path d="M39.1084 40.7517C39.1084 40.7517 39.8681 41.5614 41.8007 41.7761C43.0263 41.9123 43.7947 41.5614 43.7947 41.5614" stroke="#1B0B27" stroke-width="0.490826" stroke-linecap="round" stroke-linejoin="round"/>
<path d="M48.9384 34.4178L50.1296 33.7856C50.3397 33.6757 50.4879 33.4725 50.5297 33.2369C50.5719 33.0008 50.5027 32.7588 50.3427 32.5816C49.4886 31.6211 48.5304 30.5272 48.0786 29.9467" stroke="#1B0B27" stroke-width="0.490826" stroke-linecap="round" stroke-linejoin="round"/>
<path d="M44.5241 30.2798C44.3185 30.3215 44.213 30.6636 44.2886 31.044C44.3641 31.4249 44.5924 31.7003 44.798 31.658C45.0032 31.6168 45.1097 31.2737 45.0341 30.8928C44.9629 30.5385 44.7602 30.2759 44.5664 30.2759C44.5521 30.2759 44.5379 30.2774 44.5241 30.2798Z" fill="#1B0B27"/>
<path d="M43.3848 29.9466C43.8958 29.3675 44.5677 28.9581 45.3128 28.7716" stroke="#1B0B27" stroke-width="0.490826" stroke-linecap="round" stroke-linejoin="round"/>
<path d="M45.1755 34.6814C44.9168 35.1133 44.7926 35.614 44.8182 36.1185C44.8373 36.601 45.0189 37.0634 45.3325 37.4276C45.653 37.7893 46.1188 37.9842 46.5984 37.9577C47.0666 37.8997 47.4912 37.6533 47.7773 37.2744" stroke="#1B0B27" stroke-width="0.490826" stroke-linecap="round" stroke-linejoin="round"/>
<path d="M37.1962 36.3951L35.5618 38.9959L34.1685 37.3473C34.1685 37.3473 29.3987 31.9297 30.467 27.1558C31.5353 22.3819 42.894 22.3819 42.894 22.3819L45.0584 25.1106C45.0584 25.1106 45.7012 24.7629 46.4939 26.0304C47.2866 27.298 47.52 28.9249 47.52 28.9249L46.4939 27.7844L45.8054 26.8768C45.8054 26.8768 42.3868 29.0732 41.3268 29.9899C40.2668 30.9067 38.1333 32.444 38.1333 32.444C38.1333 32.444 35.8158 32.2044 35.3395 33.8498C34.8631 35.4951 37.1962 36.3951 37.1962 36.3951Z" fill="#1B0B27"/>
<path d="M32.3195 21.4643C31.8429 21.8221 31.6 22.3075 31.7772 22.5475C31.9538 22.7885 32.4839 22.6928 32.96 22.335C33.4371 21.9767 33.6801 21.4918 33.5034 21.2513C33.4371 21.1614 33.3218 21.1183 33.1785 21.1183C32.938 21.1183 32.6184 21.2395 32.3195 21.4643Z" fill="#1B0B27"/>
<path d="M32.4697 33.9753L44.7442 22.9146L44.4252 23.1796C41.3973 19.7659 36.2102 19.465 32.8162 22.5062C29.4403 25.567 29.1433 30.8095 32.1511 34.2404L32.4697 33.9753Z" fill="#45D7B6" stroke="#1B0B27" stroke-width="0.490826" stroke-linecap="round" stroke-linejoin="round"/>
<path d="M35.7624 30.7605L40.2034 28.4478L42.6011 27.2006C40.8793 24.4549 37.9785 22.7341 35.1872 21.1183C34.7278 24.393 34.8829 27.7258 35.6451 30.9426" fill="white"/>
<path d="M35.7624 30.7605L40.2034 28.4478L42.6011 27.2006C40.8793 24.4549 37.9785 22.7341 35.1872 21.1183C34.7278 24.393 34.8829 27.7258 35.6451 30.9426" stroke="#1B0B27" stroke-width="0.490826" stroke-linecap="round" stroke-linejoin="round"/>
<path d="M35.8159 30.9177L47.8981 24.9729C48.4223 22.4333 46.8168 19.9429 44.3067 19.4025C41.7966 18.8763 39.3376 20.498 38.8021 23.0321L35.8159 30.9177Z" fill="white" stroke="#1B0B27" stroke-width="0.490826" stroke-linecap="round" stroke-linejoin="round"/>
<path d="M10.442 35.0681L9.62174 36.4201C9.1516 37.1951 8.44517 37.8325 7.58601 38.2569L6.08643 38.9961L7.58601 39.7359C8.44474 40.1593 9.15114 40.7955 9.62174 41.5694L10.442 42.9246L11.2615 41.5694C11.7321 40.7955 12.4385 40.1593 13.2973 39.7359L14.7968 38.9961L13.2973 38.2569C12.4381 37.8325 11.7317 37.1951 11.2615 36.4201L10.442 35.0681Z" fill="white"/>
</g>
</g>
<defs>
<linearGradient id="paint0_linear" x1="33.1018" y1="27.239" x2="27.5126" y2="-2.93588" gradientUnits="userSpaceOnUse">
<stop stop-color="white"/>
<stop offset="1" stop-color="white" stop-opacity="0"/>
</linearGradient>
<linearGradient id="paint1_linear" x1="61.2552" y1="19.5205" x2="60.1075" y2="13.3242" gradientUnits="userSpaceOnUse">
<stop stop-color="white"/>
<stop offset="1" stop-color="white" stop-opacity="0"/>
</linearGradient>
<clipPath id="clip0">
<rect width="80" height="80" fill="white"/>
</clipPath>
</defs>
</svg>
