<svg width="80" height="80" viewBox="0 0 80 80" fill="none" xmlns="http://www.w3.org/2000/svg">
<g clip-path="url(#clip0)">
<path d="M80 0H0V80H80V0Z" fill="white"/>
<path d="M93.491 -14H-14V93H93.491V-14Z" fill="white"/>
<path d="M39.7455 78.4388C61.3773 78.4388 78.9134 61.0053 78.9134 39.5C78.9134 17.9947 61.3773 0.561157 39.7455 0.561157C18.1137 0.561157 0.577637 17.9947 0.577637 39.5C0.577637 61.0053 18.1137 78.4388 39.7455 78.4388Z" fill="white" stroke="#BEBDBD"/>
<path d="M-2.22021 -2.22015V-3.22015H-3.22021V-2.22015H-2.22021ZM81.711 -2.22015H82.711V-3.22015H81.711V-2.22015ZM81.711 81.2202V82.2202H82.711V81.2202H81.711ZM-2.22021 81.2202H-3.22021V82.2202H-2.22021V81.2202ZM-2.22021 -1.22015H81.711V-3.22015H-2.22021V-1.22015ZM80.711 -2.22015V81.2202H82.711V-2.22015H80.711ZM81.711 80.2202H-2.22021V82.2202H81.711V80.2202ZM-1.22021 81.2202V-2.22015H-3.22021V81.2202H-1.22021Z" fill="#BEBDBD"/>
<mask id="mask0" mask-type="alpha" maskUnits="userSpaceOnUse" x="0" y="0" width="79" height="79">
<path fill-rule="evenodd" clip-rule="evenodd" d="M39.7452 78.7661C61.2957 78.7661 78.7659 61.186 78.7659 39.5C78.7659 17.814 61.2957 0.233948 39.7452 0.233948C18.1947 0.233948 0.724609 17.814 0.724609 39.5C0.724609 61.186 18.1947 78.7661 39.7452 78.7661Z" fill="white"/>
</mask>
<g mask="url(#mask0)">
<path d="M58.4762 74.4121V94.2613H22.1127L23.3822 68.5026L21.6054 73.5532C20.5256 76.6312 17.1291 78.2509 14.0614 77.1559C10.9888 76.0569 9.36913 72.6457 10.4489 69.5677L18.4935 46.7202C19.3427 44.2956 21.6299 42.7735 24.0644 42.7735C24.6829 42.7735 25.3013 42.8673 25.9148 43.0734C26.9947 42.5134 28.2168 42.1997 29.5126 42.1997H53.514C57.313 42.1997 60.5033 44.9233 61.2346 48.5167L70.7567 73.0231C72.0917 76.4496 70.6143 80.0718 67.473 81.0682C64.3367 82.0641 58.4762 74.4121 58.4762 74.4121Z" fill="#45D7B6"/>
<path fill-rule="evenodd" clip-rule="evenodd" d="M57.7456 75.7664L48.1436 75.8086C47.4422 75.8116 47.0525 75.3468 47.2778 74.775L53.2668 59.5849C53.4921 59.0136 54.2504 58.5438 54.9518 58.5409L64.5539 58.4987C65.2552 58.4957 65.645 58.961 65.4197 59.5324L59.4306 74.7219C59.2053 75.2933 58.447 75.7635 57.7456 75.7664Z" fill="white" stroke="#1B0B27" stroke-width="0.490826" stroke-linecap="round" stroke-linejoin="round"/>
<path d="M58.8445 76.8942L49.4808 76.936C48.7968 76.9394 48.4168 76.4746 48.6365 75.9028L54.4769 60.7127C54.6966 60.1414 55.4361 59.6717 56.1201 59.6682L65.4838 59.6265" stroke="#1B0B27" stroke-width="0.490826" stroke-linejoin="round"/>
<path fill-rule="evenodd" clip-rule="evenodd" d="M61.2135 61.0839C61.3902 61.3583 61.2376 61.7711 60.8724 62.0072C60.5077 62.2428 60.0679 62.2118 59.8912 61.938C59.714 61.6641 59.8667 61.2508 60.2319 61.0147C60.597 60.7791 61.0368 60.81 61.2135 61.0839Z" fill="#1B0B27"/>
<path fill-rule="evenodd" clip-rule="evenodd" d="M63.3752 61.0954C63.5523 61.3692 63.3997 61.7825 63.0345 62.0186C62.6693 62.2542 62.2296 62.2233 62.0529 61.9489C61.8757 61.6755 62.0283 61.2622 62.3935 61.0261C62.7592 60.7906 63.1985 60.821 63.3752 61.0954Z" fill="#45D7B6" stroke="#1B0B27" stroke-width="0.490826" stroke-linecap="round" stroke-linejoin="round"/>
<path fill-rule="evenodd" clip-rule="evenodd" d="M60.7721 63.0559C60.9488 63.3298 60.7966 63.7431 60.4315 63.9786C60.0663 64.2142 59.6265 64.1838 59.4498 63.9094C59.2726 63.6361 59.4253 63.2228 59.7905 62.9867C60.1556 62.7511 60.5954 62.7815 60.7721 63.0559Z" fill="#1B0B27"/>
<path fill-rule="evenodd" clip-rule="evenodd" d="M61.8083 71.9799C61.1459 72.6967 60.6963 73.5363 60.4561 74.42L51.9361 71.5424C51.2981 71.1203 50.5913 70.7718 49.8305 70.5018C49.8203 70.4995 49.81 70.4956 49.7998 70.4917C49.7904 70.4881 49.781 70.4845 49.7716 70.4822L51.4895 66.2223C52.1177 64.6664 51.3422 63.002 49.7667 62.5161C48.1185 62.0125 46.2229 62.9927 45.682 64.6851L45.4497 65.2576C45.2896 65.6522 45.1297 66.0464 44.9689 66.4422C44.7531 66.8823 44.5925 67.3319 44.4365 67.7685C44.0355 68.8909 43.6654 69.927 42.4681 70.492C38.3157 69.957 34.1682 69.422 30.0159 68.8826C27.8957 68.6095 25.7778 68.3361 23.6607 68.0628L23.6576 68.0624L20.8816 67.7041C19.7527 67.5569 18.6189 67.4101 17.4851 67.2673C15.5512 67.0175 14.1671 67.1446 12.4541 68.1802C11.5805 68.7054 10.7853 69.3582 10.1031 70.1239C5.86235 74.8898 9.9902 81.5999 15.723 82.2969L42.0347 85.3631L45.3021 86.1705C45.5917 86.2421 45.8852 86.2976 46.1807 86.3368L55.8677 87.6218C56.1867 87.7352 56.5155 87.7887 56.8346 87.7887C57.9193 87.7887 58.9157 87.1659 59.274 86.1543C59.7108 84.9076 58.8911 83.867 57.5855 83.3418L57.9831 83.4209C58.1893 83.494 58.3954 83.5283 58.6016 83.5283C59.6519 83.5283 60.663 82.665 61.0017 81.7074C61.4042 80.5638 60.7121 79.2729 59.4654 78.8311L56.9327 78.0949L60.7366 79.0618C60.8757 79.098 61.0148 79.1178 61.1513 79.124C61.4261 79.5615 61.7632 79.9696 62.1622 80.3348L77.0403 93.9589C77.0357 95.2014 77.3544 96.4469 78.0024 97.5647L79.5309 104.729C79.7444 105.751 80.7481 106.403 81.7725 106.185C82.7973 105.968 83.4545 104.963 83.241 103.942L82.438 100.15C82.4056 100.011 83.3107 99.6669 83.4241 99.6291C83.7951 99.4804 84.2104 99.4893 84.5731 99.6537C86.6154 100.604 89.821 110.51 89.8902 110.727C90.037 111.19 90.3629 111.574 90.7948 111.795C91.2277 112.016 91.7308 112.055 92.1942 111.904L92.3414 111.859C93.3029 111.535 93.8296 110.503 93.5243 109.54L93.2627 108.711C93.4752 108.709 93.6853 108.671 93.8841 108.595L94.0279 108.544C94.9762 108.183 95.4621 107.131 95.1175 106.182C95.1175 106.182 91.9885 94.4583 91.2096 92.2442C91.2091 92.2393 91.2066 92.2353 91.2022 92.2329C90.7227 90.2636 89.4414 88.6304 87.7247 87.6807L70.2019 71.6349C67.7963 69.4316 64.0194 69.5872 61.8083 71.9799ZM56.9327 78.0949L55.9265 77.8402L52.0981 76.8629L52.0539 76.7554L52.0834 76.6813L55.9216 77.8004L56.9327 78.0949ZM57.5855 83.3418L54.7633 82.7725L50.8907 81.9921L54.778 82.7528L57.399 83.2682C57.4167 83.275 57.4341 83.2815 57.4513 83.2878L57.4514 83.2879C57.496 83.3045 57.5395 83.3206 57.5855 83.3418Z" fill="#EDB59D"/>
<path d="M59.6818 78.7272L52.3184 76.7604" stroke="#1B0B27" stroke-width="0.490826" stroke-linecap="round" stroke-linejoin="round"/>
<path d="M54.8364 72.461L47.2139 69.9077" stroke="#1B0B27" stroke-width="0.490826" stroke-linecap="round" stroke-linejoin="round"/>
<path d="M46.9653 27.4949V33.2004C46.9653 33.3274 46.9597 33.4601 46.9547 33.5876C46.8382 35.5019 45.873 37.1986 44.4254 38.2965V43.924C44.4254 46.0398 42.6918 47.7683 40.581 47.7683C38.4653 47.7683 36.7367 46.0398 36.7367 43.924V38.3334C35.278 37.2467 34.2975 35.5606 34.1649 33.6514V33.6458C34.1593 33.5395 34.1538 33.4287 34.1538 33.3229C34.1487 33.2804 34.1487 33.2429 34.1487 33.2004V31.9173H32.9117C31.788 31.9173 30.8647 30.9945 30.8647 29.8703C30.8647 29.3085 31.0981 28.7937 31.4696 28.4227C31.8406 28.0517 32.3498 27.8234 32.9117 27.8234H34.1487V27.4949C34.1487 27.4423 34.1487 27.3836 34.1538 27.3304C34.2388 23.8834 37.0865 21.0894 40.5598 21.0894C42.3202 21.0894 43.9212 21.8107 45.0829 22.9713C46.244 24.133 46.9653 25.734 46.9653 27.4949Z" fill="#EDB59D"/>
<path d="M48.8437 22.4417C48.7829 23.1903 48.3578 23.8185 47.7858 24.3196C47.4062 24.6486 46.9607 24.927 46.5148 25.1497C46.2217 24.4006 45.7864 23.7223 45.2448 23.1402C44.7944 23.3381 44.3135 23.5148 43.8428 23.6818C40.7344 24.7751 37.5258 25.7672 34.2155 26.5973C34.1801 26.8403 34.1599 27.0832 34.1543 27.3312C34.1497 27.3819 34.1497 27.4426 34.1497 27.4927V27.8222H32.9096C32.3478 27.8222 31.8416 28.05 31.4671 28.4246C31.0971 28.7941 30.8642 29.3103 30.8642 29.8722C30.8642 30.9954 31.7859 31.9171 32.9096 31.9171H34.1497V33.2027C34.1497 33.2432 34.1497 33.2787 34.1543 33.3242C34.1543 33.4305 34.1599 33.5419 34.1649 33.6482V33.6527C34.2201 34.4479 34.4231 35.197 34.7465 35.8854C30.9204 34.4074 29.4576 29.1889 29.2248 25.4534C29.0881 23.2161 29.3513 20.8979 30.7888 19.0808C32.1807 17.3289 32.2263 20.0678 31.872 20.9688C32.7016 18.8429 35.7948 16.5651 37.946 16.0235C38.1788 15.9628 38.4268 15.9172 38.649 16.0033C39.0595 16.1602 39.181 16.717 39.019 17.1219C38.8571 17.5319 38.4977 17.8204 38.1484 18.0882C39.3986 17.208 40.8311 16.5854 42.3344 16.2867C42.8557 16.1804 43.4075 16.1146 43.9136 16.2867C44.5767 16.5145 45.0677 17.1776 45.0981 17.8756C45.1229 18.4329 44.8602 18.9795 44.435 19.3187C45.5738 18.7209 47.0412 19.2271 47.8921 20.1437C48.4742 20.7714 48.9095 21.5913 48.8437 22.4417Z" fill="#1B0B27"/>
<path d="M41.4814 38.7175C41.8231 38.7717 42.4462 38.8263 43.1796 38.6198C43.9657 38.3981 44.4931 37.9861 44.7543 37.7507" stroke="#1B0B27" stroke-width="0.490826" stroke-linecap="round" stroke-linejoin="round"/>
<path d="M44.1017 26.1864C43.9662 26.1864 43.8563 26.2963 43.8563 26.4318C43.8563 26.5673 43.9662 26.6772 44.1017 26.6772V26.1864ZM45.9349 27.1001C46.0499 27.1719 46.2013 27.137 46.2731 27.022C46.3449 26.9071 46.31 26.7557 46.1951 26.6838L45.9349 27.1001ZM42.6569 28.2404C42.5885 28.1235 42.4381 28.0842 42.3212 28.1526C42.2042 28.2211 42.1649 28.3714 42.2334 28.4884L42.6569 28.2404ZM43.9176 30.8799L44.1423 30.7811L44.1366 30.7681L44.1294 30.7559L43.9176 30.8799ZM43.2229 31.9571C43.0893 31.9342 42.9624 32.0239 42.9395 32.1575C42.9166 32.2911 43.0063 32.418 43.1399 32.4409L43.2229 31.9571ZM44.1017 26.6772C44.6608 26.6772 45.2626 26.6798 45.9349 27.1001L46.1951 26.6838C45.3949 26.1838 44.6674 26.1864 44.1017 26.1864V26.6772ZM42.2334 28.4884L43.7058 31.0039L44.1294 30.7559L42.6569 28.2404L42.2334 28.4884ZM43.693 30.9787C43.8481 31.3313 43.8519 31.617 43.7761 31.7777C43.7414 31.8515 43.6885 31.9042 43.6114 31.9365C43.5302 31.9705 43.4056 31.9884 43.2229 31.9571L43.1399 32.4409C43.3867 32.4832 43.611 32.4689 43.8011 32.3892C43.9953 32.3078 44.1361 32.1654 44.2202 31.9869C44.3822 31.6429 44.3246 31.1955 44.1423 30.7811L43.693 30.9787Z" fill="#1B0B27"/>
<path d="M44.7542 30.0159C44.9881 30.0159 45.1779 29.6661 45.1779 29.2338C45.1779 28.8016 44.9881 28.4518 44.7542 28.4518C44.5204 28.4518 44.3311 28.8016 44.3311 29.2338C44.3311 29.6661 44.5204 30.0159 44.7542 30.0159Z" fill="#1B0B27"/>
<path d="M38.9149 30.1345C39.1487 30.1345 39.3385 29.7847 39.3385 29.3525C39.3385 28.9202 39.1487 28.5704 38.9149 28.5704C38.681 28.5704 38.4912 28.9202 38.4912 29.3525C38.4912 29.7847 38.681 30.1345 38.9149 30.1345Z" fill="#1B0B27"/>
<path d="M41.3184 31.8381C41.2038 31.7658 41.0522 31.8 40.9798 31.9146C40.9074 32.0292 40.9417 32.1807 41.0563 32.2531L41.3184 31.8381ZM41.6391 32.6212C41.7537 32.6936 41.9053 32.6594 41.9777 32.5448C42.05 32.4302 42.0158 32.2786 41.9012 32.2062L41.6391 32.6212ZM41.0563 32.2531L41.6391 32.6212L41.9012 32.2062L41.3184 31.8381L41.0563 32.2531Z" fill="#1B0B27"/>
<path d="M38.7027 32.4444L38.889 32.2847C38.8329 32.2192 38.7464 32.1879 38.6613 32.2025C38.5762 32.2171 38.505 32.2753 38.4738 32.3558L38.7027 32.4444ZM43.5496 34.4077L43.7611 34.5321C43.8074 34.4535 43.8062 34.3556 43.758 34.2781C43.7098 34.2006 43.6225 34.1562 43.5315 34.163L43.5496 34.4077ZM39.8071 36.1563L39.9152 35.936L39.8071 36.1563ZM38.5164 32.6041C38.7084 32.8281 39.0457 33.1794 39.4427 33.5165C39.8364 33.8509 40.3064 34.1865 40.7624 34.3609L40.9377 33.9024C40.5593 33.7577 40.1397 33.4645 39.7604 33.1424C39.3843 32.823 39.0652 32.4902 38.889 32.2847L38.5164 32.6041ZM40.7624 34.3609C41.2134 34.5333 41.7788 34.6146 42.2889 34.6495C42.8026 34.6846 43.2806 34.6737 43.5677 34.6525L43.5315 34.163C43.2665 34.1826 42.8118 34.1932 42.3224 34.1598C41.8294 34.1261 41.3211 34.049 40.9377 33.9024L40.7624 34.3609ZM43.3381 34.2833C43.0966 34.6938 42.6068 35.3066 41.9849 35.7131C41.3681 36.1164 40.6546 36.299 39.9152 35.936L39.6989 36.3766C40.6465 36.8418 41.5487 36.5848 42.2535 36.124C42.9534 35.6664 43.4913 34.9908 43.7611 34.5321L43.3381 34.2833ZM39.9152 35.936C39.4098 35.6878 39.068 35.0864 38.9032 34.379C38.7392 33.6752 38.7707 32.9486 38.9316 32.533L38.4738 32.3558C38.2666 32.8912 38.2467 33.7242 38.4252 34.4904C38.6028 35.2531 38.9972 36.0321 39.6989 36.3766L39.9152 35.936Z" fill="#1B0B27"/>
<path d="M37.9459 27.0865C37.8501 27.1824 37.8501 27.3378 37.9459 27.4336C38.0418 27.5294 38.1971 27.5294 38.293 27.4336L37.9459 27.0865ZM40.0383 26.9186C40.1716 26.9431 40.2996 26.855 40.3241 26.7217C40.3487 26.5884 40.2605 26.4604 40.1272 26.4359L40.0383 26.9186ZM38.293 27.4336C38.5221 27.2045 39.2097 26.7659 40.0383 26.9186L40.1272 26.4359C39.0907 26.2449 38.2486 26.7839 37.9459 27.0865L38.293 27.4336Z" fill="#1B0B27"/>
<path d="M66.0137 29.1916L65.959 28.8966C65.7961 28.9268 65.6885 29.0833 65.7187 29.2462L66.0137 29.1916ZM79.1761 26.7511L79.471 26.6964C79.4408 26.5335 79.2843 26.4259 79.1214 26.4561L79.1761 26.7511ZM66.0667 29.4774L65.7718 29.5321C65.7863 29.6104 65.8313 29.6796 65.8968 29.7247C65.9624 29.7698 66.0432 29.7869 66.1214 29.7724L66.0667 29.4774ZM79.2291 27.037L79.2838 27.3319C79.362 27.3174 79.4313 27.2724 79.4763 27.2069C79.5214 27.1413 79.5386 27.0605 79.5241 26.9823L79.2291 27.037ZM71.2513 12.5749L71.4825 12.3838C71.377 12.2561 71.1879 12.2381 71.0602 12.3436L71.2513 12.5749ZM60.9357 21.0981L60.7446 20.8668C60.6168 20.9723 60.5989 21.1614 60.7044 21.2891L60.9357 21.0981ZM71.4365 12.799L71.6276 13.0303C71.6889 12.9796 71.7276 12.9067 71.7351 12.8274C71.7427 12.7482 71.7184 12.6693 71.6677 12.6079L71.4365 12.799ZM61.1209 21.3222L60.8896 21.5133C60.9403 21.5746 61.0132 21.6133 61.0924 21.6209C61.1717 21.6284 61.2506 21.6042 61.3119 21.5535L61.1209 21.3222ZM56.4323 3.69626L56.5251 3.41097C56.3675 3.35972 56.1982 3.4459 56.147 3.60346L56.4323 3.69626ZM52.3 16.4001L52.0147 16.3073C51.9901 16.383 51.9965 16.4653 52.0326 16.5362C52.0687 16.6071 52.1315 16.6608 52.2072 16.6854L52.3 16.4001ZM56.7088 3.7862L56.9941 3.879C57.0187 3.80333 57.0122 3.72099 56.9761 3.65009C56.94 3.57918 56.8772 3.52552 56.8016 3.50091L56.7088 3.7862ZM52.5765 16.49L52.4837 16.7753C52.6413 16.8266 52.8105 16.7404 52.8618 16.5828L52.5765 16.49ZM66.0684 29.4865L79.2308 27.046L79.1214 26.4561L65.959 28.8966L66.0684 29.4865ZM66.3617 29.4228L66.3087 29.1369L65.7187 29.2462L65.7718 29.5321L66.3617 29.4228ZM79.1744 26.742L66.012 29.1825L66.1214 29.7724L79.2838 27.3319L79.1744 26.742ZM78.8811 26.8058L78.9341 27.0916L79.5241 26.9823L79.471 26.6964L78.8811 26.8058ZM71.0602 12.3436L60.7446 20.8668L61.1267 21.3293L71.4423 12.8061L71.0602 12.3436ZM71.6677 12.6079L71.4825 12.3838L71.02 12.766L71.2052 12.9901L71.6677 12.6079ZM61.3119 21.5535L71.6276 13.0303L71.2454 12.5678L60.9298 21.0909L61.3119 21.5535ZM60.7044 21.2891L60.8896 21.5133L61.3521 21.1311L61.1669 20.907L60.7044 21.2891ZM56.147 3.60346L52.0147 16.3073L52.5853 16.4929L56.7176 3.78905L56.147 3.60346ZM56.8016 3.50091L56.5251 3.41097L56.3395 3.98154L56.616 4.07149L56.8016 3.50091ZM52.8618 16.5828L56.9941 3.879L56.4235 3.6934L52.2912 16.3972L52.8618 16.5828ZM52.2072 16.6854L52.4837 16.7753L52.6693 16.2047L52.3928 16.1148L52.2072 16.6854Z" fill="#1B0B27"/>
<path d="M13.4294 22.0852L12.4269 23.7751C11.8522 24.7439 10.9888 25.5407 9.93878 26.0711L8.10596 26.9951L9.93878 27.9199C10.9883 28.4491 11.8517 29.2444 12.4269 30.2118L13.4294 31.9058L14.4311 30.2118C15.0063 29.2444 15.8696 28.4491 16.9192 27.9199L18.752 26.9951L16.9192 26.0711C15.8691 25.5407 15.0057 24.7439 14.4311 23.7751L13.4294 22.0852Z" fill="#45D7B6"/>
</g>
</g>
<defs>
<clipPath id="clip0">
<rect width="80" height="80" fill="white"/>
</clipPath>
</defs>
</svg>
