<svg width="80" height="80" viewBox="0 0 80 80" fill="none" xmlns="http://www.w3.org/2000/svg">
<g clip-path="url(#clip0)">
<path d="M80 0H0V80H80V0Z" fill="white"/>
<path d="M93.491 -14H-14V93H93.491V-14Z" fill="white"/>
<path d="M39.7455 78.4388C61.3773 78.4388 78.9134 61.0053 78.9134 39.5C78.9134 17.9947 61.3773 0.561157 39.7455 0.561157C18.1137 0.561157 0.577637 17.9947 0.577637 39.5C0.577637 61.0053 18.1137 78.4388 39.7455 78.4388Z" fill="#45D7B6"/>
<mask id="mask0" mask-type="alpha" maskUnits="userSpaceOnUse" x="0" y="0" width="79" height="79">
<path fill-rule="evenodd" clip-rule="evenodd" d="M39.7452 78.7661C61.2957 78.7661 78.7659 61.186 78.7659 39.5C78.7659 17.814 61.2957 0.233948 39.7452 0.233948C18.1947 0.233948 0.724609 17.814 0.724609 39.5C0.724609 61.186 18.1947 78.7661 39.7452 78.7661Z" fill="white"/>
</mask>
<g mask="url(#mask0)">
<path d="M66.2741 70.7875C63.7464 72.2403 60.6247 71.6126 59.3388 69.3886L55.5987 62.9146L55.9811 89.4335H23.97L24.4608 71.2493C23.0079 74.0863 16.5567 74.8719 13.7295 73.4142C10.9024 71.9564 12.9029 73.4804 12.7932 73.4142C10.2163 71.8596 8.80362 69.9849 10.1924 67.2634L20.9562 46.202C21.874 44.4056 23.6165 43.2914 25.4914 43.0951C26.478 42.4423 27.6756 42.0644 28.991 42.0595L49.5861 42.0011C50.8426 41.9961 52.0451 42.3392 53.1004 42.9331C55.26 42.3785 57.508 43.1344 58.5485 44.9357L69.3565 63.6317C70.6376 65.8547 69.6216 68.8635 67.0938 70.3163L66.2741 70.7875Z" fill="#1B0B27"/>
<path d="M24.4609 66.6485L24.72 57.8559" stroke="white" stroke-width="0.490826" stroke-linecap="round"/>
<path fill-rule="evenodd" clip-rule="evenodd" d="M59.8642 72.9216C59.9968 72.9565 60.1244 72.9712 60.252 72.9712C60.869 72.9712 61.4205 72.5928 61.659 72.0051L71.2022 88.8647C71.7225 90.8624 73.6171 92.2666 75.7522 92.0997C76.1007 92.0698 76.4393 92.006 76.7584 91.8985L83.7772 96.0455C84.1649 96.2811 84.5968 96.389 85.019 96.389C85.8435 96.389 86.6485 95.9768 87.1001 95.2209C87.1884 95.0785 87.2571 94.9313 87.3111 94.7791L89.6916 95.1031L96.7939 96.7032C96.946 96.7326 97.0933 96.7523 97.2405 96.7523C98.2271 96.7523 99.3794 96.1044 99.5953 95.1031C99.8309 94.0135 98.929 92.8846 97.8786 92.5606C97.6479 91.4808 96.7546 90.6071 95.6012 90.4501L88.278 89.4291L86.3295 88.7911L86.3393 88.7867L79.6199 83.2889C79.6199 83.2889 72.3507 70.1196 68.3996 63.2387C67.1185 61.0157 64.2423 60.2446 62.009 61.5257L61.2875 61.9429C59.0592 63.2244 58.2837 66.0904 59.5696 68.3138L60.3049 69.6128L55.6137 68.0286L53.1743 67.204C52.6884 66.885 52.1534 66.6199 51.5742 66.4138C51.5595 66.4089 51.5448 66.4035 51.53 66.3986L52.8356 63.1596C53.3117 61.9767 52.7227 60.7148 51.5251 60.3423C50.2735 59.9589 48.8305 60.7055 48.4231 61.9914C48.2873 62.3167 48.1567 62.6393 48.0256 62.9631C47.9767 63.084 47.9277 63.2051 47.8783 63.3265C47.7152 63.661 47.5938 64.0023 47.4759 64.3336C47.1718 65.1886 46.8915 65.977 45.9788 66.4089C45.2573 66.5365 44.5799 66.5758 43.9713 66.5708C43.5394 66.561 43.1418 66.5262 42.7835 66.482L42.7639 66.4776L31.2736 65.6231L15.1696 64.4309C12.0087 64.1948 9.24533 66.5458 9.02937 69.6581C9.01955 69.7858 9.01465 69.9178 9.01465 70.0459C9.01465 72.9908 11.3608 75.5137 14.3892 75.7346L33.1339 77.0348L33.9536 77.0937L45.1984 77.933C45.3603 77.9433 45.5223 77.9526 45.6794 77.9526C45.9395 77.9526 46.1997 77.9379 46.45 77.904L48.1335 78.3207C48.3544 78.3801 48.5753 78.4194 48.801 78.4483L56.1634 79.4251C56.4039 79.5139 56.6542 79.5527 56.8997 79.5527C57.7242 79.5527 58.4801 79.0815 58.7501 78.3114C59.0838 77.3636 58.4605 76.5739 57.469 76.1714L57.7733 76.2347C57.9255 76.2892 58.0825 76.3137 58.2396 76.3137C59.0397 76.3137 59.8103 75.6609 60.0655 74.9291C60.3698 74.0608 59.8446 73.0792 58.8973 72.7454L56.9733 72.1854L59.8642 72.9216ZM56.9733 72.1854L56.2076 71.9896L53.3804 71.273L53.3019 71.2479H53.297L53.2626 71.1645L53.2872 71.111L56.2027 71.9601L56.9733 72.1854ZM57.469 76.1714L55.3241 75.7395L52.3792 75.1456L55.3339 75.7243L57.3267 76.1169C57.3512 76.1267 57.3745 76.1354 57.3978 76.1442C57.4212 76.1529 57.4445 76.1616 57.469 76.1714Z" fill="#D39372"/>
<path fill-rule="evenodd" clip-rule="evenodd" d="M53.1654 53.6824C54.7895 55.977 54.9824 58.8587 53.932 61.2603C51.3149 61.4591 48.661 60.3169 47.0335 58.0169C45.4059 55.7169 45.2091 52.8303 46.2678 50.4297C48.8834 50.2403 51.5378 51.3819 53.1654 53.6824Z" fill="#45D7B6"/>
<path d="M52.7451 67.0737L60.4469 36.0844" stroke="#45D7B6" stroke-width="0.490826" stroke-linejoin="round"/>
<path d="M72.2596 45.8129C68.8572 47.6309 61.9208 51.9826 57.5156 60.4209C56.077 63.1771 54.9553 65.3225 54.0942 67.4955" stroke="#45D7B6" stroke-width="0.490826" stroke-linejoin="round"/>
<path d="M77.1892 60.9245C73.8025 60.7291 65.2911 61.2862 59.3717 64.7608C57.1254 66.0793 56.4662 66.8984 55.4902 68.0357" stroke="#45D7B6" stroke-width="0.490826" stroke-linejoin="round"/>
<path d="M79.8389 65.9305L73.1848 64.8429L70.8003 58.5392L75.0705 53.3232L81.7251 54.4113L84.1091 60.715L79.8389 65.9305Z" fill="white" stroke="#1B0B27" stroke-width="0.490826" stroke-linecap="round" stroke-linejoin="round"/>
<path d="M79.9734 48.3705C80.2802 52.3099 77.3333 55.7521 73.3915 56.0583C69.4501 56.3651 66.0065 53.4202 65.7002 49.4813C65.3934 45.5419 68.3404 42.1002 72.2817 41.7935C76.223 41.4867 79.6667 44.4317 79.9734 48.3705Z" fill="#45D7B6"/>
<path d="M79.9734 48.3705C80.2802 52.3099 77.3333 55.7521 73.3915 56.0583C69.4501 56.3651 66.0065 53.4202 65.7002 49.4813C65.3934 45.5419 68.3404 42.1002 72.2817 41.7935C76.223 41.4867 79.6667 44.4317 79.9734 48.3705Z" stroke="#1B0B27" stroke-width="0.490826" stroke-linecap="round" stroke-linejoin="round"/>
<path d="M79.827 59.4879C79.9311 60.825 78.9313 61.9926 77.5938 62.0962C76.2567 62.2003 75.0881 61.2014 74.984 59.8649C74.88 58.5284 75.8798 57.3602 77.2173 57.2562C78.5548 57.1521 79.723 58.1509 79.827 59.4879Z" fill="#45D7B6"/>
<path d="M79.827 59.4879C79.9311 60.825 78.9313 61.9926 77.5938 62.0962C76.2567 62.2003 75.0881 61.2014 74.984 59.8649C74.88 58.5284 75.8798 57.3602 77.2173 57.2562C78.5548 57.1521 79.723 58.1509 79.827 59.4879Z" stroke="#1B0B27" stroke-width="0.490826" stroke-linecap="round" stroke-linejoin="round"/>
<path d="M51.3097 78.7571L49.853 85.8843" stroke="#45D7B6" stroke-width="0.490826" stroke-linejoin="round"/>
<path d="M50.1748 78.8011L45.3887 87.6601" stroke="#45D7B6" stroke-width="0.490826" stroke-linejoin="round"/>
<path d="M69.1261 36.6718C69.242 38.1246 67.8323 39.2692 67.0745 40.482C66.351 41.6404 66.0275 43.4147 64.7288 44.1338C63.544 44.79 61.8511 44.1765 60.36 44.2953C58.8689 44.4141 57.2948 45.2882 56.0206 44.8283C54.6242 44.3242 54.0234 42.6235 53.1252 41.5943C52.1853 40.5164 50.6122 39.6099 50.4959 38.157C50.3805 36.7037 51.7902 35.5596 52.5475 34.3467C53.271 33.1879 53.5944 31.414 54.8932 30.695C56.0785 30.0388 57.7709 30.6523 59.2625 30.5335C60.7536 30.4142 62.3277 29.5406 63.6014 30.0005C64.9978 30.5045 65.5986 32.2053 66.4968 33.2345C67.4372 34.3119 69.0103 35.2184 69.1261 36.6718Z" fill="#45D7B6" stroke="#1B0B27" stroke-width="0.490826" stroke-linecap="round" stroke-linejoin="round"/>
<path d="M77.9216 49.1284C78.0782 51.1432 76.5709 52.9043 74.5546 53.0619C72.5378 53.2184 70.7757 51.7121 70.6191 49.6963C70.4625 47.6809 71.9699 45.9203 73.9862 45.7633C76.003 45.6062 77.765 47.113 77.9216 49.1284Z" fill="white"/>
<path d="M77.9216 49.1284C78.0782 51.1432 76.5709 52.9043 74.5546 53.0619C72.5378 53.2184 70.7757 51.7121 70.6191 49.6963C70.4625 47.6809 71.9699 45.9203 73.9862 45.7633C76.003 45.6062 77.765 47.113 77.9216 49.1284Z" stroke="#1B0B27" stroke-width="0.490826" stroke-linecap="round" stroke-linejoin="round"/>
<path d="M77.3004 48.2953C77.399 49.5626 76.4513 50.6699 75.1835 50.7681C73.9157 50.8667 72.8079 49.9199 72.7092 48.6531C72.6105 47.3853 73.5583 46.2785 74.8261 46.1798C76.0939 46.0812 77.2017 47.0285 77.3004 48.2953Z" fill="white"/>
<path d="M77.3004 48.2953C77.399 49.5626 76.4513 50.6699 75.1835 50.7681C73.9157 50.8667 72.8079 49.9199 72.7092 48.6531C72.6105 47.3853 73.5583 46.2785 74.8261 46.1798C76.0939 46.0812 77.2017 47.0285 77.3004 48.2953Z" stroke="#1B0B27" stroke-width="0.490826" stroke-linecap="round" stroke-linejoin="round"/>
<path d="M64.0253 35.6316C64.2565 37.0844 62.6176 38.552 60.3652 38.9098C58.1133 39.2676 56.1 38.3807 55.8688 36.9279C55.6381 35.475 57.2765 34.007 59.5289 33.6492C61.7813 33.2913 63.7946 34.1788 64.0253 35.6316Z" fill="white" stroke="#1B0B27" stroke-width="0.490826" stroke-linecap="round" stroke-linejoin="round"/>
<path fill-rule="evenodd" clip-rule="evenodd" d="M64.2213 65.3189C65.9917 66.2996 67.0175 68.1078 67.0872 69.9921C65.4523 70.9379 63.3746 71.0262 61.6003 70.0436C59.826 69.0605 58.7962 67.2508 58.7324 65.3636C60.3693 64.4241 62.447 64.3358 64.2213 65.3189Z" fill="#45D7B6"/>
<path d="M59.2933 72.7518L53.209 71.1266" stroke="#1B0B27" stroke-width="0.490826" stroke-linecap="round" stroke-linejoin="round"/>
<path d="M56.1057 68.028L50.312 66.0873" stroke="#1B0B27" stroke-width="0.490826" stroke-linecap="round" stroke-linejoin="round"/>
<path d="M57.8116 76.1928L51.3096 74.8956" stroke="#1B0B27" stroke-width="0.490826" stroke-linecap="round" stroke-linejoin="round"/>
<path d="M49.1599 33.2322C48.8164 33.5758 48.3452 33.7868 47.82 33.7868H46.2984V34.9746C46.2984 36.8937 45.3757 38.6067 43.9474 39.6915V44.9875C43.9474 46.9459 42.3424 48.5459 40.3889 48.5459C38.4305 48.5459 36.8304 46.9459 36.8304 44.9875V39.7258C35.3776 38.6411 34.4352 36.9134 34.4352 34.9746V33.7868H33.002C31.9614 33.7868 31.1074 32.9328 31.1074 31.8922C31.1074 31.372 31.3233 30.8959 31.6669 30.5523C32.0105 30.2087 32.4817 29.9976 33.002 29.9976H34.4352V29.6933C34.4352 26.4343 37.1053 23.7642 40.3693 23.7642C41.9988 23.7642 43.4811 24.4317 44.556 25.5066C45.6309 26.5815 46.2984 28.0638 46.2984 29.6933V29.9976H47.82C48.8654 29.9976 49.7146 30.8517 49.7146 31.8922C49.7146 32.4125 49.5035 32.8886 49.1599 33.2322Z" fill="#D39372"/>
<path d="M40.2593 40.0107C40.5528 40.1387 41.0991 40.3299 41.8047 40.3132C42.2839 40.3017 42.6874 40.1976 42.9921 40.0846C43.1677 40.0195 43.3105 39.9514 43.416 39.8963" stroke="#1B0B27" stroke-width="0.490826" stroke-linecap="round" stroke-linejoin="round"/>
<path d="M39.4023 33.3068C39.2941 33.2253 39.1402 33.2469 39.0586 33.3552C38.9771 33.4634 38.9988 33.6173 39.107 33.6989L39.4023 33.3068ZM41.5961 33.686C41.6972 33.5957 41.7061 33.4406 41.6158 33.3394C41.5256 33.2383 41.3704 33.2295 41.2693 33.3197L41.5961 33.686ZM39.107 33.6989C39.3318 33.8682 39.7159 34.066 40.1603 34.1243C40.6129 34.1836 41.1345 34.0978 41.5961 33.686L41.2693 33.3197C40.9333 33.6195 40.5627 33.682 40.2241 33.6376C39.8773 33.5921 39.5712 33.434 39.4023 33.3068L39.107 33.6989Z" fill="#1B0B27"/>
<path d="M35.6653 29.0244C35.5589 29.1083 35.5406 29.2626 35.6244 29.3691C35.7083 29.4756 35.8626 29.4939 35.9691 29.41L35.6653 29.0244ZM37.5962 28.8719C37.7274 28.9059 37.8613 28.8272 37.8954 28.6959C37.9294 28.5647 37.8506 28.4308 37.7194 28.3968L37.5962 28.8719ZM35.9691 29.41C36.1217 29.2897 36.396 29.1137 36.7067 28.9896C37.0224 28.8633 37.3393 28.8053 37.5962 28.8719L37.7194 28.3968C37.3137 28.2916 36.879 28.3921 36.5245 28.5338C36.1649 28.6775 35.8502 28.8788 35.6653 29.0244L35.9691 29.41Z" fill="#1B0B27"/>
<path d="M42.8223 27.7191C42.6873 27.7314 42.5879 27.8508 42.6001 27.9858C42.6124 28.1207 42.7318 28.2202 42.8668 28.2079L42.8223 27.7191ZM44.5242 28.644C44.6156 28.744 44.7708 28.751 44.8709 28.6596C44.9709 28.5681 44.9779 28.4129 44.8864 28.3128L44.5242 28.644ZM42.8668 28.2079C43.0603 28.1903 43.3862 28.1923 43.7143 28.2576C44.0478 28.324 44.3451 28.448 44.5242 28.644L44.8864 28.3128C44.6037 28.0035 44.1845 27.8507 43.8101 27.7762C43.4302 27.7006 43.0567 27.6978 42.8223 27.7191L42.8668 28.2079Z" fill="#1B0B27"/>
<path d="M37.6579 31.3051C37.6579 31.7046 37.4826 32.0291 37.2662 32.0291C37.0492 32.0291 36.874 31.7046 36.874 31.3051C36.874 30.9056 37.0492 30.5811 37.2662 30.5811C37.4826 30.5811 37.6579 30.9056 37.6579 31.3051Z" fill="#1B0B27"/>
<path d="M43.966 31.3051C43.966 31.7046 43.7907 32.0291 43.5743 32.0291C43.3578 32.0291 43.1821 31.7046 43.1821 31.3051C43.1821 30.9056 43.3578 30.5811 43.5743 30.5811C43.7907 30.5811 43.966 30.9056 43.966 31.3051Z" fill="#1B0B27"/>
<path fill-rule="evenodd" clip-rule="evenodd" d="M38.8911 35.6C39.7398 35.7144 40.607 35.7522 41.438 35.5681C42.269 35.3836 42.9993 34.9202 43.7621 34.24C43.7621 34.24 44.1395 37.4048 42.11 37.8804C40.8785 38.168 39.6833 37.3542 38.8911 35.6Z" stroke="#1B0B27" stroke-width="0.490826" stroke-linejoin="round"/>
<path d="M60.0826 33.0905C56.7695 33.8268 52.5337 32.9727 50.9679 29.6351C50.271 28.1528 50.1826 26.4742 49.9028 24.8594C49.5936 23.0728 49.0341 21.1242 47.1591 20.6236C45.7406 20.2407 44.116 20.4567 42.9527 21.3304C43.6301 21.2764 44.4498 21.3107 45.1958 21.6445C48.9114 23.3084 50.32 27.7405 50.109 31.3039C49.9225 34.4452 47.371 37.7652 44.3622 39.3314C45.447 38.256 46.1415 36.1257 46.2335 35.19C46.3255 34.2544 46.2335 33.7875 46.2335 33.7875H47.8414C48.3666 33.7875 48.8377 33.5765 49.1813 33.2329C49.5249 32.8893 49.736 32.4132 49.736 31.8929C49.736 30.8524 48.8868 29.9983 47.8414 29.9983H46.3198V29.694C46.3198 28.4964 45.9615 27.3773 45.3431 26.4448C43.0558 26.4791 40.7735 26.5037 38.4862 26.538C37.6376 26.5478 36.2677 26.7491 35.3106 26.646C34.7658 27.5393 34.4566 28.5799 34.4566 29.694V29.9983H33.0233C32.5031 29.9983 32.0319 30.2094 31.6883 30.553C31.3447 30.8966 31.1288 31.3727 31.1288 31.8929C31.1288 32.9335 31.9828 33.7875 33.0233 33.7875H34.4566V34.9753C34.4566 36.4233 34.9817 37.7534 35.8554 38.7841C35.3891 38.6712 34.9425 38.5044 34.5351 38.254C33.2393 37.4589 32.3853 36.1091 31.7668 34.7201C29.9508 30.6659 29.6366 25.3895 32.935 21.9243C34.8492 19.9119 38.1819 19.5143 40.5826 20.8494C40.4741 20.4665 40.3906 20.0739 40.3317 19.6763C40.0569 17.767 40.4054 15.784 41.4508 14.1447C42.4079 12.6378 43.8706 11.4746 45.5885 10.9641C45.8928 10.8709 46.0204 11.347 45.721 11.4353C44.8081 11.7102 43.9639 12.1765 43.2472 12.7998C41.9466 13.9287 41.0876 15.4895 40.8226 17.1878C40.6017 18.5621 40.7686 19.9757 41.2349 21.2764C41.2643 21.296 41.2938 21.3205 41.3232 21.3451C40.9993 17.8357 42.7368 14.2085 45.6768 12.2599C47.272 11.1948 49.2255 10.6156 51.1299 10.8316C53.0392 11.0476 54.87 12.1127 55.8467 13.7667C57.2996 16.2405 56.6468 19.3622 55.9596 22.15C55.2774 24.9379 54.654 28.0792 56.156 30.5235C57.0002 31.9027 58.4825 32.8697 60.0826 33.0905Z" fill="#1B0B27"/>
<path d="M17.0141 19.2267L16.1332 20.8786C15.6253 21.8254 14.8614 22.6035 13.9322 23.1205L12.3115 24.0242L13.9322 24.9279C14.8611 25.4459 15.6249 26.2244 16.1332 27.1712L17.0183 28.8231L17.9049 27.1712C18.4132 26.2244 19.177 25.4459 20.1059 24.9279L21.7266 24.0242L20.1059 23.1205C19.1752 22.6042 18.4097 21.826 17.9007 20.8786L17.0141 19.2267Z" fill="white" stroke="#1B0B27" stroke-width="0.5" stroke-linecap="round" stroke-linejoin="round"/>
</g>
</g>
<defs>
<clipPath id="clip0">
<rect width="80" height="80" fill="white"/>
</clipPath>
</defs>
</svg>
