<svg width="80" height="80" viewBox="0 0 80 80" fill="none" xmlns="http://www.w3.org/2000/svg">
<g clip-path="url(#clip0)">
<path d="M80 0H0V80H80V0Z" fill="white"/>
<path d="M93.491 -14H-14V93H93.491V-14Z" fill="white"/>
<path d="M39.7455 78.4388C61.3773 78.4388 78.9134 61.0053 78.9134 39.5C78.9134 17.9947 61.3773 0.561157 39.7455 0.561157C18.1137 0.561157 0.577637 17.9947 0.577637 39.5C0.577637 61.0053 18.1137 78.4388 39.7455 78.4388Z" fill="#45D7B6"/>
<mask id="mask0" mask-type="alpha" maskUnits="userSpaceOnUse" x="0" y="0" width="79" height="79">
<path fill-rule="evenodd" clip-rule="evenodd" d="M39.7452 78.7661C61.2957 78.7661 78.7659 61.186 78.7659 39.5C78.7659 17.814 61.2957 0.233948 39.7452 0.233948C18.1947 0.233948 0.724609 17.814 0.724609 39.5C0.724609 61.186 18.1947 78.7661 39.7452 78.7661Z" fill="white"/>
</mask>
<g mask="url(#mask0)">
<path fill-rule="evenodd" clip-rule="evenodd" d="M23.0893 44.8333C23.7902 43.3898 25.0369 42.284 26.555 41.7583C27.1999 41.5345 27.8719 41.4235 28.5419 41.4235C29.0344 41.4235 29.5261 41.4835 30.0058 41.6026C30.4259 41.5417 30.8538 41.5104 31.287 41.5104C31.7249 41.5104 32.1691 41.5423 32.6147 41.6086L49.6356 44.1668C50.7932 44.3461 51.8648 44.7389 52.8161 45.2991C53.397 45.532 53.9513 45.8588 54.4565 46.2812L73.1795 62.6056C73.7047 63.0616 74.1469 63.6054 74.4836 64.2131C75.7357 66.4478 75.4515 69.2254 73.7734 71.1612L73.7626 71.1784C71.546 73.6968 67.7063 73.9545 65.1712 71.7556L60.7695 67.9134L54.5054 62.4515L51.0418 70.9663L50.4867 72.3352C50.3735 72.5591 50.252 72.7767 50.1225 72.9877C52.3112 76.5882 53.3829 81.2354 52.8377 86.1593L52.1794 86.0871C50.5532 91.0651 44.1415 94.4686 36.772 93.9399C28.4869 93.3455 22.117 88.0019 22.5572 82.007L22.6758 82.0155C23.1642 78.6927 24.346 75.6778 26.0112 73.1773C25.2355 72.4055 24.6018 71.4967 24.1467 70.4945L23.2041 72.4413C21.7474 75.4427 18.128 76.6987 15.1193 75.2454C12.111 73.7655 10.8559 70.1462 12.3044 67.1276L23.0893 44.8333Z" fill="white"/>
<path fill-rule="evenodd" clip-rule="evenodd" d="M14.4571 74.7083C17.3088 76.3766 20.666 75.6261 21.9225 73.0444C23.1742 70.4573 21.8635 66.9729 19.0168 65.3036L-2.16232 52.8906C-2.43718 52.7286 -2.72186 52.5917 -3.00654 52.4739C-3.01636 52.2771 -3.03599 52.0758 -3.06544 51.8746C-3.3354 50.0149 -4.2876 48.3701 -5.66682 47.2068C-5.65209 47.119 -5.64718 47.0306 -5.64718 46.9374C-5.64718 46.8387 -5.65209 46.741 -5.66682 46.6424L-7.45342 34.333C-7.61539 33.2483 -8.62159 32.4924 -9.71122 32.649L-9.72594 32.6539C-9.72594 32.6514 -9.72594 32.6502 -9.72656 32.6496C-9.72717 32.649 -9.7284 32.649 -9.73085 32.649C-10.8155 32.8109 -11.5714 33.8176 -11.4094 34.9072L-10.5358 40.9199L-12.1555 36.63C-12.5432 35.6042 -13.6918 35.0839 -14.7176 35.4663C-15.7434 35.854 -16.2638 36.9982 -15.876 38.0235L-13.5691 44.1441L-15.3311 43.5845C-15.606 43.5016 -15.8957 43.482 -16.1804 43.5212C-16.2491 43.5306 -16.3128 43.5453 -16.3766 43.5649C-16.8036 43.5801 -17.211 43.7274 -17.5398 43.9875L-22.3402 47.7026C-23.1992 48.3902 -23.3512 49.6413 -22.6739 50.5057C-21.9867 51.3695 -20.7303 51.5168 -19.8665 50.8345L-15.7434 47.654C-15.6262 47.5652 -14.7994 47.88 -14.2715 48.081C-14.07 48.1577 -13.912 48.2179 -13.8537 48.2327C-12.9408 48.4732 -12.1358 49.0185 -11.5665 49.7744C-11.0119 50.4856 -10.7664 51.3892 -10.8941 52.282C-11.2327 54.2311 -13.3531 55.2711 -15.125 55.3889C-16.8937 55.5064 -18.1494 54.1987 -19.3019 52.9986C-19.5023 52.7899 -19.6996 52.5845 -19.8959 52.3905C-20.5045 51.772 -21.442 51.61 -22.2224 51.9973C-22.9979 52.3855 -23.4348 53.2347 -23.3022 54.0887C-23.2433 54.5108 -23.047 54.903 -22.7427 55.2024C-22.2993 55.6403 -21.8592 56.1314 -21.4102 56.6325C-20.2885 57.8842 -19.1117 59.1975 -17.6921 59.8947C-15.7043 60.8714 -13.5838 61.5493 -11.3358 61.2788C-10.4376 61.1713 -9.54925 60.9303 -8.70012 60.5725C-8.17494 61.2445 -7.51232 61.8388 -6.73191 62.2953L14.4571 74.7083ZM74.5988 64.7925C76.1218 66.934 75.7645 69.8795 73.7732 71.5964C73.6603 71.696 73.5455 71.7878 73.4223 71.8766L71.5753 73.195L55.2076 84.8712L59.0077 91.7855C59.554 92.7858 59.1893 94.0394 58.1905 94.592C58.08 94.6505 57.9657 94.7005 57.8479 94.7422L58.2031 95.3793C58.7489 96.3811 58.3823 97.6347 57.382 98.1859C56.3841 98.7312 55.1375 98.5191 54.5882 97.5213L50.4137 89.5689L55.2416 98.7695C55.7501 99.7865 55.2135 101.181 54.1946 101.689C53.1712 102.195 51.9295 101.782 51.4161 100.763C51.3012 100.534 51.0918 100.109 50.8153 99.5478C49.2641 96.3983 45.6024 88.9642 44.6889 87.8815C43.6455 86.6456 42.8034 87.0888 41.7506 87.643C41.4959 87.7771 41.2289 87.9176 40.9437 88.0425L36.1995 90.4097C35.1825 90.9118 33.9501 90.4991 33.4435 89.486C32.9365 88.4734 33.3458 87.2424 34.3588 86.7329C34.9916 86.4144 35.6384 86.1091 36.2863 85.8032C37.5471 85.2079 38.8124 84.6105 39.9887 83.9092C40.8204 83.4149 41.51 82.6588 42.2036 81.8983C42.6029 81.4604 43.0035 81.0212 43.4333 80.6295C43.5996 80.4778 43.7773 80.3121 43.9651 80.1372C45.3828 78.8168 47.3688 76.9671 49.2437 76.564L60.7628 68.3466L67.4646 63.566C69.7116 61.9669 72.8264 62.4459 74.4859 64.6463C74.5124 64.6772 74.5374 64.7101 74.5605 64.744L74.5988 64.7925Z" fill="#D39372"/>
<path fill-rule="evenodd" clip-rule="evenodd" d="M-10.4414 40.7525C-10.315 40.7035 -10.1728 40.7663 -10.1239 40.8927L-8.24927 45.7306C-8.2003 45.857 -8.26305 45.9991 -8.38943 46.0481C-8.51582 46.0971 -8.65797 46.0343 -8.70694 45.9079L-10.5815 41.07C-10.6305 40.9436 -10.5677 40.8015 -10.4414 40.7525ZM-16.008 45.6771C-16.0768 45.5604 -16.2273 45.5216 -16.344 45.5904C-16.4608 45.6593 -16.4996 45.8098 -16.4307 45.9265L-16.0798 46.5212L-15.9335 47.4575C-15.9126 47.5914 -15.7871 47.683 -15.6532 47.6621C-15.5193 47.6411 -15.4277 47.5156 -15.4486 47.3817L-15.6021 46.3991C-15.6069 46.3684 -15.6174 46.339 -15.6332 46.3122L-16.008 45.6771ZM54.4204 88.0544C54.5641 87.9783 54.7423 88.0332 54.8184 88.1769L58.1521 94.4757C58.2282 94.6194 58.1733 94.7976 58.0296 94.8737C57.8858 94.9498 57.7076 94.895 57.6315 94.7512L54.2978 88.4524C54.2217 88.3087 54.2766 88.1305 54.4204 88.0544ZM50.1915 89.1152C50.3355 89.0395 50.5135 89.0949 50.5892 89.2389L55.0734 97.7739C55.149 97.9179 55.0936 98.0959 54.9496 98.1716C54.8056 98.2472 54.6276 98.1918 54.5519 98.0478L50.0678 89.5129C49.9921 89.3689 50.0475 89.1908 50.1915 89.1152ZM-13.5272 43.8626C-13.6497 43.8044 -13.796 43.8566 -13.8542 43.979C-13.9123 44.1015 -13.8601 44.2479 -13.7377 44.306L-13.0395 44.6374L-8.71137 47.1702C-8.59439 47.2387 -8.44407 47.1993 -8.37561 47.0824C-8.30716 46.9654 -8.34649 46.8151 -8.46347 46.7466L-12.8008 44.2084C-12.8069 44.2048 -12.8131 44.2015 -12.8195 44.1985L-13.5272 43.8626Z" fill="#1B0B27"/>
<path d="M51.5562 74.9315C55.5485 75.6941 57.5946 79.0667 57.8028 83.0301L62.5998 79.5637C62.525 77.6859 61.7501 75.4909 60.4969 74.0639C59.0856 72.4125 57.891 71.9588 56.0656 71.6798L51.5562 74.9315Z" fill="#1B0B27"/>
<path d="M54.3081 76.0277C54.3081 78.2983 56.1521 80.1389 58.4281 80.1389C60.7036 80.1389 62.5481 78.2983 62.5481 76.0277C62.5481 73.7572 60.7036 71.9166 58.4281 71.9166C56.1521 71.9166 54.3081 73.7572 54.3081 76.0277Z" fill="#45D7B6" stroke="#1B0B27" stroke-width="0.490826" stroke-linecap="round" stroke-linejoin="round"/>
<path d="M58.0933 78.0596L58.9257 75.4896L61.3215 76.4811" stroke="#1B0B27" stroke-width="0.490826" stroke-linecap="round" stroke-linejoin="round"/>
<path fill-rule="evenodd" clip-rule="evenodd" d="M23.6279 52.41C23.6224 52.2746 23.5081 52.1693 23.3727 52.1748C23.2373 52.1803 23.1319 52.2945 23.1374 52.4299L23.8791 70.7191C23.8846 70.8545 23.9988 70.9598 24.1342 70.9543C24.2697 70.9488 24.375 70.8346 24.3695 70.6992L23.6279 52.41ZM48.4214 56.3932C48.3192 56.3042 48.1642 56.3148 48.0751 56.4169C47.986 56.5191 47.9966 56.6741 48.0988 56.7632L55.818 63.4939C55.9202 63.583 56.0752 63.5724 56.1643 63.4702C56.2533 63.368 56.2427 63.213 56.1406 63.1239L48.4214 56.3932Z" fill="#1B0B27"/>
<path d="M54.225 40.7271L27.1069 37.2299C27.475 34.285 28.2722 30.6748 29.745 27.168C32.3219 21.0327 34.8374 16.6767 44.7766 18.0264C54.1147 19.2945 54.3477 33.1193 54.225 40.7271Z" fill="#BEBDBD"/>
<path d="M46.107 32.0275L46.0383 32.7146C45.8567 34.5694 44.8996 36.1646 43.5204 37.2052L43.7069 44.3374C43.7417 46.1976 42.254 47.7383 40.3791 47.7825L40.0944 47.7928C38.2199 47.8271 36.664 46.3547 36.6144 44.489L36.4427 37.7309C34.2241 36.548 32.8209 34.1135 33.0756 31.4532V31.4483L33.6499 25.5976C33.6842 25.0122 33.3728 25.4436 35.7528 25.2152C38.1327 24.9868 38.8828 23.7747 38.8828 23.7747C39.7333 24.3967 40.5342 24.9401 41.4632 25.3887C42.8032 26.0359 46.4084 26.6877 46.4084 26.6877L46.5144 27.8795L47.015 28.0022C48.1292 28.2918 48.7923 29.4212 48.4973 30.5255C48.2225 31.5803 47.1672 32.2287 46.107 32.0275Z" fill="#D39372"/>
<path d="M38.4382 31.1348L36.519 30.5134C36.519 30.5134 38.6124 27.1369 38.5113 27.295L38.6922 27.0254" stroke="#1B0B27" stroke-width="0.490826" stroke-linecap="round" stroke-linejoin="round"/>
<path fill-rule="evenodd" clip-rule="evenodd" d="M36.8037 32.9387C36.8071 33.7961 37.2852 34.6052 38.048 35.0062C38.8289 35.3822 39.7644 35.2168 40.3671 34.5964C40.8354 34.0801 40.9571 33.3409 41.0611 32.6503C41.1058 32.347 40.8226 32.7028 40.749 32.7617C40.5944 32.8829 40.4285 32.9894 40.2532 33.0793C39.9028 33.2599 39.5248 33.3806 39.1337 33.4366C38.3292 33.5578 37.4938 33.317 36.8037 32.888V32.9387Z" stroke="#1B0B27" stroke-width="0.490826" stroke-linejoin="round"/>
<path d="M40.9166 28.091C40.8513 28.519 40.9892 28.8955 41.2238 28.9303C41.4594 28.9656 41.7029 28.6476 41.7682 28.2196C41.8334 27.7911 41.696 27.4151 41.4604 27.3798C41.4486 27.3778 41.4364 27.3773 41.4246 27.3773C41.2013 27.3773 40.9784 27.6846 40.9166 28.091Z" fill="#1B0B27"/>
<path d="M34.8807 27.5256C34.7938 27.9491 34.9111 28.3315 35.1453 28.3786C35.3774 28.4252 35.6371 28.1204 35.7239 27.6964C35.8113 27.2723 35.693 26.8909 35.4594 26.8438C35.4437 26.8404 35.4275 26.8389 35.4113 26.8389C35.1924 26.8389 34.9617 27.1309 34.8807 27.5256Z" fill="#1B0B27"/>
<path d="M36.0709 25.6935C35.6208 25.7028 35.184 25.8476 34.8188 26.1097" stroke="#1B0B27" stroke-width="0.490826" stroke-linecap="round" stroke-linejoin="round"/>
<path d="M43.0573 27.3074C42.7177 26.7866 42.1964 26.4092 41.5942 26.2462" stroke="#1B0B27" stroke-width="0.490826" stroke-linecap="round" stroke-linejoin="round"/>
<path fill-rule="evenodd" clip-rule="evenodd" d="M43.946 22.6171L43.9411 22.6197C43.5313 22.8086 43.352 23.2942 43.5413 23.7042L43.5499 23.7232C43.7383 24.1309 44.2207 24.3107 44.6297 24.1247L47.9873 22.6024C47.9885 22.6017 47.9902 22.6012 47.9919 22.6007C48.4024 22.4111 48.5806 21.9256 48.3918 21.5158L48.3836 21.4974C48.1948 21.0891 47.7123 20.9098 47.3036 21.0948L43.946 22.6171Z" stroke="#1B0B27" stroke-width="0.490826" stroke-linejoin="round"/>
<path d="M39.3673 23.7747C38.474 22.8666 37.7613 21.7991 37.2681 20.6275" stroke="white" stroke-width="0.490826" stroke-linecap="round" stroke-linejoin="round"/>
<path d="M38.7334 38.1134C39.6304 38.3812 40.6438 38.2567 41.2333 38.1134C42.4829 37.8098 43.3349 37.1363 43.7332 36.8004" stroke="#1B0B27" stroke-width="0.490826" stroke-linecap="round" stroke-linejoin="round"/>
<path d="M12.0111 31.1814L11.3063 32.5029C10.9 33.2603 10.2889 33.8828 9.54559 34.2964L8.24902 35.0194L9.54559 35.7423C10.2887 36.1567 10.8998 36.7795 11.3063 37.537L12.0145 38.8585L12.7238 37.537C13.1303 36.7795 13.7414 36.1567 14.4845 35.7423L15.7811 35.0194L14.4845 34.2964C13.7399 33.8833 13.1276 33.2608 12.7204 32.5029L12.0111 31.1814Z" fill="white"/>
<path d="M65.1303 57.9381H64.6303C64.6303 58.2143 64.8542 58.4381 65.1303 58.4381V57.9381ZM65.1303 49.8417H65.6303C65.6303 49.7091 65.5776 49.5819 65.4839 49.4882C65.3901 49.3944 65.2629 49.3417 65.1303 49.3417V49.8417ZM66.1303 57.9381V58.4381C66.4065 58.4381 66.6303 58.2143 66.6303 57.9381H66.1303ZM66.1303 49.8417V49.3417C65.8542 49.3417 65.6303 49.5656 65.6303 49.8417H66.1303ZM73.8177 49.8417V50.3417C74.0938 50.3417 74.3177 50.1179 74.3177 49.8417H73.8177ZM73.8177 48.8417H74.3177C74.3177 48.7091 74.265 48.5819 74.1712 48.4882C74.0775 48.3944 73.9503 48.3417 73.8177 48.3417V48.8417ZM66.1303 48.8417H65.6303C65.6303 48.9743 65.683 49.1015 65.7768 49.1953C65.8705 49.289 65.9977 49.3417 66.1303 49.3417V48.8417ZM66.1303 41.0743H66.6303C66.6303 40.7982 66.4065 40.5743 66.1303 40.5743V41.0743ZM65.1303 41.0743V40.5743C64.8542 40.5743 64.6303 40.7982 64.6303 41.0743H65.1303ZM65.1303 48.8417V49.3417C65.4065 49.3417 65.6303 49.1179 65.6303 48.8417H65.1303ZM56.2744 48.8417V48.3417C56.1418 48.3417 56.0147 48.3944 55.9209 48.4882C55.8271 48.5819 55.7744 48.7091 55.7744 48.8417H56.2744ZM56.2744 49.8417H55.7744C55.7744 50.1179 55.9983 50.3417 56.2744 50.3417V49.8417ZM65.6303 57.9381V49.8417H64.6303V57.9381H65.6303ZM66.1303 57.4381H65.1303V58.4381H66.1303V57.4381ZM65.6303 49.8417V57.9381H66.6303V49.8417H65.6303ZM73.8177 49.3417H66.1303V50.3417H73.8177V49.3417ZM73.3177 48.8417V49.8417H74.3177V48.8417H73.3177ZM66.1303 49.3417H73.8177V48.3417H66.1303V49.3417ZM65.6303 41.0743V48.8417H66.6303V41.0743H65.6303ZM65.1303 41.5743H66.1303V40.5743H65.1303V41.5743ZM65.6303 48.8417V41.0743H64.6303V48.8417H65.6303ZM56.2744 49.3417H65.1303V48.3417H56.2744V49.3417ZM56.7744 49.8417V48.8417H55.7744V49.8417H56.7744ZM65.1303 49.3417H56.2744V50.3417H65.1303V49.3417Z" fill="white"/>
<path d="M4.36758 8.12233L4.43542 8.0542C4.39779 8.01673 4.33691 8.01686 4.29944 8.05449L4.36758 8.12233ZM11.3138 15.0384L11.3819 15.1062C11.3999 15.0882 11.41 15.0637 11.4099 15.0382C11.4099 15.0127 11.3997 14.9883 11.3816 14.9703L11.3138 15.0384ZM4.23189 8.25861L4.16375 8.19077C4.14576 8.20884 4.13568 8.23332 4.13574 8.25882C4.13579 8.28432 4.14598 8.30876 4.16405 8.32675L4.23189 8.25861ZM11.1781 15.1747L11.1103 15.2428C11.1479 15.2803 11.2088 15.2802 11.2462 15.2425L11.1781 15.1747ZM10.2724 8.12233L10.3402 8.0542C10.3026 8.01673 10.2417 8.01686 10.2043 8.05449L10.2724 8.12233ZM17.2186 15.0384L17.2867 15.1062C17.3047 15.0882 17.3148 15.0637 17.3147 15.0382C17.3147 15.0127 17.3045 14.9883 17.2864 14.9703L17.2186 15.0384ZM10.1367 8.25861L10.0686 8.19077C10.0506 8.20884 10.0405 8.23332 10.0406 8.25882C10.0406 8.28432 10.0508 8.30876 10.0689 8.32675L10.1367 8.25861ZM17.0829 15.1747L17.015 15.2428C17.0527 15.2803 17.1135 15.2802 17.151 15.2425L17.0829 15.1747ZM23.1233 15.0384L23.1915 15.1062C23.2095 15.0882 23.2195 15.0637 23.2195 15.0382C23.2194 15.0127 23.2092 14.9883 23.1912 14.9703L23.1233 15.0384ZM16.1772 8.12233L16.245 8.0542C16.2074 8.01673 16.1465 8.01686 16.109 8.05449L16.1772 8.12233ZM22.9876 15.1747L22.9198 15.2428C22.9574 15.2803 23.0183 15.2802 23.0558 15.2425L22.9876 15.1747ZM16.0415 8.25861L15.9733 8.19077C15.9553 8.20884 15.9453 8.23332 15.9453 8.25882C15.9454 8.28432 15.9556 8.30876 15.9736 8.32675L16.0415 8.25861ZM22.083 8.12233L22.1509 8.0542C22.1328 8.0362 22.1083 8.02613 22.0828 8.02618C22.0573 8.02624 22.0329 8.03642 22.0149 8.05449L22.083 8.12233ZM29.0292 15.0384L29.0973 15.1062C29.1153 15.0882 29.1254 15.0637 29.1253 15.0382C29.1253 15.0127 29.1151 14.9883 29.097 14.9703L29.0292 15.0384ZM21.9473 8.25861L21.8792 8.19077C21.8417 8.2284 21.8419 8.28928 21.8795 8.32675L21.9473 8.25861ZM28.8935 15.1747L28.8256 15.2428C28.8633 15.2803 28.9241 15.2802 28.9616 15.2425L28.8935 15.1747ZM4.29974 8.19047L11.2459 15.1065L11.3816 14.9703L4.43542 8.0542L4.29974 8.19047ZM4.30003 8.32645L4.43572 8.19018L4.29944 8.05449L4.16375 8.19077L4.30003 8.32645ZM11.2459 15.1065L4.29974 8.19047L4.16405 8.32675L11.1103 15.2428L11.2459 15.1065ZM11.2456 14.9706L11.11 15.1068L11.2462 15.2425L11.3819 15.1062L11.2456 14.9706ZM10.2046 8.19047L17.1507 15.1065L17.2864 14.9703L10.3402 8.0542L10.2046 8.19047ZM10.2049 8.32645L10.3405 8.19018L10.2043 8.05449L10.0686 8.19077L10.2049 8.32645ZM17.1507 15.1065L10.2046 8.19047L10.0689 8.32675L17.015 15.2428L17.1507 15.1065ZM17.1504 14.9706L17.0147 15.1068L17.151 15.2425L17.2867 15.1062L17.1504 14.9706ZM23.1912 14.9703L16.245 8.0542L16.1093 8.19047L23.0555 15.1065L23.1912 14.9703ZM23.0558 15.2425L23.1915 15.1062L23.0552 14.9706L22.9195 15.1068L23.0558 15.2425ZM15.9736 8.32675L22.9198 15.2428L23.0555 15.1065L16.1093 8.19047L15.9736 8.32675ZM16.109 8.05449L15.9733 8.19077L16.1096 8.32645L16.2453 8.19018L16.109 8.05449ZM22.0152 8.19047L28.9613 15.1065L29.097 14.9703L22.1509 8.0542L22.0152 8.19047ZM22.0155 8.32645L22.1512 8.19018L22.0149 8.05449L21.8792 8.19077L22.0155 8.32645ZM28.9613 15.1065L22.0152 8.19047L21.8795 8.32675L28.8256 15.2428L28.9613 15.1065ZM28.961 14.9706L28.8253 15.1068L28.9616 15.2425L29.0973 15.1062L28.961 14.9706Z" fill="#1B0B27"/>
</g>
</g>
<defs>
<clipPath id="clip0">
<rect width="80" height="80" fill="white"/>
</clipPath>
</defs>
</svg>
