<svg width="80" height="80" viewBox="0 0 80 80" fill="none" xmlns="http://www.w3.org/2000/svg">
<g clip-path="url(#clip0)">
<path d="M80 0H0V80H80V0Z" fill="white"/>
<path d="M93.491 -14H-14V93H93.491V-14Z" fill="white"/>
<path d="M39.7455 78.4388C61.3773 78.4388 78.9134 61.0053 78.9134 39.5C78.9134 17.9947 61.3773 0.561157 39.7455 0.561157C18.1137 0.561157 0.577637 17.9947 0.577637 39.5C0.577637 61.0053 18.1137 78.4388 39.7455 78.4388Z" fill="white" stroke="#BEBDBD"/>
<path d="M-2.22021 -2.22015V-3.22015H-3.22021V-2.22015H-2.22021ZM81.711 -2.22015H82.711V-3.22015H81.711V-2.22015ZM81.711 81.2202V82.2202H82.711V81.2202H81.711ZM-2.22021 81.2202H-3.22021V82.2202H-2.22021V81.2202ZM-2.22021 -1.22015H81.711V-3.22015H-2.22021V-1.22015ZM80.711 -2.22015V81.2202H82.711V-2.22015H80.711ZM81.711 80.2202H-2.22021V82.2202H81.711V80.2202ZM-1.22021 81.2202V-2.22015H-3.22021V81.2202H-1.22021Z" fill="#BEBDBD"/>
<mask id="mask0" mask-type="alpha" maskUnits="userSpaceOnUse" x="0" y="0" width="79" height="79">
<path fill-rule="evenodd" clip-rule="evenodd" d="M39.7452 78.7661C61.2957 78.7661 78.7659 61.186 78.7659 39.5C78.7659 17.814 61.2957 0.233948 39.7452 0.233948C18.1947 0.233948 0.724609 17.814 0.724609 39.5C0.724609 61.186 18.1947 78.7661 39.7452 78.7661Z" fill="white"/>
</mask>
<g mask="url(#mask0)">
<path fill-rule="evenodd" clip-rule="evenodd" d="M74.0112 75.2305C74.0112 75.2305 80.4278 75.7292 81.9086 68.7468C83.3894 61.7645 77.9599 55.2808 77.9599 55.2808" fill="white"/>
<path fill-rule="evenodd" clip-rule="evenodd" d="M74.0112 75.2305C74.0112 75.2305 80.4278 75.7292 81.9086 68.7468C83.3894 61.7645 77.9599 55.2808 77.9599 55.2808" fill="url(#paint0_linear)"/>
<path d="M74.0112 75.2305C74.0112 75.2305 80.4278 75.7292 81.9086 68.7468C83.3894 61.7645 77.9599 55.2808 77.9599 55.2808" stroke="#1B0B27" stroke-width="0.490826" stroke-linecap="round"/>
<path fill-rule="evenodd" clip-rule="evenodd" d="M-0.0576172 79.3313C-0.0576172 79.3313 2.88734 84.2396 10.7405 83.7488C18.5937 83.258 19.0846 77.368 19.0846 77.368" fill="white"/>
<path fill-rule="evenodd" clip-rule="evenodd" d="M-0.0576172 79.3313C-0.0576172 79.3313 2.88734 84.2396 10.7405 83.7488C18.5937 83.258 19.0846 77.368 19.0846 77.368" fill="url(#paint1_linear)"/>
<path d="M-0.0576172 79.3313C-0.0576172 79.3313 2.88734 84.2396 10.7405 83.7488C18.5937 83.258 19.0846 77.368 19.0846 77.368" stroke="#1B0B27" stroke-width="0.490826" stroke-linecap="round" stroke-linejoin="round"/>
<path fill-rule="evenodd" clip-rule="evenodd" d="M91.2751 35.2323L92.9047 24.7169C93.0843 23.6655 93.9742 22.9224 94.9868 22.9224C95.079 22.9224 95.1718 22.9288 95.2651 22.9411L95.4324 22.9612C95.9674 23.0216 96.4583 23.3038 96.7871 23.7411C97.116 24.1789 97.2529 24.737 97.1749 25.2804L96.0258 32.6403L99.6334 25.2151C100.154 24.1789 101.371 23.7411 102.407 24.2192L102.563 24.2899C103.05 24.5112 103.428 24.9333 103.609 25.4467C103.79 25.9651 103.756 26.5383 103.52 27.0262L99.3198 35.6795L103.565 31.212C104.36 30.3864 105.651 30.3417 106.5 31.1163L106.623 31.2316C107.02 31.5997 107.251 32.118 107.266 32.6663C107.285 33.2141 107.079 33.7476 106.701 34.1353L100.409 40.761C100.129 42.2752 99.359 43.6387 98.2297 44.6395L82.8673 70.3121C78.5039 77.1351 69.6489 71.0822 72.6036 64.0291L86.8528 40.2172C86.7694 39.2115 86.9068 38.195 87.2646 37.2594L85.4535 29.6369C85.3258 29.0695 85.4289 28.4751 85.7332 27.9877C86.0375 27.4989 86.5239 27.1573 87.0786 27.037C88.2369 26.7602 89.4051 27.4788 89.7094 28.6558L91.2751 35.2323ZM8.73448 70.1752C9.81429 69.0237 11.2966 68.3596 12.8574 68.3243C12.8878 68.3238 12.9183 68.3238 12.9487 68.3238C16.1665 68.3238 18.8072 70.9311 18.8995 74.2206L17.0196 91.9458V92.1976C16.9641 92.3816 16.9097 92.5759 16.8534 92.7771C16.2657 94.8765 15.4648 97.7375 10.9859 97.7375C6.07764 97.7375 5.25943 93.193 5.22998 92.1868L7.10543 74.4626C7.07058 72.8679 7.65957 71.3277 8.73448 70.1752Z" fill="#EDB59D"/>
<path fill-rule="evenodd" clip-rule="evenodd" d="M21.7841 100.191H38.4722H57.1235L60.3139 65.0974C60.3139 65.0974 70.6213 72.9506 73.5662 74.9139C71.6029 68.0423 73.0754 61.6616 77.9836 55.2808C75.0387 53.8084 61.6985 46.0464 61.6985 46.0464C58.2024 44.3703 54.3744 43.501 50.4974 43.501H32.0929C27.5263 43.501 22.2739 44.4778 17.8531 46.5662C14.6676 48.0711 12.0864 50.6111 10.4318 53.721C10.4318 53.721 2.88734 66.079 -0.0576172 78.8405C11.2313 71.9689 19.0846 77.368 19.0846 77.368L18.1029 64.6065L21.7841 100.191Z" fill="white"/>
<path fill-rule="evenodd" clip-rule="evenodd" d="M21.7841 100.191H38.4722H57.1235L60.3139 65.0974C60.3139 65.0974 70.6213 72.9506 73.5662 74.9139C71.6029 68.0423 73.0754 61.6616 77.9836 55.2808C75.0387 53.8084 61.6985 46.0464 61.6985 46.0464C58.2024 44.3703 54.3744 43.501 50.4974 43.501H32.0929C27.5263 43.501 22.2739 44.4778 17.8531 46.5662C14.6676 48.0711 12.0864 50.6111 10.4318 53.721C10.4318 53.721 2.88734 66.079 -0.0576172 78.8405C11.2313 71.9689 19.0846 77.368 19.0846 77.368L18.1029 64.6065L21.7841 100.191Z" fill="url(#paint2_linear)"/>
<path fill-rule="evenodd" clip-rule="evenodd" d="M21.7841 100.191H38.4722H57.1235L60.3139 65.0974C60.3139 65.0974 70.6213 72.9506 73.5662 74.9139C71.6029 68.0423 73.0754 61.6616 77.9836 55.2808C75.0387 53.8084 61.6985 46.0464 61.6985 46.0464C58.2024 44.3703 54.3744 43.501 50.4974 43.501H32.0929C27.5263 43.501 22.2739 44.4778 17.8531 46.5662C14.6676 48.0711 12.0864 50.6111 10.4318 53.721C10.4318 53.721 2.88734 66.079 -0.0576172 78.8405C11.2313 71.9689 19.0846 77.368 19.0846 77.368L18.1029 64.6065L21.7841 100.191Z" stroke="#1B0B27" stroke-width="0.490826" stroke-linecap="round"/>
<path fill-rule="evenodd" clip-rule="evenodd" d="M21.7841 100.191H38.4722H57.1235L60.3139 65.0974C60.3139 65.0974 70.6213 72.9506 73.5662 74.9139C71.6029 68.0423 73.0754 61.6616 77.9836 55.2808C75.0387 53.8084 61.6985 46.0464 61.6985 46.0464C58.2024 44.3703 54.3744 43.501 50.4974 43.501H32.0929C27.5263 43.501 22.2739 44.4778 17.8531 46.5662C14.6676 48.0711 12.0864 50.6111 10.4318 53.721C10.4318 53.721 2.88734 66.079 -0.0576172 78.8405C11.2313 71.9689 19.0846 77.368 19.0846 77.368L18.1029 64.6065L21.7841 100.191Z" fill="white"/>
<path fill-rule="evenodd" clip-rule="evenodd" d="M21.7841 100.191H38.4722H57.1235L60.3139 65.0974C60.3139 65.0974 70.6213 72.9506 73.5662 74.9139C71.6029 68.0423 73.0754 61.6616 77.9836 55.2808C75.0387 53.8084 61.6985 46.0464 61.6985 46.0464C58.2024 44.3703 54.3744 43.501 50.4974 43.501H32.0929C27.5263 43.501 22.2739 44.4778 17.8531 46.5662C14.6676 48.0711 12.0864 50.6111 10.4318 53.721C10.4318 53.721 2.88734 66.079 -0.0576172 78.8405C11.2313 71.9689 19.0846 77.368 19.0846 77.368L18.1029 64.6065L21.7841 100.191Z" fill="url(#paint3_linear)"/>
<path fill-rule="evenodd" clip-rule="evenodd" d="M21.7841 100.191H38.4722H57.1235L60.3139 65.0974C60.3139 65.0974 70.6213 72.9506 73.5662 74.9139C71.6029 68.0423 73.0754 61.6616 77.9836 55.2808C75.0387 53.8084 61.6985 46.0464 61.6985 46.0464C58.2024 44.3703 54.3744 43.501 50.4974 43.501H32.0929C27.5263 43.501 22.2739 44.4778 17.8531 46.5662C14.6676 48.0711 12.0864 50.6111 10.4318 53.721C10.4318 53.721 2.88734 66.079 -0.0576172 78.8405C11.2313 71.9689 19.0846 77.368 19.0846 77.368L18.1029 64.6065L21.7841 100.191Z" stroke="#1B0B27" stroke-width="0.490826" stroke-linecap="round" stroke-linejoin="round"/>
<path fill-rule="evenodd" clip-rule="evenodd" d="M48.7793 62.8886C48.7793 66.1413 46.1421 68.7785 42.8894 68.7785C39.6367 68.7785 36.9995 66.1413 36.9995 62.8886C36.9995 59.6359 39.6367 56.9987 42.8894 56.9987C46.1421 56.9987 48.7793 59.6359 48.7793 62.8886Z" fill="#45D7B6"/>
<path d="M48.7793 62.8886C48.7793 66.1413 46.1421 68.7785 42.8894 68.7785C39.6367 68.7785 36.9995 66.1413 36.9995 62.8886C36.9995 59.6359 39.6367 56.9987 42.8894 56.9987C46.1421 56.9987 48.7793 59.6359 48.7793 62.8886Z" stroke="#1B0B27" stroke-width="0.490826" stroke-linecap="round"/>
<path fill-rule="evenodd" clip-rule="evenodd" d="M57.369 62.8383L52.1353 64.4845L54.6709 69.3515L49.8044 66.8154L48.1581 72.0491L46.5119 66.8154L41.6454 69.3515L44.1815 64.4845L38.9473 62.8383L44.1815 61.192L41.6454 56.325L46.5119 58.8611L48.1581 53.6274L49.8044 58.8611L54.6714 56.3255L52.1353 61.192L57.369 62.8383Z" stroke="#1B0B27" stroke-width="0.490826" stroke-linecap="round" stroke-linejoin="round"/>
<path d="M40.329 19.565C40.329 17.7266 38.8436 16.2359 37.011 16.2359C35.1784 16.2359 33.693 17.7266 33.693 19.565C33.693 20.1613 33.8494 20.7211 34.1233 21.2045C33.3067 21.6071 32.5535 22.1971 31.9019 23.0046C30.5432 24.6868 29.8997 27.0964 27.9643 28.0568C26.8491 28.6111 25.6091 28.5292 24.3461 28.3707L23.4131 28.2486C22.3054 28.1074 21.1992 28.0124 20.1622 28.3364C18.3852 28.891 17.2323 30.5206 16.0035 31.944L15.7479 32.2351C14.4195 33.7197 11.7288 34.5664 10.5415 34.2004C11.5512 37.0964 16.7933 40.461 20.6668 42.3624L21.0372 42.5418C26.5454 45.1733 32.5282 46.8793 38.5399 47.8609C41.5287 48.3614 44.5515 48.6338 47.5813 48.6753L47.6825 48.6768C49.0978 48.7065 50.458 49.0757 50.9665 47.5506C51.4907 45.9174 51.4214 44.1507 50.7724 42.564C50.1613 41.0779 49.0573 39.796 48.705 38.2286C48.3188 36.5206 48.8804 34.762 49.0952 33.0247C49.3283 31.1268 48.5829 29.3255 47.6614 27.6558C47.6614 27.6558 46.6172 24.6832 44.8533 23.1954C43.0894 21.7076 42.2588 21.2704 41.9411 21.1307C41.3742 20.8816 40.7956 20.6584 40.2069 20.4629C40.2865 20.1772 40.329 19.8761 40.329 19.565Z" fill="#1B0B27"/>
<path d="M47.2256 34.4227C47.2004 36.7378 45.8962 38.7445 44.0007 39.7807L43.475 46.6401C43.333 48.4451 41.7715 49.7942 39.9771 49.6633L39.6986 49.6431C37.9041 49.5061 36.5596 47.9346 36.6859 46.1346L37.2116 39.3056C35.6805 38.1582 34.6994 36.3182 34.7247 34.2609L34.7353 33.5785C33.7087 33.6549 32.7791 32.9164 32.6168 31.8801C32.4606 30.7883 33.2082 29.7723 34.3001 29.6055L34.7853 29.5448L34.7353 28.2694C34.7353 28.2694 35.6193 28.2694 36.6859 28.2473C37.7525 28.2252 39.1629 27.8005 39.1629 27.8005C40.957 27.1834 42.1743 26.374 42.1743 26.374C42.1743 26.374 43.2319 27.197 44.0007 27.4305C46.0233 28.0447 47.2549 27.853 47.2549 27.853C47.2549 27.853 47.3048 28.4134 47.3009 28.7007L47.2256 34.4227Z" fill="#EDB59D"/>
<path d="M43.0957 33.5886L45.0009 33.1923L43.44 29.8809" stroke="#1B0B27" stroke-width="0.490826" stroke-linecap="round" stroke-linejoin="round"/>
<path fill-rule="evenodd" clip-rule="evenodd" d="M43.7117 36.2063C43.4221 36.9847 42.7291 37.5408 41.9087 37.653C41.1045 37.7374 40.2462 37.2643 39.9555 36.5081C39.7073 35.8772 39.8428 35.1691 39.9803 34.5064C40.0414 34.2162 40.1779 34.6348 40.2244 34.7116C40.322 34.8744 40.4367 35.027 40.5651 35.166C40.8214 35.4486 41.1242 35.6852 41.4598 35.8651C42.1432 36.2427 43.7117 36.2063 43.7117 36.2063Z" stroke="#1B0B27" stroke-width="0.490826" stroke-linejoin="round"/>
<path fill-rule="evenodd" clip-rule="evenodd" d="M45.137 30.4715C45.0991 30.054 45.2528 29.6987 45.4797 29.6784L45.4811 29.6783C45.4876 29.6779 45.4938 29.6774 45.5005 29.6774C45.7193 29.6774 45.922 29.9928 45.9579 30.3972C45.9953 30.8148 45.8417 31.1696 45.6152 31.1908C45.3882 31.2105 45.1739 30.8891 45.137 30.4715ZM39.2235 30.4721C39.2053 30.0535 39.3747 29.7058 39.6021 29.6956H39.6127C39.8357 29.6956 40.0288 30.0237 40.0475 30.4362C40.0662 30.8547 39.8963 31.2025 39.6684 31.2126C39.4409 31.2222 39.2417 30.8906 39.2235 30.4721Z" fill="#1B0B27"/>
<path d="M45.5229 28.5464C45.9521 28.6026 46.3535 28.7886 46.674 29.0797" stroke="#1B0B27" stroke-width="0.490826" stroke-linecap="round" stroke-linejoin="round"/>
<path d="M38.6104 29.4204C38.989 28.9523 39.5263 28.6415 40.1187 28.5464" stroke="#1B0B27" stroke-width="0.490826" stroke-linecap="round" stroke-linejoin="round"/>
<path d="M39.126 39.5195C39.126 39.5195 40.0526 40.4817 41.893 40.1415" stroke="#1B0B27" stroke-width="0.490826" stroke-linecap="round" stroke-linejoin="round"/>
<path d="M36.619 23.6349C35.5337 24.7445 34.8923 26.2159 34.8174 27.7692" stroke="white" stroke-width="0.490826" stroke-linecap="round"/>
<path d="M28.7279 29.7684C27.7048 30.883 26.019 31.0129 24.5178 30.934C23.016 30.8552 21.4207 30.6631 20.0847 31.3551C18.3125 32.273 17.573 34.4405 16.0298 35.7083C15.2298 36.3536 14.2644 36.7279 13.2681 36.804" stroke="white" stroke-width="0.490826" stroke-linecap="round"/>
<path d="M27.8077 33.2862C26.27 34.5989 23.6754 33.6608 22.0594 34.877C21.1359 35.572 20.7886 36.7856 20.0961 37.7122C19.3812 38.6692 18.2538 39.2701 17.0742 39.4228" stroke="white" stroke-width="0.490826" stroke-linecap="round"/>
<path d="M31.4982 35.7695C30.6221 36.5091 30.377 37.7366 29.6977 38.6522C28.7445 39.9362 27.0722 40.4581 25.5038 40.8407C24.3443 41.1231 23.052 41.4607 22.4414 42.4663" stroke="white" stroke-width="0.490826" stroke-linecap="round"/>
<path d="M37.1837 22.251C36.1268 22.6149 34.9547 22.2757 34.251 21.4034" stroke="white" stroke-width="0.490826" stroke-linecap="round"/>
<path d="M46.3569 44.1183C46.3003 43.0022 46.1269 41.8947 45.8403 40.8145" stroke="white" stroke-width="0.490826" stroke-linecap="round"/>
<path d="M34.2507 39.9417C33.8216 41.4899 32.9395 42.8744 31.7183 43.9142" stroke="white" stroke-width="0.490826" stroke-linecap="round"/>
<path d="M72.6206 15.52C75.0969 15.5127 77.1026 13.4568 77.1097 10.9185V8.68737C77.1034 6.14851 75.0975 4.09174 72.6206 4.08441H46.5457C44.0692 4.09255 42.0637 6.14884 42.0566 8.68737V10.9185C42.0645 13.4565 44.0697 15.5119 46.5457 15.52L46.7206 19.0756L50.3512 15.52H72.6206Z" fill="#45D7B6"/>
<path d="M55.3925 7.90076C54.9279 7.90076 54.5513 8.28679 54.5513 8.76298C54.5513 9.24065 54.9279 9.62668 55.3925 9.62668H72.4529C72.9175 9.62668 73.2941 9.24065 73.2941 8.76446C73.2941 8.28679 72.9175 7.90076 72.4529 7.90076H55.3925Z" fill="white" stroke="white" stroke-width="0.827926"/>
<path d="M60.6385 11.877C60.174 11.877 59.7974 12.2631 59.7974 12.7393C59.7974 13.2169 60.174 13.603 60.6385 13.603H70.4594C70.924 13.603 71.3006 13.2169 71.3006 12.7407C71.3006 12.2631 70.924 11.877 70.4594 11.877H60.6385Z" fill="white" stroke="white" stroke-width="0.827926"/>
<path d="M48.5096 11.0474C47.5645 11.0474 46.7983 10.2621 46.7983 9.29338C46.7983 8.32463 47.5645 7.53931 48.5096 7.53931C49.4547 7.53931 50.2208 8.32463 50.2208 9.29338C50.2208 10.2621 49.4547 11.0474 48.5096 11.0474Z" fill="white" stroke="white" stroke-width="0.827926"/>
<path fill-rule="evenodd" clip-rule="evenodd" d="M74.7896 16.3393C77.2665 16.3327 79.273 14.2766 79.2802 11.7378V9.50663C79.2723 6.96811 77.2662 4.91247 74.7896 4.90515H48.7147C46.2387 4.91328 44.2335 6.96868 44.2256 9.50663V11.7378C44.2327 14.2761 46.2384 16.3319 48.7147 16.3393L48.8896 19.8948L52.5202 16.3393H74.7896Z" stroke="#1B0B27" stroke-width="0.585106" stroke-linejoin="round"/>
<path d="M68.5101 29.1587L67.8934 30.315C67.5379 30.9777 67.0032 31.5224 66.3528 31.8844L65.2183 32.5169L66.3528 33.1495C67.003 33.5121 67.5377 34.0571 67.8934 34.7198L68.5131 35.8762L69.1337 34.7198C69.4894 34.0571 70.0241 33.5121 70.6743 33.1495L71.8088 32.5169L70.6743 31.8844C70.0228 31.5229 69.487 30.9782 69.1307 30.315L68.5101 29.1587Z" fill="white" stroke="#1B0B27" stroke-width="0.5" stroke-linecap="round" stroke-linejoin="round"/>
<path d="M14.029 57.3918C10.4272 57.3918 7.50732 54.4294 7.50732 50.775C7.50732 47.1207 10.4272 44.1582 14.029 44.1582C17.6309 44.1582 20.5508 47.1207 20.5508 50.775C20.5508 54.4294 17.6309 57.3918 14.029 57.3918Z" fill="#45D7B6"/>
</g>
</g>
<defs>
<linearGradient id="paint0_linear" x1="78.0878" y1="55.2808" x2="78.0878" y2="75.2382" gradientUnits="userSpaceOnUse">
<stop stop-color="white"/>
<stop offset="1" stop-color="white" stop-opacity="0"/>
</linearGradient>
<linearGradient id="paint1_linear" x1="9.51349" y1="77.368" x2="9.51349" y2="83.7833" gradientUnits="userSpaceOnUse">
<stop stop-color="white"/>
<stop offset="1" stop-color="white" stop-opacity="0"/>
</linearGradient>
<linearGradient id="paint2_linear" x1="38.963" y1="43.501" x2="38.963" y2="100.191" gradientUnits="userSpaceOnUse">
<stop stop-color="white"/>
<stop offset="1" stop-color="white" stop-opacity="0"/>
</linearGradient>
<linearGradient id="paint3_linear" x1="38.963" y1="43.501" x2="38.963" y2="100.191" gradientUnits="userSpaceOnUse">
<stop stop-color="white"/>
<stop offset="1" stop-color="white" stop-opacity="0"/>
</linearGradient>
<clipPath id="clip0">
<rect width="80" height="80" fill="white"/>
</clipPath>
</defs>
</svg>
