<svg width="18" height="18" viewBox="0 0 18 18" fill="none" xmlns="http://www.w3.org/2000/svg">
<path d="M13.1275 0H4.87243C2.18573 0 0 2.18573 0 4.87243V13.1277C0 15.8142 2.18573 18 4.87243 18H13.1277C15.8142 18 18 15.8142 18 13.1277V4.87243C18 2.18573 15.8142 0 13.1275 0V0ZM16.9447 13.1277C16.9447 15.2324 15.2324 16.9447 13.1275 16.9447H4.87243C2.76759 16.9447 1.05523 15.2324 1.05523 13.1277V4.87243C1.05523 2.76759 2.76759 1.05523 4.87243 1.05523H13.1277C15.2324 1.05523 16.9447 2.76759 16.9447 4.87243V13.1277Z" fill="#888888"/>
<path d="M8.99985 4.07837C6.28596 4.07837 4.07812 6.2862 4.07812 9.0001C4.07812 11.714 6.28596 13.9218 8.99985 13.9218C11.7137 13.9218 13.9216 11.714 13.9216 9.0001C13.9216 6.2862 11.7137 4.07837 8.99985 4.07837V4.07837ZM8.99985 12.8666C6.86796 12.8666 5.13336 11.1321 5.13336 9.0001C5.13336 6.8682 6.86796 5.1336 8.99985 5.1336C11.1319 5.1336 12.8663 6.8682 12.8663 9.0001C12.8663 11.1321 11.1319 12.8666 8.99985 12.8666V12.8666Z" fill="#888888"/>
<path d="M14.0395 2.33032C13.2375 2.33032 12.5852 2.98277 12.5852 3.78463C12.5852 4.58664 13.2375 5.23908 14.0395 5.23908C14.8415 5.23908 15.494 4.58664 15.494 3.78463C15.494 2.98263 14.8415 2.33032 14.0395 2.33032ZM14.0395 4.18371C13.8195 4.18371 13.6404 4.00464 13.6404 3.78463C13.6404 3.5645 13.8195 3.38556 14.0395 3.38556C14.2597 3.38556 14.4387 3.5645 14.4387 3.78463C14.4387 4.00464 14.2597 4.18371 14.0395 4.18371Z" fill="#888888"/>
</svg>
