<svg width="1053" height="63" viewBox="0 0 1053 63" fill="none" xmlns="http://www.w3.org/2000/svg">
<path fill-rule="evenodd" clip-rule="evenodd" d="M0.211646 1C0.218377 0.531226 0.222255 0.27533 0.222255 0.27533L446.409 0.911225C445.72 0.940242 445.028 0.969847 444.335 1H0.211646ZM0 25.6087C0 30.942 0.0555637 35.2753 0.222255 36.2753C0.722328 39.2753 1.59495 41.947 3.22226 45.2753C4.6497 48.1949 5.62488 49.7929 7.72225 52.2753C9.7737 54.7034 11.0909 55.9921 13.7223 57.7753C16.9062 59.9331 19.0033 60.7942 22.7223 61.7753C26.1416 62.6774 28.1944 63.0198 31.7223 62.7753C33.1416 62.677 34.1349 62.449 35.249 62.1934C35.8444 62.0568 36.4743 61.9122 37.2223 61.7753C57.6829 58.0297 73.0086 54.7418 88.9478 51.3222L88.9481 51.3221L88.9482 51.3221C101.414 48.6477 114.256 45.8927 130.222 42.7753C134.964 41.8496 139.388 40.9821 143.592 40.1578L143.614 40.1534L143.628 40.1507L143.629 40.1506C167.067 35.5549 183.664 32.3007 210.222 27.7753C250.892 20.8455 273.802 17.5314 314.722 12.2753C339.874 9.04465 379.222 4.77533 379.222 4.77533C379.222 4.77533 413.455 2.34329 444.335 1H1053V63H0V25.6087ZM0 25.6087C0 16.3509 0.167418 4.08015 0.211646 1H0V25.6087ZM608.722 2.27533C603.094 1.92203 596.065 1.48871 589.985 1.11585L1052.72 1.77533V39.2753C1052.72 42.2753 1050.83 46.4361 1048.22 50.2753C1045.51 54.2743 1043.41 56.3619 1039.22 58.7753C1035.15 61.1188 1032.38 61.6838 1027.72 62.2753C1024.24 62.7182 1018.72 62.2753 1018.72 62.2753C1018.72 62.2753 909.916 40.2001 839.722 28.7753C815.736 24.8713 802.282 22.6975 778.222 19.2753C754.244 15.8648 740.783 14.0425 716.722 11.2753C695.664 8.85349 683.846 7.53449 662.722 5.77533C648.334 4.57713 638.245 4.0004 626.571 3.33306C621.157 3.02363 615.404 2.69471 608.722 2.27533Z" fill="white"/>
</svg>
