<svg width="1053" height="465" viewBox="0 0 1053 465" fill="none" xmlns="http://www.w3.org/2000/svg">
<rect width="1052" height="456" rx="30" fill="#45D7B6"/>
<path fill-rule="evenodd" clip-rule="evenodd" d="M0.211646 395C0.218377 394.531 0.222255 394.275 0.222255 394.275L446.409 394.911C445.72 394.94 445.028 394.97 444.335 395H0.211646ZM0 419.609C0 424.942 0.0555637 429.275 0.222255 430.275C0.722328 433.275 1.59495 435.947 3.22226 439.275C4.6497 442.195 5.62488 443.793 7.72225 446.275C9.7737 448.703 11.0909 449.992 13.7223 451.775C16.9062 453.933 19.0033 454.794 22.7223 455.775C26.1416 456.677 28.1944 457.02 31.7223 456.775C33.1416 456.677 34.1349 456.449 35.249 456.193C35.8444 456.057 36.4743 455.912 37.2223 455.775C57.6829 452.03 73.0086 448.742 88.9478 445.322L88.9481 445.322L88.9482 445.322C101.414 442.648 114.256 439.893 130.222 436.775C134.976 435.847 139.411 434.978 143.624 434.151L143.628 434.151C167.067 429.555 183.663 426.301 210.222 421.775C250.892 414.846 273.802 411.531 314.722 406.275C339.874 403.045 379.222 398.775 379.222 398.775C379.222 398.775 413.455 396.343 444.335 395H1053V457H0V419.609ZM0 419.609C0 410.351 0.167418 398.08 0.211646 395H0V419.609ZM608.722 396.275C603.094 395.922 596.065 395.489 589.985 395.116L1052.72 395.775V433.275C1052.72 436.275 1050.83 440.436 1048.22 444.275C1045.51 448.274 1043.41 450.362 1039.22 452.775C1035.15 455.119 1032.38 455.684 1027.72 456.275C1024.24 456.718 1018.72 456.275 1018.72 456.275C1018.72 456.275 909.916 434.2 839.722 422.775C815.736 418.871 802.282 416.697 778.222 413.275C754.244 409.865 740.783 408.042 716.722 405.275C695.664 402.853 683.846 401.534 662.722 399.775C648.334 398.577 638.245 398 626.571 397.333C621.157 397.024 615.404 396.695 608.722 396.275Z" fill="white"/>
<rect x="656" y="393" width="396" height="3" fill="#45D7B6"/>
<rect y="394" width="362" height="3" fill="#45D7B6"/>
</svg>
