<svg width="354" height="271" viewBox="0 0 354 271" fill="none" xmlns="http://www.w3.org/2000/svg">
<path d="M119.492 113.828L120.491 113.835L120.498 112.835L119.498 112.829L119.492 113.828ZM119.37 131.406L118.37 131.399L118.352 134.12L120.128 132.059L119.37 131.406ZM134.433 113.931L134.439 112.931L133.977 112.928L133.675 113.279L134.433 113.931ZM144.745 114.002L145.484 114.676L146.993 113.018L144.752 113.002L144.745 114.002ZM129.217 131.064L128.477 130.391L127.915 131.009L128.423 131.672L129.217 131.064ZM146.232 153.271L146.225 154.271L148.269 154.285L147.026 152.663L146.232 153.271ZM135.568 153.198L134.768 153.798L135.066 154.195L135.561 154.198L135.568 153.198ZM123.608 137.236L124.408 136.637L123.679 135.664L122.865 136.566L123.608 137.236ZM119.297 142.011L118.555 141.341L118.3 141.624L118.297 142.005L119.297 142.011ZM119.221 153.085L119.214 154.085L120.214 154.092L120.221 153.092L119.221 153.085ZM111.077 153.029L110.077 153.022L110.07 154.022L111.07 154.029L111.077 153.029ZM111.347 113.772L111.354 112.772L110.354 112.766L110.347 113.765L111.347 113.772ZM118.492 113.822L118.37 131.399L120.37 131.413L120.491 113.835L118.492 113.822ZM120.128 132.059L135.19 114.584L133.675 113.279L118.613 130.753L120.128 132.059ZM134.426 114.931L144.738 115.002L144.752 113.002L134.439 112.931L134.426 114.931ZM144.005 113.329L128.477 130.391L129.956 131.737L145.484 114.676L144.005 113.329ZM128.423 131.672L145.438 153.88L147.026 152.663L130.011 130.456L128.423 131.672ZM146.239 152.271L135.575 152.198L135.561 154.198L146.225 154.271L146.239 152.271ZM136.369 152.598L124.408 136.637L122.807 137.836L134.768 153.798L136.369 152.598ZM122.865 136.566L118.555 141.341L120.04 142.681L124.35 137.906L122.865 136.566ZM118.297 142.005L118.221 153.078L120.221 153.092L120.297 142.018L118.297 142.005ZM119.228 152.085L111.084 152.029L111.07 154.029L119.214 154.085L119.228 152.085ZM112.077 153.036L112.347 113.779L110.347 113.765L110.077 153.022L112.077 153.036ZM111.34 114.772L119.485 114.828L119.498 112.829L111.354 112.772L111.34 114.772ZM171.797 125.205L171.283 126.062L171.294 126.069L171.797 125.205ZM177.501 130.869L176.642 131.382L176.647 131.39L176.652 131.398L177.501 130.869ZM177.392 146.689L176.55 146.148L176.544 146.158L177.392 146.689ZM171.611 152.274L172.102 153.145L172.113 153.139L171.611 152.274ZM155.791 152.165L155.277 153.023L155.285 153.028L155.293 153.033L155.791 152.165ZM150.196 130.681L151.044 131.212L151.048 131.206L150.196 130.681ZM155.977 125.096L156.469 125.966L156.473 125.964L155.977 125.096ZM159.92 131.217L159.445 130.337L159.92 131.217ZM156.97 134.068L156.114 133.551L156.108 133.561L156.102 133.571L156.97 134.068ZM156.907 143.208L156.032 143.692L156.038 143.703L156.044 143.713L156.907 143.208ZM159.817 146.099L159.33 146.973L159.341 146.979L159.352 146.985L159.817 146.099ZM167.668 146.153L168.121 147.045L168.132 147.039L168.143 147.033L167.668 146.153ZM163.895 124.041C166.615 124.06 169.07 124.736 171.283 126.062L172.311 124.347C169.778 122.828 166.97 122.062 163.909 122.041L163.895 124.041ZM171.294 126.069C173.519 127.366 175.298 129.132 176.642 131.382L178.359 130.356C176.845 127.821 174.822 125.811 172.301 124.341L171.294 126.069ZM176.652 131.398C178.014 133.582 178.692 136.036 178.673 138.788L180.673 138.801C180.694 135.693 179.923 132.864 178.349 130.34L176.652 131.398ZM178.673 138.788C178.654 141.539 177.943 143.983 176.55 146.148L178.233 147.23C179.841 144.728 180.651 141.909 180.673 138.801L178.673 138.788ZM176.544 146.158C175.169 148.354 173.361 150.101 171.108 151.41L172.113 153.139C174.645 151.668 176.691 149.692 178.239 147.22L176.544 146.158ZM171.119 151.404C168.887 152.664 166.419 153.289 163.694 153.271L163.68 155.271C166.735 155.292 169.55 154.586 172.102 153.145L171.119 151.404ZM163.694 153.271C161.01 153.252 158.547 152.594 156.288 151.298L155.293 153.033C157.859 154.505 160.661 155.25 163.68 155.271L163.694 153.271ZM156.305 151.308C154.071 149.968 152.287 148.196 150.942 145.982L149.233 147.02C150.747 149.513 152.765 151.517 155.277 153.023L156.305 151.308ZM150.942 145.982C149.616 143.797 148.955 141.34 148.974 138.583L146.974 138.569C146.953 141.672 147.701 144.498 149.233 147.02L150.942 145.982ZM148.974 138.583C148.993 135.826 149.687 133.378 151.044 131.212L149.349 130.15C147.783 132.651 146.995 135.467 146.974 138.569L148.974 138.583ZM151.048 131.206C152.422 128.975 154.226 127.233 156.469 125.966L155.486 124.225C152.944 125.66 150.894 127.642 149.345 130.157L151.048 131.206ZM156.473 125.964C158.749 124.664 161.216 124.022 163.895 124.041L163.909 122.041C160.884 122.02 158.069 122.749 155.481 124.227L156.473 125.964ZM163.859 129.248C162.288 129.237 160.811 129.6 159.445 130.337L160.394 132.097C161.459 131.522 162.604 131.239 163.845 131.248L163.859 129.248ZM159.445 130.337C158.063 131.082 156.952 132.162 156.114 133.551L157.827 134.584C158.49 133.484 159.345 132.663 160.394 132.097L159.445 130.337ZM156.102 133.571C155.286 134.999 154.897 136.698 154.884 138.624L156.884 138.637C156.896 136.97 157.231 135.627 157.838 134.564L156.102 133.571ZM154.884 138.624C154.871 140.549 155.236 142.254 156.032 143.692L157.782 142.724C157.189 141.653 156.873 140.305 156.884 138.637L154.884 138.624ZM156.044 143.713C156.863 145.114 157.959 146.209 159.33 146.973L160.304 145.226C159.262 144.645 158.419 143.813 157.771 142.703L156.044 143.713ZM159.352 146.985C160.705 147.695 162.169 148.053 163.729 148.064L163.743 146.064C162.491 146.055 161.343 145.771 160.282 145.214L159.352 146.985ZM163.729 148.064C165.29 148.074 166.759 147.736 168.121 147.045L167.216 145.262C166.148 145.804 164.995 146.072 163.743 146.064L163.729 148.064ZM168.143 147.033C169.525 146.288 170.636 145.209 171.474 143.819L169.762 142.786C169.098 143.886 168.243 144.707 167.194 145.273L168.143 147.033ZM171.474 143.819C172.337 142.388 172.749 140.681 172.763 138.747L170.763 138.733C170.751 140.392 170.4 141.727 169.762 142.786L171.474 143.819ZM172.763 138.747C172.776 136.812 172.388 135.1 171.544 133.657L169.817 134.667C170.441 135.734 170.774 137.074 170.763 138.733L172.763 138.747ZM171.544 133.657C170.725 132.256 169.629 131.161 168.258 130.397L167.284 132.144C168.326 132.725 169.169 133.558 169.817 134.667L171.544 133.657ZM168.258 130.397C166.902 129.642 165.43 129.259 163.859 129.248L163.845 131.248C165.087 131.256 166.227 131.555 167.284 132.144L168.258 130.397ZM205.381 132.409L204.885 133.277L206.369 134.126L206.381 132.416L205.381 132.409ZM197.174 132.997L197.863 133.721L197.87 133.715L197.876 133.709L197.174 132.997ZM194.157 137.078L193.275 136.608L193.159 136.825L193.157 137.071L194.157 137.078ZM194.044 153.601L194.037 154.601L195.037 154.608L195.044 153.608L194.044 153.601ZM186.602 153.55L185.602 153.543L185.595 154.543L186.595 154.549L186.602 153.55ZM186.806 123.96L186.813 122.96L185.813 122.954L185.806 123.953L186.806 123.96ZM194.247 124.012L195.247 124.019L195.254 123.019L194.254 123.012L194.247 124.012ZM194.209 129.578L193.209 129.571L193.183 133.301L195.071 130.084L194.209 129.578ZM197.813 125.208L197.178 124.435L197.168 124.444L197.813 125.208ZM205.439 124.03L206.439 124.037L206.444 123.366L205.824 123.107L205.439 124.03ZM205.877 131.541C204.491 130.748 203.017 130.338 201.47 130.327L201.456 132.327C202.643 132.335 203.781 132.646 204.885 133.277L205.877 131.541ZM201.47 130.327C199.507 130.314 197.816 130.959 196.472 132.285L197.876 133.709C198.813 132.785 199.981 132.317 201.456 132.327L201.47 130.327ZM196.484 132.273C195.254 133.444 194.187 134.895 193.275 136.608L195.04 137.548C195.869 135.991 196.813 134.721 197.863 133.721L196.484 132.273ZM193.157 137.071L193.044 153.594L195.044 153.608L195.157 137.085L193.157 137.071ZM194.05 152.601L186.609 152.55L186.595 154.549L194.037 154.601L194.05 152.601ZM187.602 153.556L187.806 123.967L185.806 123.953L185.602 153.543L187.602 153.556ZM186.799 124.96L194.24 125.012L194.254 123.012L186.813 122.96L186.799 124.96ZM193.247 124.005L193.209 129.571L195.209 129.585L195.247 124.019L193.247 124.005ZM195.071 130.084C196.049 128.419 197.18 127.053 198.459 125.972L197.168 124.444C195.696 125.688 194.424 127.236 193.347 129.072L195.071 130.084ZM198.448 125.981C199.69 124.96 201.051 124.473 202.565 124.483L202.578 122.483C200.576 122.469 198.765 123.131 197.179 124.435L198.448 125.981ZM202.565 124.483C203.507 124.489 204.332 124.652 205.054 124.953L205.824 123.107C204.832 122.693 203.745 122.491 202.578 122.483L202.565 124.483ZM204.439 124.023L204.381 132.402L206.381 132.416L206.439 124.037L204.439 124.023ZM232.85 125.625L232.336 126.483L232.347 126.489L232.85 125.625ZM238.554 131.29L237.695 131.802L237.7 131.811L237.705 131.819L238.554 131.29ZM238.445 147.11L237.604 146.569L237.597 146.579L238.445 147.11ZM232.664 152.695L233.156 153.566L233.166 153.56L232.664 152.695ZM216.844 152.586L216.33 153.444L216.338 153.449L216.346 153.453L216.844 152.586ZM211.25 131.102L212.097 131.632L212.101 131.626L211.25 131.102ZM217.031 125.516L217.522 126.387L217.527 126.384L217.031 125.516ZM220.973 131.637L220.498 130.757L220.973 131.637ZM218.023 134.488L217.167 133.972L217.161 133.982L217.155 133.992L218.023 134.488ZM217.96 143.629L217.086 144.113L217.091 144.123L217.097 144.133L217.96 143.629ZM220.87 146.52L220.383 147.393L220.394 147.399L220.406 147.405L220.87 146.52ZM228.722 146.574L229.174 147.466L229.185 147.46L229.196 147.454L228.722 146.574ZM224.948 124.461C227.668 124.48 230.124 125.156 232.336 126.483L233.365 124.768C230.831 123.249 228.023 122.483 224.962 122.461L224.948 124.461ZM232.347 126.489C234.572 127.786 236.352 129.553 237.695 131.802L239.412 130.777C237.898 128.241 235.876 126.231 233.354 124.761L232.347 126.489ZM237.705 131.819C239.067 134.003 239.745 136.457 239.726 139.208L241.726 139.222C241.747 136.114 240.976 133.284 239.402 130.76L237.705 131.819ZM239.726 139.208C239.707 141.959 238.996 144.404 237.604 146.569L239.286 147.65C240.895 145.149 241.704 142.33 241.726 139.222L239.726 139.208ZM237.597 146.579C236.222 148.774 234.414 150.522 232.162 151.83L233.166 153.56C235.699 152.089 237.744 150.112 239.292 147.64L237.597 146.579ZM232.172 151.824C229.94 153.084 227.472 153.71 224.747 153.691L224.733 155.691C227.789 155.712 230.603 155.007 233.156 153.566L232.172 151.824ZM224.747 153.691C222.063 153.673 219.601 153.014 217.342 151.719L216.346 153.453C218.912 154.925 221.714 155.67 224.733 155.691L224.747 153.691ZM217.358 151.728C215.124 150.389 213.34 148.617 211.996 146.403L210.286 147.441C211.8 149.934 213.818 151.938 216.33 153.444L217.358 151.728ZM211.996 146.403C210.669 144.218 210.008 141.76 210.027 139.004L208.027 138.99C208.006 142.092 208.754 144.918 210.286 147.441L211.996 146.403ZM210.027 139.004C210.046 136.247 210.741 133.799 212.097 131.632L210.402 130.571C208.836 133.072 208.049 135.887 208.027 138.99L210.027 139.004ZM212.101 131.626C213.475 129.395 215.279 127.653 217.522 126.387L216.539 124.645C213.997 126.081 211.947 128.062 210.398 130.577L212.101 131.626ZM217.527 126.384C219.802 125.084 222.27 124.443 224.948 124.461L224.962 122.461C221.937 122.441 219.122 123.169 216.534 124.648L217.527 126.384ZM224.912 129.668C223.341 129.657 221.864 130.02 220.498 130.757L221.448 132.517C222.512 131.943 223.657 131.66 224.898 131.668L224.912 129.668ZM220.498 130.757C219.117 131.502 218.005 132.582 217.167 133.972L218.88 135.005C219.543 133.905 220.398 133.084 221.448 132.517L220.498 130.757ZM217.155 133.992C216.339 135.419 215.951 137.118 215.937 139.044L217.937 139.058C217.949 137.39 218.284 136.047 218.892 134.984L217.155 133.992ZM215.937 139.044C215.924 140.97 216.289 142.674 217.086 144.113L218.835 143.144C218.243 142.073 217.926 140.726 217.937 139.058L215.937 139.044ZM217.097 144.133C217.916 145.534 219.013 146.629 220.383 147.393L221.357 145.646C220.315 145.066 219.472 144.233 218.824 143.124L217.097 144.133ZM220.406 147.405C221.758 148.115 223.222 148.474 224.783 148.484L224.796 146.484C223.544 146.476 222.396 146.191 221.335 145.634L220.406 147.405ZM224.783 148.484C226.343 148.495 227.812 148.157 229.174 147.466L228.269 145.682C227.201 146.224 226.048 146.493 224.796 146.484L224.783 148.484ZM229.196 147.454C230.578 146.709 231.689 145.629 232.527 144.239L230.815 143.207C230.151 144.307 229.297 145.128 228.247 145.694L229.196 147.454ZM232.527 144.239C233.391 142.808 233.802 141.102 233.816 139.167L231.816 139.154C231.804 140.813 231.453 142.148 230.815 143.207L232.527 144.239ZM233.816 139.167C233.829 137.233 233.441 135.521 232.597 134.078L230.871 135.087C231.494 136.154 231.827 137.494 231.816 139.154L233.816 139.167ZM232.597 134.078C231.779 132.677 230.682 131.582 229.311 130.818L228.337 132.565C229.379 133.146 230.222 133.978 230.871 135.087L232.597 134.078ZM229.311 130.818C227.955 130.062 226.483 129.679 224.912 129.668L224.898 131.668C226.14 131.677 227.281 131.976 228.337 132.565L229.311 130.818ZM271.289 125.597L270.764 126.448L270.774 126.454L270.783 126.46L271.289 125.597ZM276.116 130.845L275.228 131.304L275.233 131.313L275.237 131.322L276.116 130.845ZM276 147.661L275.118 147.191L275.112 147.202L276 147.661ZM270.982 153.135L271.493 153.994L271.498 153.992L270.982 153.135ZM259.142 153.756L258.68 154.643L258.693 154.65L258.706 154.656L259.142 153.756ZM255.12 150.682L255.866 150.016L254.138 148.076L254.12 150.675L255.12 150.682ZM255 168.084L254.993 169.083L255.993 169.09L256 168.09L255 168.084ZM247.559 168.032L246.559 168.025L246.552 169.025L247.552 169.032L247.559 168.032ZM247.859 124.381L247.866 123.381L246.866 123.374L246.859 124.374L247.859 124.381ZM255.301 124.432L256.301 124.439L256.307 123.439L255.307 123.432L255.301 124.432ZM255.266 129.413L254.266 129.406L256.144 129.891L255.266 129.413ZM259.044 125.396L259.593 126.231L259.6 126.227L259.607 126.222L259.044 125.396ZM259.114 132.193L259.601 133.066L259.612 133.06L259.623 133.054L259.114 132.193ZM256.224 135.044L255.367 134.528L255.361 134.538L255.355 134.548L256.224 135.044ZM255.196 139.549L256.196 139.556L256.197 139.545L256.196 139.534L255.196 139.549ZM255.167 143.826L254.167 143.819L254.164 144.223L254.442 144.515L255.167 143.826ZM258.546 146.604L258.018 147.453L258.034 147.462L258.05 147.472L258.546 146.604ZM269.233 143.337L270.13 143.78L270.135 143.769L269.233 143.337ZM268.188 133.486L267.429 134.138L267.434 134.143L267.439 134.149L268.188 133.486ZM264.791 124.736C266.952 124.751 268.937 125.32 270.764 126.448L271.814 124.746C269.674 123.425 267.331 122.753 264.805 122.736L264.791 124.736ZM270.783 126.46C272.626 127.54 274.11 129.14 275.228 131.304L277.005 130.386C275.733 127.924 273.999 126.026 271.795 124.734L270.783 126.46ZM275.237 131.322C276.372 133.413 276.956 136.015 276.934 139.171L278.934 139.185C278.957 135.779 278.329 132.826 276.995 130.368L275.237 131.322ZM276.934 139.171C276.912 142.326 276.293 144.987 275.118 147.191L276.883 148.132C278.24 145.587 278.91 142.593 278.934 139.185L276.934 139.171ZM275.112 147.202C273.963 149.426 272.413 151.107 270.467 152.278L271.498 153.992C273.787 152.614 275.584 150.646 276.889 148.12L275.112 147.202ZM270.471 152.275C268.557 153.413 266.429 153.978 264.062 153.962L264.048 155.962C266.76 155.981 269.25 155.328 271.493 153.994L270.471 152.275ZM264.062 153.962C262.586 153.952 261.094 153.591 259.578 152.856L258.706 154.656C260.46 155.506 262.244 155.95 264.048 155.962L264.062 153.962ZM259.604 152.869C258.104 152.088 256.863 151.135 255.866 150.016L254.373 151.347C255.547 152.665 256.987 153.762 258.68 154.643L259.604 152.869ZM254.12 150.675L254 168.077L256 168.09L256.12 150.688L254.12 150.675ZM255.007 167.084L247.566 167.032L247.552 169.032L254.993 169.083L255.007 167.084ZM248.559 168.039L248.859 124.388L246.859 124.374L246.559 168.025L248.559 168.039ZM247.852 125.381L255.294 125.432L255.307 123.432L247.866 123.381L247.852 125.381ZM254.301 124.425L254.266 129.406L256.266 129.419L256.301 124.439L254.301 124.425ZM256.144 129.891C256.929 128.452 258.07 127.231 259.593 126.231L258.495 124.56C256.722 125.724 255.344 127.182 254.388 128.934L256.144 129.891ZM259.607 126.222C261.071 125.226 262.786 124.722 264.791 124.736L264.805 122.736C262.435 122.72 260.314 123.322 258.482 124.569L259.607 126.222ZM262.878 130.164C261.364 130.154 259.934 130.548 258.606 131.332L259.623 133.054C260.648 132.448 261.723 132.156 262.865 132.164L262.878 130.164ZM258.627 131.32C257.287 132.067 256.201 133.146 255.367 134.528L257.08 135.561C257.748 134.453 258.589 133.631 259.601 133.066L258.627 131.32ZM255.355 134.548C254.537 135.98 254.168 137.667 254.197 139.564L256.196 139.534C256.172 137.915 256.487 136.598 257.092 135.541L255.355 134.548ZM254.196 139.542L254.167 143.819L256.167 143.833L256.196 139.556L254.196 139.542ZM254.442 144.515C255.544 145.674 256.735 146.654 258.018 147.453L259.075 145.755C257.946 145.052 256.884 144.181 255.892 143.137L254.442 144.515ZM258.05 147.472C259.446 148.269 260.96 148.675 262.575 148.686L262.589 146.686C261.314 146.677 260.137 146.361 259.043 145.735L258.05 147.472ZM262.575 148.686C264.289 148.698 265.83 148.243 267.156 147.297L265.994 145.669C265.042 146.348 263.921 146.695 262.589 146.686L262.575 148.686ZM267.156 147.297C268.432 146.386 269.425 145.209 270.13 143.78L268.336 142.895C267.774 144.035 266.995 144.955 265.994 145.669L267.156 147.297ZM270.135 143.769C270.834 142.311 271.189 140.762 271.2 139.132L269.2 139.118C269.191 140.457 268.901 141.716 268.331 142.905L270.135 143.769ZM271.2 139.132C271.217 136.682 270.472 134.558 268.937 132.823L267.439 134.149C268.617 135.48 269.214 137.115 269.2 139.118L271.2 139.132ZM268.946 132.834C267.42 131.059 265.361 130.181 262.878 130.164L262.865 132.164C264.835 132.178 266.321 132.848 267.429 134.138L268.946 132.834ZM305.784 128.12L305.027 128.773L306.766 130.788L306.784 128.127L305.784 128.12ZM305.807 124.78L305.814 123.78L304.814 123.773L304.807 124.773L305.807 124.78ZM313.248 124.831L314.248 124.838L314.255 123.838L313.255 123.831L313.248 124.831ZM313.045 154.421L313.038 155.42L314.038 155.427L314.045 154.427L313.045 154.421ZM305.603 154.369L304.603 154.362L304.597 155.362L305.597 155.369L305.603 154.369ZM305.638 149.389L306.638 149.396L304.76 148.91L305.638 149.389ZM301.859 153.523L302.422 154.35L302.428 154.345L302.435 154.341L301.859 153.523ZM289.497 153.321L288.972 154.172L288.979 154.176L289.497 153.321ZM284.845 131.198L283.965 130.722L283.959 130.733L284.845 131.198ZM289.862 125.842L290.373 126.702L290.378 126.699L289.862 125.842ZM294.27 132.435L294.845 133.253L294.851 133.249L294.27 132.435ZM292.657 145.374L291.891 146.016L291.895 146.021L291.9 146.027L292.657 145.374ZM301.73 146.725L301.222 145.864L301.215 145.868L301.209 145.872L301.73 146.725ZM304.563 143.815L303.7 143.31L303.695 143.319L304.563 143.815ZM305.737 134.975L306.737 134.982L306.74 134.589L306.474 134.299L305.737 134.975ZM302.299 132.256L301.812 133.13L301.823 133.136L302.299 132.256ZM296.841 124.957C298.284 124.967 299.762 125.31 301.285 126.012L302.122 124.195C300.373 123.39 298.615 122.969 296.855 122.957L296.841 124.957ZM301.285 126.012C302.802 126.71 304.043 127.633 305.027 128.773L306.541 127.467C305.355 126.092 303.876 125.003 302.122 124.195L301.285 126.012ZM306.784 128.127L306.807 124.787L304.807 124.773L304.784 128.113L306.784 128.127ZM305.8 125.78L313.242 125.831L313.255 123.831L305.814 123.78L305.8 125.78ZM312.248 124.824L312.045 154.414L314.045 154.427L314.248 124.838L312.248 124.824ZM313.052 153.421L305.61 153.369L305.597 155.369L313.038 155.42L313.052 153.421ZM306.603 154.376L306.638 149.396L304.638 149.382L304.603 154.362L306.603 154.376ZM304.76 148.91C303.971 150.357 302.821 151.623 301.284 152.705L302.435 154.341C304.195 153.102 305.564 151.612 306.516 149.868L304.76 148.91ZM301.297 152.696C299.832 153.693 298.117 154.197 296.112 154.183L296.098 156.183C298.468 156.199 300.589 155.597 302.422 154.35L301.297 152.696ZM296.112 154.183C293.908 154.168 291.882 153.596 290.015 152.465L288.979 154.176C291.157 155.495 293.537 156.165 296.098 156.183L296.112 154.183ZM290.022 152.47C288.21 151.351 286.739 149.726 285.617 147.555L283.84 148.473C285.109 150.928 286.816 152.841 288.972 154.172L290.022 152.47ZM285.617 147.555C284.513 145.419 283.948 142.79 283.97 139.63L281.97 139.616C281.947 143.018 282.554 145.984 283.84 148.473L285.617 147.555ZM283.97 139.63C283.992 136.47 284.593 133.827 285.73 131.664L283.959 130.733C282.642 133.24 281.994 136.214 281.97 139.616L283.97 139.63ZM285.724 131.675C286.913 129.482 288.464 127.836 290.373 126.702L289.351 124.983C287.102 126.319 285.309 128.244 283.965 130.722L285.724 131.675ZM290.378 126.699C292.334 125.522 294.481 124.94 296.841 124.957L296.855 122.957C294.137 122.938 291.627 123.613 289.346 124.985L290.378 126.699ZM298.328 130.233C296.581 130.221 295.019 130.672 293.689 131.621L294.851 133.249C295.798 132.573 296.937 132.223 298.314 132.233L298.328 130.233ZM293.694 131.617C292.449 132.494 291.476 133.656 290.774 135.08L292.567 135.965C293.132 134.82 293.892 133.924 294.845 133.253L293.694 131.617ZM290.774 135.08C290.07 136.506 289.716 138.04 289.704 139.67L291.704 139.683C291.713 138.344 292.003 137.11 292.567 135.965L290.774 135.08ZM289.704 139.67C289.687 142.111 290.408 144.246 291.891 146.016L293.424 144.731C292.272 143.358 291.69 141.694 291.704 139.683L289.704 139.67ZM291.9 146.027C293.46 147.834 295.533 148.737 298.025 148.754L298.038 146.754C296.077 146.741 294.567 146.057 293.414 144.72L291.9 146.027ZM298.025 148.754C299.54 148.765 300.956 148.371 302.252 147.578L301.209 145.872C300.229 146.47 299.179 146.762 298.038 146.754L298.025 148.754ZM302.239 147.586C303.572 146.798 304.638 145.699 305.431 144.311L303.695 143.319C303.065 144.421 302.241 145.262 301.222 145.864L302.239 147.586ZM305.426 144.32C306.282 142.856 306.695 141.136 306.708 139.201L304.708 139.187C304.697 140.845 304.346 142.206 303.7 143.31L305.426 144.32ZM306.708 139.201L306.737 134.982L304.737 134.968L304.708 139.187L306.708 139.201ZM306.474 134.299C305.359 133.085 304.126 132.106 302.774 131.376L301.823 133.136C302.962 133.751 304.022 134.586 305 135.652L306.474 134.299ZM302.785 131.383C301.425 130.625 299.933 130.244 298.328 130.233L298.314 132.233C299.6 132.241 300.759 132.543 301.812 133.13L302.785 131.383ZM327.076 124.927L327.992 124.525L327.731 123.931L327.083 123.927L327.076 124.927ZM335.384 143.851L334.468 144.253L335.379 146.33L336.298 144.257L335.384 143.851ZM343.716 125.041L343.723 124.041L343.068 124.037L342.802 124.636L343.716 125.041ZM352.212 125.1L353.106 125.548L353.827 124.111L352.219 124.1L352.212 125.1ZM330.408 168.603L330.401 169.603L331.024 169.607L331.302 169.051L330.408 168.603ZM321.971 168.545L321.098 168.058L320.275 169.533L321.964 169.545L321.971 168.545ZM330.989 152.376L331.862 152.863L332.109 152.421L331.898 151.96L330.989 152.376ZM318.405 124.867L318.411 123.867L316.843 123.856L317.495 125.283L318.405 124.867ZM326.161 125.329L334.468 144.253L336.299 143.45L327.992 124.525L326.161 125.329ZM336.298 144.257L344.631 125.446L342.802 124.636L334.469 143.446L336.298 144.257ZM343.71 126.041L352.205 126.1L352.219 124.1L343.723 124.041L343.71 126.041ZM351.318 124.652L329.514 168.155L331.302 169.051L353.106 125.548L351.318 124.652ZM330.415 167.603L321.978 167.545L321.964 169.545L330.401 169.603L330.415 167.603ZM322.844 169.032L331.862 152.863L330.115 151.889L321.098 168.058L322.844 169.032ZM331.898 151.96L319.314 124.451L317.495 125.283L330.079 152.792L331.898 151.96ZM318.398 125.867L327.069 125.927L327.083 123.927L318.411 123.867L318.398 125.867Z" fill="#1B0B27" fill-opacity="0.5"/>
<path d="M133.037 217.508L134.037 217.515L134.044 216.515L133.044 216.508L133.037 217.508ZM132.916 235.086L131.916 235.079L131.897 237.8L133.674 235.739L132.916 235.086ZM147.978 217.611L147.985 216.611L147.523 216.608L147.221 216.958L147.978 217.611ZM158.29 217.682L159.03 218.355L160.539 216.698L158.297 216.682L158.29 217.682ZM142.762 234.744L142.023 234.071L141.46 234.689L141.969 235.352L142.762 234.744ZM159.778 256.951L159.771 257.951L161.815 257.965L160.572 256.343L159.778 256.951ZM149.114 256.878L148.314 257.478L148.611 257.874L149.107 257.878L149.114 256.878ZM137.153 240.916L137.954 240.317L137.225 239.344L136.411 240.246L137.153 240.916ZM132.843 245.691L132.101 245.021L131.846 245.304L131.843 245.684L132.843 245.691ZM132.767 256.765L132.76 257.765L133.76 257.772L133.767 256.772L132.767 256.765ZM124.622 256.709L123.622 256.702L123.616 257.702L124.616 257.709L124.622 256.709ZM124.893 217.452L124.9 216.452L123.9 216.445L123.893 217.445L124.893 217.452ZM132.037 217.502L131.916 235.079L133.916 235.093L134.037 217.515L132.037 217.502ZM133.674 235.739L148.736 218.264L147.221 216.958L132.159 234.433L133.674 235.739ZM147.971 218.611L158.284 218.682L158.297 216.682L147.985 216.611L147.971 218.611ZM157.551 217.009L142.023 234.071L143.502 235.417L159.03 218.355L157.551 217.009ZM141.969 235.352L158.984 257.56L160.572 256.343L143.556 234.136L141.969 235.352ZM159.785 255.951L149.121 255.878L149.107 257.878L159.771 257.951L159.785 255.951ZM149.914 256.278L137.954 240.317L136.353 241.516L148.314 257.478L149.914 256.278ZM136.411 240.246L132.101 245.021L133.585 246.361L137.896 241.586L136.411 240.246ZM131.843 245.684L131.767 256.758L133.767 256.772L133.843 245.698L131.843 245.684ZM132.774 255.765L124.629 255.709L124.616 257.709L132.76 257.765L132.774 255.765ZM125.622 256.716L125.893 217.459L123.893 217.445L123.622 256.702L125.622 256.716ZM124.886 218.452L133.03 218.508L133.044 216.508L124.9 216.452L124.886 218.452ZM185.343 228.885L184.829 229.742L184.839 229.749L185.343 228.885ZM191.046 234.549L190.188 235.062L190.193 235.07L190.198 235.078L191.046 234.549ZM190.937 250.369L190.096 249.828L190.09 249.838L190.937 250.369ZM185.156 255.954L185.648 256.825L185.659 256.819L185.156 255.954ZM169.336 255.845L168.822 256.703L168.831 256.708L168.839 256.713L169.336 255.845ZM163.742 234.361L164.59 234.892L164.594 234.885L163.742 234.361ZM169.523 228.776L170.015 229.646L170.019 229.644L169.523 228.776ZM173.465 234.897L172.99 234.017L173.465 234.897ZM170.516 237.748L169.66 237.231L169.653 237.241L169.648 237.251L170.516 237.748ZM170.453 246.888L169.578 247.372L169.584 247.382L169.59 247.393L170.453 246.888ZM173.363 249.779L172.876 250.653L172.887 250.659L172.898 250.665L173.363 249.779ZM181.214 249.833L181.667 250.725L181.678 250.719L181.689 250.713L181.214 249.833ZM177.441 227.721C180.161 227.74 182.616 228.416 184.829 229.742L185.857 228.027C183.324 226.508 180.515 225.742 177.454 225.721L177.441 227.721ZM184.839 229.749C187.064 231.046 188.844 232.812 190.188 235.062L191.905 234.036C190.39 231.501 188.368 229.491 185.846 228.021L184.839 229.749ZM190.198 235.078C191.56 237.262 192.237 239.716 192.218 242.467L194.218 242.481C194.24 239.373 193.469 236.544 191.895 234.02L190.198 235.078ZM192.218 242.467C192.199 245.219 191.488 247.663 190.096 249.828L191.778 250.91C193.387 248.408 194.197 245.589 194.218 242.481L192.218 242.467ZM190.09 249.838C188.715 252.034 186.907 253.781 184.654 255.09L185.659 256.819C188.191 255.348 190.237 253.372 191.785 250.9L190.09 249.838ZM184.665 255.084C182.433 256.344 179.965 256.969 177.239 256.951L177.225 258.951C180.281 258.972 183.096 258.266 185.648 256.825L184.665 255.084ZM177.239 256.951C174.555 256.932 172.093 256.274 169.834 254.978L168.839 256.713C171.405 258.185 174.206 258.93 177.225 258.951L177.239 256.951ZM169.851 254.988C167.616 253.648 165.832 251.876 164.488 249.662L162.778 250.7C164.292 253.193 166.311 255.197 168.822 256.703L169.851 254.988ZM164.488 249.662C163.161 247.477 162.501 245.019 162.52 242.263L160.52 242.249C160.498 245.352 161.247 248.178 162.778 250.7L164.488 249.662ZM162.52 242.263C162.539 239.506 163.233 237.058 164.59 234.892L162.895 233.83C161.328 236.331 160.541 239.146 160.52 242.249L162.52 242.263ZM164.594 234.885C165.968 232.654 167.772 230.913 170.015 229.646L169.031 227.905C166.49 229.34 164.44 231.322 162.891 233.836L164.594 234.885ZM170.019 229.644C172.295 228.343 174.762 227.702 177.441 227.721L177.454 225.721C174.43 225.7 171.614 226.429 169.027 227.907L170.019 229.644ZM177.405 232.928C175.834 232.917 174.357 233.28 172.99 234.017L173.94 235.777C175.005 235.202 176.15 234.919 177.391 234.928L177.405 232.928ZM172.99 234.017C171.609 234.762 170.498 235.841 169.66 237.231L171.372 238.264C172.036 237.164 172.89 236.343 173.94 235.777L172.99 234.017ZM169.648 237.251C168.832 238.679 168.443 240.378 168.43 242.304L170.43 242.317C170.441 240.649 170.776 239.307 171.384 238.244L169.648 237.251ZM168.43 242.304C168.416 244.229 168.782 245.934 169.578 247.372L171.328 246.404C170.735 245.333 170.418 243.985 170.43 242.317L168.43 242.304ZM169.59 247.393C170.408 248.794 171.505 249.889 172.876 250.653L173.85 248.906C172.808 248.325 171.964 247.492 171.316 246.383L169.59 247.393ZM172.898 250.665C174.25 251.374 175.715 251.733 177.275 251.744L177.289 249.744C176.037 249.735 174.888 249.45 173.827 248.894L172.898 250.665ZM177.275 251.744C178.836 251.754 180.304 251.416 181.667 250.725L180.762 248.941C179.693 249.484 178.541 249.752 177.289 249.744L177.275 251.744ZM181.689 250.713C183.07 249.968 184.182 248.888 185.02 247.499L183.307 246.466C182.644 247.566 181.789 248.387 180.739 248.953L181.689 250.713ZM185.02 247.499C185.883 246.068 186.295 244.361 186.308 242.427L184.308 242.413C184.297 244.072 183.946 245.407 183.307 246.466L185.02 247.499ZM186.308 242.427C186.322 240.492 185.933 238.78 185.09 237.337L183.363 238.347C183.987 239.414 184.32 240.754 184.308 242.413L186.308 242.427ZM185.09 237.337C184.271 235.936 183.174 234.841 181.803 234.077L180.83 235.824C181.872 236.405 182.715 237.237 183.363 238.347L185.09 237.337ZM181.803 234.077C180.448 233.322 178.976 232.939 177.405 232.928L177.391 234.928C178.632 234.936 179.773 235.235 180.83 235.824L181.803 234.077ZM218.927 236.089L218.431 236.957L219.915 237.805L219.927 236.096L218.927 236.089ZM210.719 236.677L211.409 237.401L211.415 237.395L211.422 237.389L210.719 236.677ZM207.703 240.758L206.82 240.288L206.705 240.505L206.703 240.751L207.703 240.758ZM207.589 257.281L207.582 258.281L208.582 258.288L208.589 257.288L207.589 257.281ZM200.148 257.229L199.148 257.223L199.141 258.223L200.141 258.229L200.148 257.229ZM200.352 227.64L200.359 226.64L199.359 226.633L199.352 227.633L200.352 227.64ZM207.793 227.692L208.793 227.698L208.8 226.698L207.8 226.692L207.793 227.692ZM207.755 233.258L206.755 233.251L206.729 236.981L208.617 233.764L207.755 233.258ZM211.359 228.888L210.724 228.115L210.714 228.124L211.359 228.888ZM218.985 227.71L219.985 227.717L219.989 227.046L219.37 226.787L218.985 227.71ZM219.423 235.221C218.036 234.428 216.563 234.018 215.015 234.007L215.002 236.007C216.188 236.015 217.327 236.326 218.431 236.957L219.423 235.221ZM215.015 234.007C213.053 233.994 211.361 234.639 210.017 235.965L211.422 237.389C212.359 236.464 213.527 235.997 215.002 236.007L215.015 234.007ZM210.03 235.953C208.8 237.124 207.733 238.575 206.82 240.288L208.586 241.228C209.415 239.671 210.359 238.401 211.409 237.401L210.03 235.953ZM206.703 240.751L206.589 257.274L208.589 257.288L208.703 240.765L206.703 240.751ZM207.596 256.281L200.155 256.229L200.141 258.229L207.582 258.281L207.596 256.281ZM201.148 257.236L201.352 227.647L199.352 227.633L199.148 257.223L201.148 257.236ZM200.345 228.64L207.786 228.692L207.8 226.692L200.359 226.64L200.345 228.64ZM206.793 227.685L206.755 233.251L208.755 233.265L208.793 227.698L206.793 227.685ZM208.617 233.764C209.595 232.098 210.726 230.733 212.005 229.652L210.714 228.124C209.242 229.368 207.97 230.916 206.892 232.752L208.617 233.764ZM211.994 229.661C213.236 228.64 214.597 228.153 216.11 228.163L216.124 226.163C214.122 226.149 212.311 226.811 210.724 228.115L211.994 229.661ZM216.11 228.163C217.053 228.169 217.878 228.332 218.6 228.633L219.37 226.787C218.378 226.373 217.291 226.171 216.124 226.163L216.11 228.163ZM217.985 227.703L217.927 236.082L219.927 236.096L219.985 227.717L217.985 227.703ZM246.396 229.305L245.882 230.163L245.892 230.169L246.396 229.305ZM252.099 234.97L251.241 235.482L251.246 235.491L251.251 235.499L252.099 234.97ZM251.99 250.79L251.149 250.249L251.143 250.259L251.99 250.79ZM246.21 256.375L246.701 257.246L246.712 257.24L246.21 256.375ZM230.39 256.266L229.876 257.124L229.884 257.129L229.892 257.133L230.39 256.266ZM224.795 234.782L225.643 235.312L225.647 235.306L224.795 234.782ZM230.576 229.196L231.068 230.067L231.072 230.064L230.576 229.196ZM234.518 235.317L234.044 234.437L234.518 235.317ZM231.569 238.168L230.713 237.652L230.707 237.662L230.701 237.672L231.569 238.168ZM231.506 247.309L230.631 247.793L230.637 247.803L230.643 247.813L231.506 247.309ZM234.416 250.2L233.929 251.073L233.94 251.079L233.951 251.085L234.416 250.2ZM242.267 250.254L242.72 251.146L242.731 251.14L242.742 251.134L242.267 250.254ZM238.494 228.141C241.214 228.16 243.669 228.836 245.882 230.163L246.91 228.447C244.377 226.929 241.569 226.162 238.508 226.141L238.494 228.141ZM245.892 230.169C248.118 231.466 249.897 233.233 251.241 235.482L252.958 234.457C251.444 231.921 249.421 229.911 246.9 228.441L245.892 230.169ZM251.251 235.499C252.613 237.683 253.29 240.137 253.271 242.888L255.271 242.902C255.293 239.794 254.522 236.964 252.948 234.44L251.251 235.499ZM253.271 242.888C253.253 245.639 252.541 248.084 251.149 250.249L252.832 251.33C254.44 248.828 255.25 246.01 255.271 242.902L253.271 242.888ZM251.143 250.259C249.768 252.454 247.96 254.202 245.707 255.51L246.712 257.24C249.244 255.769 251.29 253.792 252.838 251.32L251.143 250.259ZM245.718 255.504C243.486 256.764 241.018 257.39 238.292 257.371L238.279 259.371C241.334 259.392 244.149 258.687 246.701 257.246L245.718 255.504ZM238.292 257.371C235.609 257.353 233.146 256.694 230.887 255.398L229.892 257.133C232.458 258.605 235.259 259.35 238.279 259.371L238.292 257.371ZM230.904 255.408C228.669 254.069 226.886 252.297 225.541 250.082L223.832 251.12C225.346 253.614 227.364 255.618 229.876 257.124L230.904 255.408ZM225.541 250.082C224.214 247.897 223.554 245.44 223.573 242.683L221.573 242.67C221.552 245.772 222.3 248.598 223.832 251.12L225.541 250.082ZM223.573 242.683C223.592 239.927 224.286 237.479 225.643 235.312L223.948 234.251C222.382 236.752 221.594 239.567 221.573 242.67L223.573 242.683ZM225.647 235.306C227.021 233.075 228.825 231.333 231.068 230.067L230.084 228.325C227.543 229.761 225.493 231.742 223.944 234.257L225.647 235.306ZM231.072 230.064C233.348 228.764 235.815 228.123 238.494 228.141L238.508 226.141C235.483 226.121 232.668 226.849 230.08 228.328L231.072 230.064ZM238.458 233.348C236.887 233.337 235.41 233.7 234.044 234.437L234.993 236.197C236.058 235.623 237.203 235.34 238.444 235.348L238.458 233.348ZM234.044 234.437C232.662 235.182 231.551 236.262 230.713 237.652L232.425 238.685C233.089 237.584 233.944 236.764 234.993 236.197L234.044 234.437ZM230.701 237.672C229.885 239.099 229.496 240.798 229.483 242.724L231.483 242.738C231.494 241.07 231.83 239.727 232.437 238.664L230.701 237.672ZM229.483 242.724C229.47 244.65 229.835 246.354 230.631 247.793L232.381 246.824C231.788 245.753 231.471 244.406 231.483 242.738L229.483 242.724ZM230.643 247.813C231.462 249.214 232.558 250.309 233.929 251.073L234.903 249.326C233.861 248.746 233.018 247.913 232.369 246.804L230.643 247.813ZM233.951 251.085C235.304 251.795 236.768 252.153 238.328 252.164L238.342 250.164C237.09 250.156 235.941 249.871 234.881 249.314L233.951 251.085ZM238.328 252.164C239.889 252.175 241.358 251.837 242.72 251.146L241.815 249.362C240.747 249.904 239.594 250.173 238.342 250.164L238.328 252.164ZM242.742 251.134C244.123 250.389 245.235 249.309 246.073 247.919L244.36 246.887C243.697 247.987 242.842 248.807 241.793 249.374L242.742 251.134ZM246.073 247.919C246.936 246.488 247.348 244.782 247.361 242.847L245.361 242.834C245.35 244.493 244.999 245.828 244.36 246.887L246.073 247.919ZM247.361 242.847C247.375 240.913 246.986 239.201 246.143 237.758L244.416 238.767C245.04 239.834 245.373 241.174 245.361 242.834L247.361 242.847ZM246.143 237.758C245.324 236.357 244.228 235.262 242.857 234.498L241.883 236.245C242.925 236.825 243.768 237.658 244.416 238.767L246.143 237.758ZM242.857 234.498C241.501 233.742 240.029 233.359 238.458 233.348L238.444 235.348C239.685 235.357 240.826 235.656 241.883 236.245L242.857 234.498ZM284.835 229.277L284.309 230.128L284.319 230.134L284.329 230.14L284.835 229.277ZM289.662 234.525L288.774 234.984L288.778 234.993L288.783 235.002L289.662 234.525ZM289.546 251.341L288.664 250.871L288.658 250.882L289.546 251.341ZM284.528 256.815L285.039 257.674L285.043 257.671L284.528 256.815ZM272.687 257.436L272.225 258.323L272.238 258.33L272.251 258.336L272.687 257.436ZM268.665 254.362L269.412 253.696L267.683 251.756L267.665 254.355L268.665 254.362ZM268.546 271.763L268.539 272.763L269.539 272.77L269.546 271.77L268.546 271.763ZM261.104 271.712L260.104 271.705L260.097 272.705L261.097 272.712L261.104 271.712ZM261.405 228.061L261.412 227.061L260.412 227.054L260.405 228.054L261.405 228.061ZM268.846 228.112L269.846 228.119L269.853 227.119L268.853 227.112L268.846 228.112ZM268.812 233.092L267.812 233.086L269.69 233.571L268.812 233.092ZM272.59 229.075L273.139 229.911L273.145 229.907L273.152 229.902L272.59 229.075ZM272.66 235.873L273.147 236.746L273.158 236.74L273.169 236.734L272.66 235.873ZM269.769 238.724L268.913 238.208L268.907 238.218L268.901 238.228L269.769 238.724ZM268.742 243.229L269.742 243.236L269.742 243.225L269.742 243.214L268.742 243.229ZM268.713 247.506L267.713 247.499L267.71 247.903L267.988 248.195L268.713 247.506ZM272.092 250.283L271.564 251.132L271.58 251.142L271.596 251.152L272.092 250.283ZM282.779 247.017L283.676 247.46L283.681 247.449L282.779 247.017ZM281.733 237.166L280.975 237.818L280.98 237.823L280.985 237.829L281.733 237.166ZM278.337 228.416C280.498 228.431 282.482 229 284.309 230.128L285.36 228.426C283.219 227.105 280.876 226.433 278.35 226.416L278.337 228.416ZM284.329 230.14C286.171 231.22 287.655 232.82 288.774 234.984L290.55 234.066C289.278 231.604 287.544 229.706 285.34 228.414L284.329 230.14ZM288.783 235.002C289.918 237.093 290.501 239.695 290.48 242.851L292.48 242.865C292.503 239.459 291.875 236.505 290.541 234.048L288.783 235.002ZM290.48 242.851C290.458 246.006 289.839 248.667 288.664 250.871L290.428 251.812C291.786 249.267 292.456 246.273 292.48 242.865L290.48 242.851ZM288.658 250.882C287.508 253.106 285.959 254.786 284.012 255.958L285.043 257.671C287.333 256.294 289.129 254.325 290.434 251.8L288.658 250.882ZM284.017 255.955C282.103 257.093 279.974 257.658 277.608 257.642L277.594 259.642C280.306 259.661 282.795 259.008 285.039 257.674L284.017 255.955ZM277.608 257.642C276.131 257.632 274.639 257.271 273.123 256.536L272.251 258.336C274.006 259.186 275.789 259.629 277.594 259.642L277.608 257.642ZM273.149 256.549C271.65 255.768 270.409 254.815 269.412 253.696L267.919 255.027C269.093 256.345 270.533 257.441 272.225 258.323L273.149 256.549ZM267.665 254.355L267.546 271.757L269.546 271.77L269.665 254.368L267.665 254.355ZM268.552 270.763L261.111 270.712L261.097 272.712L268.539 272.763L268.552 270.763ZM262.104 271.719L262.405 228.068L260.405 228.054L260.104 271.705L262.104 271.719ZM261.398 229.061L268.839 229.112L268.853 227.112L261.412 227.061L261.398 229.061ZM267.846 228.105L267.812 233.086L269.812 233.099L269.846 228.119L267.846 228.105ZM269.69 233.571C270.475 232.132 271.616 230.911 273.139 229.911L272.041 228.24C270.267 229.404 268.89 230.862 267.934 232.614L269.69 233.571ZM273.152 229.902C274.616 228.906 276.331 228.402 278.337 228.416L278.35 226.416C275.981 226.4 273.86 227.002 272.027 228.249L273.152 229.902ZM276.424 233.844C274.909 233.834 273.479 234.228 272.152 235.012L273.169 236.734C274.194 236.128 275.269 235.836 276.41 235.844L276.424 233.844ZM272.173 235C270.833 235.747 269.746 236.826 268.913 238.208L270.626 239.241C271.294 238.133 272.135 237.311 273.147 236.746L272.173 235ZM268.901 238.228C268.082 239.66 267.713 241.347 267.742 243.244L269.742 243.214C269.717 241.594 270.033 240.278 270.637 239.22L268.901 238.228ZM267.742 243.222L267.713 247.499L269.713 247.513L269.742 243.236L267.742 243.222ZM267.988 248.195C269.089 249.353 270.281 250.334 271.564 251.132L272.62 249.434C271.491 248.732 270.43 247.861 269.437 246.817L267.988 248.195ZM271.596 251.152C272.991 251.949 274.505 252.355 276.121 252.366L276.135 250.366C274.86 250.357 273.683 250.041 272.588 249.415L271.596 251.152ZM276.121 252.366C277.835 252.378 279.376 251.923 280.701 250.977L279.54 249.349C278.588 250.028 277.467 250.375 276.135 250.366L276.121 252.366ZM280.701 250.977C281.977 250.066 282.971 248.889 283.676 247.46L281.882 246.575C281.319 247.715 280.54 248.635 279.54 249.349L280.701 250.977ZM283.681 247.449C284.379 245.991 284.734 244.442 284.745 242.812L282.745 242.798C282.736 244.137 282.447 245.396 281.877 246.585L283.681 247.449ZM284.745 242.812C284.762 240.362 284.017 238.237 282.482 236.503L280.985 237.829C282.163 239.16 282.759 240.795 282.745 242.798L284.745 242.812ZM282.492 236.514C280.965 234.739 278.907 233.861 276.424 233.844L276.41 235.844C278.381 235.858 279.866 236.528 280.975 237.818L282.492 236.514ZM319.33 231.8L318.573 232.453L320.312 234.468L320.33 231.807L319.33 231.8ZM319.353 228.46L319.36 227.46L318.36 227.453L318.353 228.453L319.353 228.46ZM326.794 228.511L327.794 228.518L327.801 227.518L326.801 227.511L326.794 228.511ZM326.59 258.1L326.583 259.1L327.583 259.107L327.59 258.107L326.59 258.1ZM319.149 258.049L318.149 258.042L318.142 259.042L319.142 259.049L319.149 258.049ZM319.183 253.069L320.183 253.076L318.305 252.59L319.183 253.069ZM315.405 257.203L315.967 258.03L315.974 258.025L315.98 258.021L315.405 257.203ZM303.043 257.001L302.517 257.852L302.525 257.856L303.043 257.001ZM298.39 234.878L297.511 234.402L297.505 234.413L298.39 234.878ZM303.408 229.522L303.919 230.382L303.923 230.379L303.408 229.522ZM307.815 236.115L308.391 236.933L308.396 236.929L307.815 236.115ZM306.203 249.054L305.437 249.696L305.441 249.701L305.446 249.707L306.203 249.054ZM315.276 250.405L314.767 249.544L314.761 249.548L314.754 249.552L315.276 250.405ZM318.108 247.495L317.245 246.99L317.24 246.999L318.108 247.495ZM319.283 238.655L320.283 238.662L320.285 238.269L320.019 237.979L319.283 238.655ZM315.844 235.936L315.357 236.81L315.369 236.816L315.844 235.936ZM310.387 228.637C311.829 228.647 313.308 228.99 314.831 229.692L315.667 227.875C313.919 227.07 312.161 226.649 310.4 226.637L310.387 228.637ZM314.831 229.692C316.347 230.39 317.589 231.313 318.573 232.453L320.087 231.147C318.901 229.772 317.422 228.683 315.667 227.875L314.831 229.692ZM320.33 231.807L320.353 228.467L318.353 228.453L318.33 231.793L320.33 231.807ZM319.346 229.46L326.787 229.511L326.801 227.511L319.36 227.46L319.346 229.46ZM325.794 228.504L325.59 258.094L327.59 258.107L327.794 228.518L325.794 228.504ZM326.597 257.1L319.156 257.049L319.142 259.049L326.583 259.1L326.597 257.1ZM320.149 258.056L320.183 253.076L318.183 253.062L318.149 258.042L320.149 258.056ZM318.305 252.59C317.516 254.037 316.366 255.303 314.829 256.385L315.98 258.021C317.741 256.782 319.11 255.292 320.061 253.548L318.305 252.59ZM314.842 256.376C313.378 257.372 311.663 257.877 309.658 257.863L309.644 259.863C312.014 259.879 314.135 259.277 315.967 258.03L314.842 256.376ZM309.658 257.863C307.454 257.848 305.428 257.276 303.561 256.145L302.525 257.856C304.703 259.175 307.083 259.845 309.644 259.863L309.658 257.863ZM303.568 256.15C301.756 255.031 300.285 253.406 299.163 251.235L297.386 252.153C298.654 254.608 300.362 256.521 302.517 257.852L303.568 256.15ZM299.163 251.235C298.059 249.099 297.494 246.47 297.516 243.31L295.516 243.296C295.492 246.698 296.1 249.664 297.386 252.153L299.163 251.235ZM297.516 243.31C297.537 240.15 298.139 237.507 299.275 235.343L297.505 234.413C296.188 236.92 295.539 239.894 295.516 243.296L297.516 243.31ZM299.269 235.355C300.458 233.162 302.01 231.516 303.919 230.382L302.897 228.663C300.648 229.999 298.854 231.924 297.511 234.402L299.269 235.355ZM303.923 230.379C305.879 229.202 308.026 228.62 310.387 228.637L310.4 226.637C307.683 226.618 305.172 227.293 302.892 228.665L303.923 230.379ZM311.874 233.913C310.126 233.901 308.564 234.352 307.235 235.301L308.396 236.929C309.344 236.253 310.482 235.903 311.86 235.913L311.874 233.913ZM307.24 235.297C305.995 236.174 305.022 237.336 304.319 238.76L306.113 239.645C306.678 238.5 307.438 237.604 308.391 236.933L307.24 235.297ZM304.319 238.76C303.616 240.186 303.261 241.72 303.25 243.349L305.25 243.363C305.259 242.024 305.548 240.789 306.113 239.645L304.319 238.76ZM303.25 243.349C303.233 245.791 303.953 247.926 305.437 249.696L306.969 248.411C305.818 247.038 305.236 245.374 305.25 243.363L303.25 243.349ZM305.446 249.707C307.005 251.514 309.079 252.417 311.57 252.434L311.584 250.434C309.622 250.421 308.113 249.737 306.96 248.4L305.446 249.707ZM311.57 252.434C313.086 252.445 314.501 252.05 315.797 251.258L314.754 249.552C313.775 250.15 312.725 250.442 311.584 250.434L311.57 252.434ZM315.784 251.266C317.118 250.478 318.183 249.379 318.977 247.991L317.24 246.999C316.61 248.101 315.787 248.942 314.767 249.544L315.784 251.266ZM318.972 248C319.828 246.536 320.24 244.816 320.254 242.881L318.254 242.867C318.242 244.525 317.891 245.886 317.245 246.99L318.972 248ZM320.254 242.881L320.283 238.662L318.283 238.648L318.254 242.867L320.254 242.881ZM320.019 237.979C318.904 236.764 317.671 235.786 316.319 235.056L315.369 236.816C316.508 237.431 317.567 238.266 318.546 239.331L320.019 237.979ZM316.331 235.063C314.971 234.304 313.479 233.924 311.874 233.913L311.86 235.913C313.145 235.921 314.305 236.223 315.357 236.81L316.331 235.063ZM340.622 228.607L341.538 228.205L341.277 227.611L340.629 227.607L340.622 228.607ZM348.929 247.531L348.014 247.933L348.925 250.01L349.844 247.936L348.929 247.531ZM357.262 228.721L357.269 227.721L356.613 227.717L356.348 228.316L357.262 228.721ZM365.758 228.78L366.652 229.228L367.372 227.791L365.765 227.78L365.758 228.78ZM343.954 272.283L343.947 273.283L344.569 273.287L344.848 272.731L343.954 272.283ZM335.517 272.225L334.643 271.738L333.82 273.213L335.51 273.225L335.517 272.225ZM344.534 256.056L345.408 256.543L345.655 256.101L345.444 255.64L344.534 256.056ZM331.95 228.547L331.957 227.547L330.388 227.536L331.041 228.963L331.95 228.547ZM339.706 229.009L348.014 247.933L349.845 247.129L341.538 228.205L339.706 229.009ZM349.844 247.936L358.176 229.126L356.348 228.316L348.015 247.126L349.844 247.936ZM357.255 229.721L365.751 229.78L365.765 227.78L357.269 227.721L357.255 229.721ZM364.864 228.332L343.06 271.835L344.848 272.731L366.652 229.228L364.864 228.332ZM343.961 271.283L335.524 271.225L335.51 273.225L343.947 273.283L343.961 271.283ZM336.39 272.712L345.408 256.543L343.661 255.569L334.643 271.738L336.39 272.712ZM345.444 255.64L332.86 228.131L331.041 228.963L343.625 256.472L345.444 255.64ZM331.943 229.547L340.615 229.607L340.629 227.607L331.957 227.547L331.943 229.547Z" fill="#1B0B27" fill-opacity="0.5"/>
</svg>
