<svg width="100" height="16" viewBox="0 0 100 16" fill="none" xmlns="http://www.w3.org/2000/svg">
<path d="M7.64571 0.736966C7.86793 0.0531143 8.83563 0.0531143 9.05785 0.736966L10.4599 5.05223C10.5595 5.3586 10.8445 5.56541 11.1663 5.56541H15.7038C16.4232 5.56541 16.7219 6.48571 16.1399 6.90882L12.4688 9.57549C12.2087 9.76511 12.1002 10.0999 12.1992 10.4057L13.6019 14.721C13.8241 15.4054 13.0407 15.9743 12.4593 15.5512L8.78822 12.8845C8.66137 12.7924 8.50859 12.7427 8.35178 12.7427C8.19497 12.7427 8.04219 12.7924 7.91534 12.8845L4.24422 15.5512C3.6623 15.9743 2.87948 15.4054 3.1017 14.7216L4.50378 10.4051C4.55212 10.2561 4.55207 10.0955 4.50364 9.94653C4.45521 9.79751 4.36088 9.66763 4.23415 9.57549L0.563038 6.90823C-0.0182955 6.48511 0.280371 5.56482 0.999779 5.56482H5.53726C5.85904 5.56482 6.14408 5.35741 6.24363 5.05163L7.64571 0.736374V0.736966ZM28.2827 0.736966C28.505 0.0531143 29.4727 0.0531143 29.6949 0.736966L31.097 5.05223C31.1965 5.3586 31.4822 5.56541 31.8033 5.56541H36.3408C37.0602 5.56541 37.3589 6.48571 36.777 6.90882L33.1064 9.57549C32.8457 9.76511 32.7373 10.0999 32.8368 10.4057L34.2389 14.721C34.4611 15.4054 33.6783 15.9743 33.0964 15.5512L29.4253 12.8845C29.2984 12.7924 29.1456 12.7427 28.9888 12.7427C28.832 12.7427 28.6792 12.7924 28.5524 12.8845L24.8813 15.5512C24.2993 15.9743 23.5165 15.4054 23.7387 14.7216L25.1414 10.4057C25.1897 10.2566 25.1896 10.096 25.141 9.94701C25.0925 9.79799 24.998 9.66815 24.8712 9.57608L21.2007 6.90882C20.6187 6.48571 20.9174 5.56541 21.6368 5.56541H26.1743C26.4961 5.56541 26.7811 5.358 26.8807 5.05223L28.2827 0.736966V0.736966ZM48.9198 0.736966C49.142 0.0531143 50.1097 0.0531143 50.3319 0.736966L51.7346 5.05223C51.8336 5.3586 52.1186 5.56541 52.4404 5.56541H56.9779C57.6973 5.56541 57.9965 6.48571 57.4146 6.90882L53.7435 9.57549C53.4828 9.76511 53.3743 10.0999 53.4739 10.4057L54.8759 14.721C55.0982 15.4054 54.3153 15.9743 53.7334 15.5512L50.0623 12.8845C49.9354 12.7924 49.7827 12.7427 49.6259 12.7427C49.4691 12.7427 49.3163 12.7924 49.1894 12.8845L45.5189 15.5512C44.937 15.9743 44.1542 15.4054 44.3764 14.7216L45.7785 10.4057C45.8268 10.2567 45.8267 10.0961 45.7783 9.94712C45.7299 9.7981 45.6356 9.66823 45.5088 9.57608L41.8371 6.90823C41.2552 6.48511 41.5545 5.56482 42.2733 5.56482H46.8107C47.1325 5.56482 47.4176 5.35741 47.5171 5.05163L48.9192 0.736374L48.9198 0.736966ZM69.5568 0.736966C69.7796 0.0525217 70.7468 0.0525217 70.9696 0.736966L72.3716 5.05223C72.4712 5.358 72.7562 5.56541 73.078 5.56541H77.6155C78.3349 5.56541 78.6336 6.48571 78.0516 6.90823L74.3811 9.57608C74.121 9.76511 74.0119 10.0999 74.1109 10.4057L75.513 14.7216C75.7352 15.4054 74.9524 15.9743 74.3705 15.5512L70.6993 12.8845C70.5726 12.7924 70.4199 12.7428 70.2632 12.7428C70.1065 12.7428 69.9538 12.7924 69.827 12.8845L66.1553 15.5512C65.574 15.9743 64.7906 15.4054 65.0128 14.7216L66.4149 10.4057C66.4632 10.2567 66.4632 10.0961 66.4148 9.94712C66.3663 9.7981 66.272 9.66823 66.1453 9.57608L62.4748 6.90823C61.8928 6.48571 62.1915 5.56541 62.9109 5.56541H67.4484C67.7702 5.56541 68.0552 5.358 68.1548 5.05223L69.5568 0.736374V0.736966Z" fill="#F7B66D"/>
<path d="M90.1943 0.736278C90.4166 0.0524257 91.3843 0.0524257 91.6065 0.736278L93.0086 5.05213C93.1081 5.35791 93.3931 5.56531 93.7149 5.56531H98.2524C98.9718 5.56531 99.2705 6.48561 98.6891 6.90813L95.018 9.57598C94.7579 9.76502 94.6488 10.0998 94.7484 10.4056L96.1505 14.7215C96.3727 15.4053 95.5899 15.9742 95.008 15.5511L91.3368 12.8844C91.21 12.7923 91.0572 12.7426 90.9004 12.7426C90.7436 12.7426 90.5908 12.7923 90.464 12.8844L86.7928 15.5511C86.2109 15.9742 85.4281 15.4053 85.6503 14.7215L87.0524 10.4056C87.1007 10.2566 87.1006 10.0961 87.0521 9.94707C87.0037 9.79807 86.9094 9.66819 86.7828 9.57598L83.1117 6.90813C82.5297 6.48561 82.829 5.56531 83.5478 5.56531H88.0859C88.4071 5.56531 88.6921 5.35791 88.7917 5.05213L90.1943 0.736278V0.736278Z" fill="#EFEFEF"/>
<path fill-rule="evenodd" clip-rule="evenodd" d="M91.2563 0.311387C90.8811 0.111091 90.3514 0.25272 90.1943 0.736276L88.7917 5.05213C88.7433 5.20121 88.6489 5.33116 88.5221 5.42334C88.3953 5.51552 88.2426 5.56522 88.0859 5.56531H83.5478C82.829 5.56531 82.5297 6.48561 83.1117 6.90813L86.7828 9.57598C87.0429 9.76502 87.1514 10.0998 87.0524 10.4056L85.6503 14.7215C85.4281 15.4053 86.2109 15.9742 86.7928 15.5511L90.464 12.8844C90.6299 12.7635 90.8337 12.7203 91.0269 12.7541V0.310795H91.2563V0.311387Z" fill="#F7B66D"/>
</svg>
